<svg width="443" height="326" viewBox="0 0 443 326" fill="none" xmlns="http://www.w3.org/2000/svg">
<g clip-path="url(#clip0_2_114)">
<g filter="url(#filter0_d_2_114)">
<path d="M0 10C0 4.47716 4.47715 0 10 0H433C438.523 0 443 4.47715 443 10V375C443 380.523 438.523 385 433 385H9.99999C4.47715 385 0 380.523 0 375V10Z" fill="#1D3954"/>
</g>
<path d="M20.8535 25.1348V32.5312H19.582V25.1348H20.8535ZM19.4863 23.1729C19.4863 22.9678 19.5479 22.7946 19.6709 22.6533C19.7985 22.512 19.9854 22.4414 20.2314 22.4414C20.473 22.4414 20.6576 22.512 20.7852 22.6533C20.9173 22.7946 20.9834 22.9678 20.9834 23.1729C20.9834 23.3688 20.9173 23.5374 20.7852 23.6787C20.6576 23.8154 20.473 23.8838 20.2314 23.8838C19.9854 23.8838 19.7985 23.8154 19.6709 23.6787C19.5479 23.5374 19.4863 23.3688 19.4863 23.1729ZM24.1484 26.2969V32.5312H22.8838V25.1348H24.1143L24.1484 26.2969ZM26.459 25.0938L26.4521 26.2695C26.3473 26.2467 26.2471 26.2331 26.1514 26.2285C26.0602 26.2194 25.9554 26.2148 25.8369 26.2148C25.5452 26.2148 25.2878 26.2604 25.0645 26.3516C24.8411 26.4427 24.652 26.5703 24.4971 26.7344C24.3421 26.8984 24.2191 27.0944 24.1279 27.3223C24.0413 27.5456 23.9844 27.7917 23.957 28.0605L23.6016 28.2656C23.6016 27.819 23.6449 27.3997 23.7314 27.0078C23.8226 26.6159 23.9616 26.2695 24.1484 25.9688C24.3353 25.6634 24.5723 25.4264 24.8594 25.2578C25.151 25.0846 25.4974 24.998 25.8984 24.998C25.9896 24.998 26.0944 25.0094 26.2129 25.0322C26.3314 25.0505 26.4134 25.071 26.459 25.0938ZM27.6211 22.0312H28.8926V31.0957L28.7832 32.5312H27.6211V22.0312ZM33.8896 28.7715V28.915C33.8896 29.4528 33.8258 29.9518 33.6982 30.4121C33.5706 30.8678 33.3838 31.2643 33.1377 31.6016C32.8916 31.9388 32.5908 32.2008 32.2354 32.3877C31.8799 32.5745 31.472 32.668 31.0117 32.668C30.5423 32.668 30.1299 32.5882 29.7744 32.4287C29.4235 32.2646 29.1273 32.0299 28.8857 31.7246C28.6442 31.4193 28.4505 31.0501 28.3047 30.6172C28.1634 30.1842 28.0654 29.6966 28.0107 29.1543V28.5254C28.0654 27.9785 28.1634 27.4886 28.3047 27.0557C28.4505 26.6227 28.6442 26.2536 28.8857 25.9482C29.1273 25.6383 29.4235 25.4036 29.7744 25.2441C30.1253 25.0801 30.5332 24.998 30.998 24.998C31.4629 24.998 31.8753 25.0892 32.2354 25.2715C32.5954 25.4492 32.8962 25.7044 33.1377 26.0371C33.3838 26.3698 33.5706 26.7686 33.6982 27.2334C33.8258 27.6937 33.8896 28.2064 33.8896 28.7715ZM32.6182 28.915V28.7715C32.6182 28.4023 32.584 28.056 32.5156 27.7324C32.4473 27.4043 32.3379 27.1172 32.1875 26.8711C32.0371 26.6204 31.8389 26.4245 31.5928 26.2832C31.3467 26.1374 31.0436 26.0645 30.6836 26.0645C30.3646 26.0645 30.0866 26.1191 29.8496 26.2285C29.6172 26.3379 29.4189 26.486 29.2549 26.6729C29.0908 26.8551 28.9564 27.0648 28.8516 27.3018C28.7513 27.5342 28.6761 27.7757 28.626 28.0264V29.6738C28.6989 29.9928 28.8174 30.3005 28.9814 30.5967C29.1501 30.8883 29.3734 31.1276 29.6514 31.3145C29.9339 31.5013 30.2826 31.5947 30.6973 31.5947C31.0391 31.5947 31.3307 31.5264 31.5723 31.3896C31.8184 31.2484 32.0166 31.0547 32.167 30.8086C32.3219 30.5625 32.4359 30.2777 32.5088 29.9541C32.5817 29.6305 32.6182 29.2842 32.6182 28.915ZM35.4414 28.5527V28.4844C35.4414 27.4909 35.5531 26.5931 35.7764 25.791C35.9997 24.9844 36.2845 24.278 36.6309 23.6719C36.9772 23.0658 37.3418 22.5645 37.7246 22.168C38.1074 21.7669 38.4606 21.4775 38.7842 21.2998L39.0508 22.1338C38.7819 22.3389 38.5085 22.6214 38.2305 22.9814C37.957 23.3415 37.7041 23.7835 37.4717 24.3076C37.2438 24.8317 37.0592 25.4401 36.918 26.1328C36.7767 26.8255 36.7061 27.6048 36.7061 28.4707V28.5664C36.7061 29.4323 36.7767 30.2139 36.918 30.9111C37.0592 31.6038 37.2438 32.2145 37.4717 32.7432C37.7041 33.2718 37.957 33.7207 38.2305 34.0898C38.5085 34.4635 38.7819 34.7598 39.0508 34.9785L38.7842 35.7441C38.4606 35.5664 38.1074 35.277 37.7246 34.876C37.3418 34.4795 36.9772 33.9782 36.6309 33.3721C36.2845 32.7705 35.9997 32.0664 35.7764 31.2598C35.5531 30.4531 35.4414 29.5508 35.4414 28.5527ZM41.5459 26.6045V32.5312H40.2744V25.1348H41.4775L41.5459 26.6045ZM41.2861 28.5527L40.6982 28.5322C40.7028 28.0264 40.7689 27.5592 40.8965 27.1309C41.0241 26.6979 41.2132 26.3219 41.4639 26.0029C41.7145 25.6839 42.0267 25.4378 42.4004 25.2646C42.7741 25.0869 43.207 24.998 43.6992 24.998C44.0456 24.998 44.3646 25.0482 44.6562 25.1484C44.9479 25.2441 45.2008 25.3968 45.415 25.6064C45.6292 25.8161 45.7956 26.085 45.9141 26.4131C46.0326 26.7412 46.0918 27.1377 46.0918 27.6025V32.5312H44.8271V27.6641C44.8271 27.2767 44.7611 26.9668 44.6289 26.7344C44.5013 26.502 44.319 26.3333 44.082 26.2285C43.8451 26.1191 43.5671 26.0645 43.248 26.0645C42.8743 26.0645 42.5622 26.1305 42.3115 26.2627C42.0609 26.3949 41.8604 26.5771 41.71 26.8096C41.5596 27.042 41.4502 27.3086 41.3818 27.6094C41.318 27.9056 41.2861 28.2201 41.2861 28.5527ZM46.0781 27.8555L45.2305 28.1152C45.235 27.7096 45.3011 27.32 45.4287 26.9463C45.5609 26.5726 45.75 26.2399 45.9961 25.9482C46.2467 25.6566 46.5544 25.4264 46.9189 25.2578C47.2835 25.0846 47.7005 24.998 48.1699 24.998C48.5664 24.998 48.9173 25.0505 49.2227 25.1553C49.5326 25.2601 49.7923 25.4219 50.002 25.6406C50.2161 25.8548 50.3779 26.1305 50.4873 26.4678C50.5967 26.805 50.6514 27.2061 50.6514 27.6709V32.5312H49.3799V27.6572C49.3799 27.2425 49.3138 26.9212 49.1816 26.6934C49.054 26.4609 48.8717 26.2992 48.6348 26.208C48.4023 26.1123 48.1243 26.0645 47.8008 26.0645C47.5228 26.0645 47.2767 26.1123 47.0625 26.208C46.8483 26.3037 46.6683 26.4359 46.5225 26.6045C46.3766 26.7686 46.265 26.9577 46.1875 27.1719C46.1146 27.3861 46.0781 27.6139 46.0781 27.8555ZM56.9268 31.2666V27.459C56.9268 27.1673 56.8675 26.9144 56.749 26.7002C56.6351 26.4814 56.4619 26.3128 56.2295 26.1943C55.9971 26.0758 55.71 26.0166 55.3682 26.0166C55.0492 26.0166 54.7689 26.0713 54.5273 26.1807C54.2904 26.29 54.1035 26.4336 53.9668 26.6113C53.8346 26.7891 53.7686 26.9805 53.7686 27.1855H52.5039C52.5039 26.9212 52.5723 26.6592 52.709 26.3994C52.8457 26.1396 53.0417 25.9049 53.2969 25.6953C53.5566 25.4811 53.8665 25.3125 54.2266 25.1895C54.5911 25.0618 54.9967 24.998 55.4434 24.998C55.9811 24.998 56.4551 25.0892 56.8652 25.2715C57.2799 25.4538 57.6035 25.7295 57.8359 26.0986C58.0729 26.4632 58.1914 26.9212 58.1914 27.4727V30.918C58.1914 31.1641 58.2119 31.4261 58.2529 31.7041C58.2985 31.9821 58.3646 32.2214 58.4512 32.4219V32.5312H57.1318C57.068 32.3854 57.0179 32.1917 56.9814 31.9502C56.945 31.7041 56.9268 31.4762 56.9268 31.2666ZM57.1455 28.0469L57.1592 28.9355H55.8809C55.5208 28.9355 55.1995 28.9652 54.917 29.0244C54.6344 29.0791 54.3975 29.1634 54.2061 29.2773C54.0146 29.3913 53.8688 29.5348 53.7686 29.708C53.6683 29.8766 53.6182 30.0749 53.6182 30.3027C53.6182 30.5352 53.6706 30.7471 53.7754 30.9385C53.8802 31.1299 54.0374 31.2826 54.2471 31.3965C54.4613 31.5059 54.7233 31.5605 55.0332 31.5605C55.4206 31.5605 55.7624 31.4785 56.0586 31.3145C56.3548 31.1504 56.5895 30.9499 56.7627 30.7129C56.9404 30.4759 57.0361 30.2458 57.0498 30.0225L57.5898 30.6309C57.5579 30.8223 57.4714 31.0342 57.3301 31.2666C57.1888 31.499 56.9997 31.7223 56.7627 31.9365C56.5303 32.1462 56.2523 32.3216 55.9287 32.4629C55.6097 32.5996 55.2497 32.668 54.8486 32.668C54.3473 32.668 53.9076 32.57 53.5293 32.374C53.1556 32.1781 52.8639 31.916 52.6543 31.5879C52.4492 31.2552 52.3467 30.8838 52.3467 30.4736C52.3467 30.0771 52.4242 29.7285 52.5791 29.4277C52.734 29.1224 52.9574 28.8695 53.249 28.6689C53.5407 28.4639 53.8916 28.3089 54.3018 28.2041C54.7119 28.0993 55.1699 28.0469 55.6758 28.0469H57.1455ZM61.5547 25.1348V32.5312H60.2832V25.1348H61.5547ZM60.1875 23.1729C60.1875 22.9678 60.249 22.7946 60.3721 22.6533C60.4997 22.512 60.6865 22.4414 60.9326 22.4414C61.1742 22.4414 61.3587 22.512 61.4863 22.6533C61.6185 22.7946 61.6846 22.9678 61.6846 23.1729C61.6846 23.3688 61.6185 23.5374 61.4863 23.6787C61.3587 23.8154 61.1742 23.8838 60.9326 23.8838C60.6865 23.8838 60.4997 23.8154 60.3721 23.6787C60.249 23.5374 60.1875 23.3688 60.1875 23.1729ZM64.8496 26.7139V32.5312H63.585V25.1348H64.7812L64.8496 26.7139ZM64.5488 28.5527L64.0225 28.5322C64.027 28.0264 64.1022 27.5592 64.248 27.1309C64.3939 26.6979 64.599 26.3219 64.8633 26.0029C65.1276 25.6839 65.4421 25.4378 65.8066 25.2646C66.1758 25.0869 66.5837 24.998 67.0303 24.998C67.3949 24.998 67.723 25.0482 68.0146 25.1484C68.3063 25.2441 68.5547 25.3991 68.7598 25.6133C68.9694 25.8275 69.1289 26.1055 69.2383 26.4473C69.3477 26.7845 69.4023 27.1969 69.4023 27.6846V32.5312H68.1309V27.6709C68.1309 27.2835 68.0739 26.9736 67.96 26.7412C67.846 26.5042 67.6797 26.3333 67.4609 26.2285C67.2422 26.1191 66.9733 26.0645 66.6543 26.0645C66.3398 26.0645 66.0527 26.1305 65.793 26.2627C65.5378 26.3949 65.3167 26.5771 65.1299 26.8096C64.9476 27.042 64.804 27.3086 64.6992 27.6094C64.599 27.9056 64.5488 28.2201 64.5488 28.5527ZM74.2354 28.4844V28.5527C74.2354 29.5508 74.1237 30.4531 73.9004 31.2598C73.6771 32.0664 73.3923 32.7705 73.0459 33.3721C72.6995 33.9782 72.335 34.4795 71.9521 34.876C71.5693 35.277 71.2161 35.5664 70.8926 35.7441L70.626 34.9785C70.8949 34.7734 71.166 34.4863 71.4395 34.1172C71.7129 33.7526 71.9658 33.3014 72.1982 32.7637C72.4307 32.2305 72.6175 31.6152 72.7588 30.918C72.9001 30.2161 72.9707 29.4323 72.9707 28.5664V28.4707C72.9707 27.6048 72.8955 26.8232 72.7451 26.126C72.5947 25.4242 72.3988 24.8066 72.1572 24.2734C71.9202 23.7402 71.665 23.2913 71.3916 22.9268C71.1227 22.5576 70.8675 22.2728 70.626 22.0723L70.8926 21.2998C71.2161 21.4775 71.5693 21.7669 71.9521 22.168C72.335 22.5645 72.6995 23.0658 73.0459 23.6719C73.3923 24.278 73.6771 24.9844 73.9004 25.791C74.1237 26.5931 74.2354 27.4909 74.2354 28.4844ZM76.1494 31.8613C76.1494 31.6471 76.2155 31.4671 76.3477 31.3213C76.4844 31.1709 76.6803 31.0957 76.9355 31.0957C77.1908 31.0957 77.3844 31.1709 77.5166 31.3213C77.6533 31.4671 77.7217 31.6471 77.7217 31.8613C77.7217 32.071 77.6533 32.2487 77.5166 32.3945C77.3844 32.5404 77.1908 32.6133 76.9355 32.6133C76.6803 32.6133 76.4844 32.5404 76.3477 32.3945C76.2155 32.2487 76.1494 32.071 76.1494 31.8613ZM76.1562 25.8252C76.1562 25.611 76.2223 25.431 76.3545 25.2852C76.4912 25.1348 76.6872 25.0596 76.9424 25.0596C77.1976 25.0596 77.3913 25.1348 77.5234 25.2852C77.6602 25.431 77.7285 25.611 77.7285 25.8252C77.7285 26.0348 77.6602 26.2126 77.5234 26.3584C77.3913 26.5042 77.1976 26.5771 76.9424 26.5771C76.6872 26.5771 76.4912 26.5042 76.3545 26.3584C76.2223 26.2126 76.1562 26.0348 76.1562 25.8252ZM85.7061 26.7617V28.2793C85.7061 29.0951 85.6331 29.7832 85.4873 30.3438C85.3415 30.9043 85.1318 31.3555 84.8584 31.6973C84.585 32.0391 84.2546 32.2874 83.8672 32.4424C83.4844 32.5928 83.0514 32.668 82.5684 32.668C82.1855 32.668 81.8324 32.6201 81.5088 32.5244C81.1852 32.4287 80.8936 32.276 80.6338 32.0664C80.3786 31.8522 80.1598 31.5742 79.9775 31.2324C79.7952 30.8906 79.6562 30.4759 79.5605 29.9883C79.4648 29.5007 79.417 28.931 79.417 28.2793V26.7617C79.417 25.946 79.4899 25.2624 79.6357 24.7109C79.7861 24.1595 79.998 23.7174 80.2715 23.3848C80.5449 23.0475 80.873 22.806 81.2559 22.6602C81.6432 22.5143 82.0762 22.4414 82.5547 22.4414C82.9421 22.4414 83.2975 22.4893 83.6211 22.585C83.9492 22.6761 84.2409 22.8242 84.4961 23.0293C84.7513 23.2298 84.9678 23.4987 85.1455 23.8359C85.3278 24.1686 85.4668 24.5765 85.5625 25.0596C85.6582 25.5426 85.7061 26.11 85.7061 26.7617ZM84.4346 28.4844V26.5498C84.4346 26.1032 84.4072 25.7113 84.3525 25.374C84.3024 25.0322 84.2272 24.7406 84.127 24.499C84.0267 24.2575 83.8991 24.0615 83.7441 23.9111C83.5938 23.7607 83.4183 23.6514 83.2178 23.583C83.0218 23.5101 82.8008 23.4736 82.5547 23.4736C82.2539 23.4736 81.9873 23.5306 81.7549 23.6445C81.5225 23.7539 81.3265 23.9294 81.167 24.1709C81.012 24.4124 80.8936 24.7292 80.8115 25.1211C80.7295 25.513 80.6885 25.9893 80.6885 26.5498V28.4844C80.6885 28.931 80.7135 29.3252 80.7637 29.667C80.8184 30.0088 80.8981 30.305 81.0029 30.5557C81.1077 30.8018 81.2354 31.0046 81.3857 31.1641C81.5361 31.3236 81.7093 31.4421 81.9053 31.5195C82.1058 31.5924 82.3268 31.6289 82.5684 31.6289C82.8783 31.6289 83.1494 31.5697 83.3818 31.4512C83.6143 31.3327 83.8079 31.1481 83.9629 30.8975C84.1224 30.6423 84.2409 30.3164 84.3184 29.9199C84.3958 29.5189 84.4346 29.0404 84.4346 28.4844ZM93.5811 26.7617V28.2793C93.5811 29.0951 93.5081 29.7832 93.3623 30.3438C93.2165 30.9043 93.0068 31.3555 92.7334 31.6973C92.46 32.0391 92.1296 32.2874 91.7422 32.4424C91.3594 32.5928 90.9264 32.668 90.4434 32.668C90.0605 32.668 89.7074 32.6201 89.3838 32.5244C89.0602 32.4287 88.7686 32.276 88.5088 32.0664C88.2536 31.8522 88.0348 31.5742 87.8525 31.2324C87.6702 30.8906 87.5312 30.4759 87.4355 29.9883C87.3398 29.5007 87.292 28.931 87.292 28.2793V26.7617C87.292 25.946 87.3649 25.2624 87.5107 24.7109C87.6611 24.1595 87.873 23.7174 88.1465 23.3848C88.4199 23.0475 88.748 22.806 89.1309 22.6602C89.5182 22.5143 89.9512 22.4414 90.4297 22.4414C90.8171 22.4414 91.1725 22.4893 91.4961 22.585C91.8242 22.6761 92.1159 22.8242 92.3711 23.0293C92.6263 23.2298 92.8428 23.4987 93.0205 23.8359C93.2028 24.1686 93.3418 24.5765 93.4375 25.0596C93.5332 25.5426 93.5811 26.11 93.5811 26.7617ZM92.3096 28.4844V26.5498C92.3096 26.1032 92.2822 25.7113 92.2275 25.374C92.1774 25.0322 92.1022 24.7406 92.002 24.499C91.9017 24.2575 91.7741 24.0615 91.6191 23.9111C91.4688 23.7607 91.2933 23.6514 91.0928 23.583C90.8968 23.5101 90.6758 23.4736 90.4297 23.4736C90.1289 23.4736 89.8623 23.5306 89.6299 23.6445C89.3975 23.7539 89.2015 23.9294 89.042 24.1709C88.887 24.4124 88.7686 24.7292 88.6865 25.1211C88.6045 25.513 88.5635 25.9893 88.5635 26.5498V28.4844C88.5635 28.931 88.5885 29.3252 88.6387 29.667C88.6934 30.0088 88.7731 30.305 88.8779 30.5557C88.9827 30.8018 89.1104 31.0046 89.2607 31.1641C89.4111 31.3236 89.5843 31.4421 89.7803 31.5195C89.9808 31.5924 90.2018 31.6289 90.4434 31.6289C90.7533 31.6289 91.0244 31.5697 91.2568 31.4512C91.4893 31.3327 91.6829 31.1481 91.8379 30.8975C91.9974 30.6423 92.1159 30.3164 92.1934 29.9199C92.2708 29.5189 92.3096 29.0404 92.3096 28.4844ZM101.641 22.5781V23.2891L97.5186 32.5312H96.1855L100.301 23.6172H94.9141V22.5781H101.641ZM103.165 31.8613C103.165 31.6471 103.231 31.4671 103.363 31.3213C103.5 31.1709 103.696 31.0957 103.951 31.0957C104.206 31.0957 104.4 31.1709 104.532 31.3213C104.669 31.4671 104.737 31.6471 104.737 31.8613C104.737 32.071 104.669 32.2487 104.532 32.3945C104.4 32.5404 104.206 32.6133 103.951 32.6133C103.696 32.6133 103.5 32.5404 103.363 32.3945C103.231 32.2487 103.165 32.071 103.165 31.8613ZM103.172 25.8252C103.172 25.611 103.238 25.431 103.37 25.2852C103.507 25.1348 103.703 25.0596 103.958 25.0596C104.213 25.0596 104.407 25.1348 104.539 25.2852C104.676 25.431 104.744 25.611 104.744 25.8252C104.744 26.0348 104.676 26.2126 104.539 26.3584C104.407 26.5042 104.213 26.5771 103.958 26.5771C103.703 26.5771 103.507 26.5042 103.37 26.3584C103.238 26.2126 103.172 26.0348 103.172 25.8252ZM112.722 26.7617V28.2793C112.722 29.0951 112.649 29.7832 112.503 30.3438C112.357 30.9043 112.147 31.3555 111.874 31.6973C111.601 32.0391 111.27 32.2874 110.883 32.4424C110.5 32.5928 110.067 32.668 109.584 32.668C109.201 32.668 108.848 32.6201 108.524 32.5244C108.201 32.4287 107.909 32.276 107.649 32.0664C107.394 31.8522 107.175 31.5742 106.993 31.2324C106.811 30.8906 106.672 30.4759 106.576 29.9883C106.48 29.5007 106.433 28.931 106.433 28.2793V26.7617C106.433 25.946 106.506 25.2624 106.651 24.7109C106.802 24.1595 107.014 23.7174 107.287 23.3848C107.561 23.0475 107.889 22.806 108.271 22.6602C108.659 22.5143 109.092 22.4414 109.57 22.4414C109.958 22.4414 110.313 22.4893 110.637 22.585C110.965 22.6761 111.257 22.8242 111.512 23.0293C111.767 23.2298 111.983 23.4987 112.161 23.8359C112.343 24.1686 112.482 24.5765 112.578 25.0596C112.674 25.5426 112.722 26.11 112.722 26.7617ZM111.45 28.4844V26.5498C111.45 26.1032 111.423 25.7113 111.368 25.374C111.318 25.0322 111.243 24.7406 111.143 24.499C111.042 24.2575 110.915 24.0615 110.76 23.9111C110.609 23.7607 110.434 23.6514 110.233 23.583C110.037 23.5101 109.816 23.4736 109.57 23.4736C109.27 23.4736 109.003 23.5306 108.771 23.6445C108.538 23.7539 108.342 23.9294 108.183 24.1709C108.028 24.4124 107.909 24.7292 107.827 25.1211C107.745 25.513 107.704 25.9893 107.704 26.5498V28.4844C107.704 28.931 107.729 29.3252 107.779 29.667C107.834 30.0088 107.914 30.305 108.019 30.5557C108.123 30.8018 108.251 31.0046 108.401 31.1641C108.552 31.3236 108.725 31.4421 108.921 31.5195C109.121 31.5924 109.342 31.6289 109.584 31.6289C109.894 31.6289 110.165 31.5697 110.397 31.4512C110.63 31.3327 110.824 31.1481 110.979 30.8975C111.138 30.6423 111.257 30.3164 111.334 29.9199C111.411 29.5189 111.45 29.0404 111.45 28.4844ZM119.305 28.2109L114.444 26.3174V25.0117L120.282 27.5957V28.3955L119.305 28.2109ZM114.444 29.8789L119.318 27.9443L120.282 27.8008V28.5938L114.444 31.1846V29.8789ZM129.647 31.2666V27.459C129.647 27.1673 129.588 26.9144 129.47 26.7002C129.356 26.4814 129.183 26.3128 128.95 26.1943C128.718 26.0758 128.431 26.0166 128.089 26.0166C127.77 26.0166 127.49 26.0713 127.248 26.1807C127.011 26.29 126.824 26.4336 126.688 26.6113C126.555 26.7891 126.489 26.9805 126.489 27.1855H125.225C125.225 26.9212 125.293 26.6592 125.43 26.3994C125.566 26.1396 125.762 25.9049 126.018 25.6953C126.277 25.4811 126.587 25.3125 126.947 25.1895C127.312 25.0618 127.717 24.998 128.164 24.998C128.702 24.998 129.176 25.0892 129.586 25.2715C130.001 25.4538 130.324 25.7295 130.557 26.0986C130.794 26.4632 130.912 26.9212 130.912 27.4727V30.918C130.912 31.1641 130.933 31.4261 130.974 31.7041C131.019 31.9821 131.085 32.2214 131.172 32.4219V32.5312H129.853C129.789 32.3854 129.739 32.1917 129.702 31.9502C129.666 31.7041 129.647 31.4762 129.647 31.2666ZM129.866 28.0469L129.88 28.9355H128.602C128.242 28.9355 127.92 28.9652 127.638 29.0244C127.355 29.0791 127.118 29.1634 126.927 29.2773C126.735 29.3913 126.59 29.5348 126.489 29.708C126.389 29.8766 126.339 30.0749 126.339 30.3027C126.339 30.5352 126.391 30.7471 126.496 30.9385C126.601 31.1299 126.758 31.2826 126.968 31.3965C127.182 31.5059 127.444 31.5605 127.754 31.5605C128.141 31.5605 128.483 31.4785 128.779 31.3145C129.076 31.1504 129.31 30.9499 129.483 30.7129C129.661 30.4759 129.757 30.2458 129.771 30.0225L130.311 30.6309C130.279 30.8223 130.192 31.0342 130.051 31.2666C129.91 31.499 129.72 31.7223 129.483 31.9365C129.251 32.1462 128.973 32.3216 128.649 32.4629C128.33 32.5996 127.97 32.668 127.569 32.668C127.068 32.668 126.628 32.57 126.25 32.374C125.876 32.1781 125.585 31.916 125.375 31.5879C125.17 31.2552 125.067 30.8838 125.067 30.4736C125.067 30.0771 125.145 29.7285 125.3 29.4277C125.455 29.1224 125.678 28.8695 125.97 28.6689C126.261 28.4639 126.612 28.3089 127.022 28.2041C127.433 28.0993 127.891 28.0469 128.396 28.0469H129.866ZM142.15 25.8662V26.9668H136.449V25.8662H142.15ZM142.15 28.7031V29.8037H136.449V28.7031H142.15ZM149.239 26.9326H150.142C150.584 26.9326 150.948 26.8597 151.235 26.7139C151.527 26.5635 151.743 26.3607 151.885 26.1055C152.031 25.8457 152.104 25.554 152.104 25.2305C152.104 24.8477 152.04 24.5264 151.912 24.2666C151.785 24.0068 151.593 23.8109 151.338 23.6787C151.083 23.5465 150.759 23.4805 150.367 23.4805C150.012 23.4805 149.697 23.5511 149.424 23.6924C149.155 23.8291 148.943 24.0251 148.788 24.2803C148.638 24.5355 148.562 24.8363 148.562 25.1826H147.298C147.298 24.6768 147.425 24.2165 147.681 23.8018C147.936 23.387 148.294 23.0566 148.754 22.8105C149.219 22.5645 149.757 22.4414 150.367 22.4414C150.969 22.4414 151.495 22.5485 151.946 22.7627C152.397 22.9723 152.748 23.2868 152.999 23.7061C153.25 24.1208 153.375 24.638 153.375 25.2578C153.375 25.5085 153.316 25.7773 153.197 26.0645C153.083 26.347 152.903 26.6113 152.657 26.8574C152.416 27.1035 152.101 27.3063 151.714 27.4658C151.326 27.6208 150.862 27.6982 150.319 27.6982H149.239V26.9326ZM149.239 27.9717V27.2129H150.319C150.953 27.2129 151.477 27.2881 151.892 27.4385C152.306 27.5889 152.632 27.7894 152.869 28.04C153.111 28.2907 153.279 28.5664 153.375 28.8672C153.475 29.1634 153.525 29.4596 153.525 29.7559C153.525 30.2207 153.446 30.6331 153.286 30.9932C153.131 31.3532 152.91 31.6585 152.623 31.9092C152.34 32.1598 152.008 32.349 151.625 32.4766C151.242 32.6042 150.825 32.668 150.374 32.668C149.941 32.668 149.533 32.6064 149.15 32.4834C148.772 32.3604 148.437 32.1826 148.146 31.9502C147.854 31.7132 147.626 31.4238 147.462 31.082C147.298 30.7357 147.216 30.3415 147.216 29.8994H148.48C148.48 30.2458 148.556 30.5488 148.706 30.8086C148.861 31.0684 149.08 31.2712 149.362 31.417C149.649 31.5583 149.987 31.6289 150.374 31.6289C150.761 31.6289 151.094 31.5628 151.372 31.4307C151.655 31.2939 151.871 31.0889 152.021 30.8154C152.176 30.542 152.254 30.1979 152.254 29.7832C152.254 29.3685 152.167 29.029 151.994 28.7646C151.821 28.4958 151.575 28.2975 151.256 28.1699C150.941 28.0378 150.57 27.9717 150.142 27.9717H149.239ZM158.796 27.6914L160.17 25.8047L158.105 25.1895L158.427 24.1641L160.491 24.9229L160.43 22.5713H161.469L161.4 24.9639L163.438 24.2051L163.752 25.251L161.653 25.873L163 27.7256L162.152 28.3613L160.888 26.3926L159.65 28.3135L158.796 27.6914ZM164.825 27.6914L166.199 25.8047L164.135 25.1895L164.456 24.1641L166.521 24.9229L166.459 22.5713H167.498L167.43 24.9639L169.467 24.2051L169.781 25.251L167.683 25.873L169.029 27.7256L168.182 28.3613L166.917 26.3926L165.68 28.3135L164.825 27.6914ZM180.794 31.4922V32.5312H174.279V31.6221L177.54 27.9922C177.941 27.5456 178.251 27.1673 178.47 26.8574C178.693 26.543 178.848 26.2627 178.935 26.0166C179.026 25.766 179.071 25.5107 179.071 25.251C179.071 24.9229 179.003 24.6266 178.866 24.3623C178.734 24.0934 178.538 23.8792 178.278 23.7197C178.019 23.5602 177.704 23.4805 177.335 23.4805C176.893 23.4805 176.524 23.5671 176.228 23.7402C175.936 23.9089 175.717 24.1458 175.571 24.4512C175.425 24.7565 175.353 25.1074 175.353 25.5039H174.088C174.088 24.9434 174.211 24.4307 174.457 23.9658C174.703 23.501 175.068 23.1318 175.551 22.8584C176.034 22.5804 176.629 22.4414 177.335 22.4414C177.964 22.4414 178.502 22.5531 178.948 22.7764C179.395 22.9951 179.737 23.305 179.974 23.7061C180.215 24.1025 180.336 24.5674 180.336 25.1006C180.336 25.3923 180.286 25.6885 180.186 25.9893C180.09 26.2855 179.955 26.5817 179.782 26.8779C179.614 27.1742 179.415 27.4658 179.188 27.7529C178.964 28.04 178.725 28.3226 178.47 28.6006L175.804 31.4922H180.794ZM20.8535 103.135V110.531H19.582V103.135H20.8535ZM19.4863 101.173C19.4863 100.968 19.5479 100.795 19.6709 100.653C19.7985 100.512 19.9854 100.441 20.2314 100.441C20.473 100.441 20.6576 100.512 20.7852 100.653C20.9173 100.795 20.9834 100.968 20.9834 101.173C20.9834 101.369 20.9173 101.537 20.7852 101.679C20.6576 101.815 20.473 101.884 20.2314 101.884C19.9854 101.884 19.7985 101.815 19.6709 101.679C19.5479 101.537 19.4863 101.369 19.4863 101.173ZM24.1484 104.297V110.531H22.8838V103.135H24.1143L24.1484 104.297ZM26.459 103.094L26.4521 104.27C26.3473 104.247 26.2471 104.233 26.1514 104.229C26.0602 104.219 25.9554 104.215 25.8369 104.215C25.5452 104.215 25.2878 104.26 25.0645 104.352C24.8411 104.443 24.652 104.57 24.4971 104.734C24.3421 104.898 24.2191 105.094 24.1279 105.322C24.0413 105.546 23.9844 105.792 23.957 106.061L23.6016 106.266C23.6016 105.819 23.6449 105.4 23.7314 105.008C23.8226 104.616 23.9616 104.27 24.1484 103.969C24.3353 103.663 24.5723 103.426 24.8594 103.258C25.151 103.085 25.4974 102.998 25.8984 102.998C25.9896 102.998 26.0944 103.009 26.2129 103.032C26.3314 103.05 26.4134 103.071 26.459 103.094ZM27.6211 100.031H28.8926V109.096L28.7832 110.531H27.6211V100.031ZM33.8896 106.771V106.915C33.8896 107.453 33.8258 107.952 33.6982 108.412C33.5706 108.868 33.3838 109.264 33.1377 109.602C32.8916 109.939 32.5908 110.201 32.2354 110.388C31.8799 110.575 31.472 110.668 31.0117 110.668C30.5423 110.668 30.1299 110.588 29.7744 110.429C29.4235 110.265 29.1273 110.03 28.8857 109.725C28.6442 109.419 28.4505 109.05 28.3047 108.617C28.1634 108.184 28.0654 107.697 28.0107 107.154V106.525C28.0654 105.979 28.1634 105.489 28.3047 105.056C28.4505 104.623 28.6442 104.254 28.8857 103.948C29.1273 103.638 29.4235 103.404 29.7744 103.244C30.1253 103.08 30.5332 102.998 30.998 102.998C31.4629 102.998 31.8753 103.089 32.2354 103.271C32.5954 103.449 32.8962 103.704 33.1377 104.037C33.3838 104.37 33.5706 104.769 33.6982 105.233C33.8258 105.694 33.8896 106.206 33.8896 106.771ZM32.6182 106.915V106.771C32.6182 106.402 32.584 106.056 32.5156 105.732C32.4473 105.404 32.3379 105.117 32.1875 104.871C32.0371 104.62 31.8389 104.424 31.5928 104.283C31.3467 104.137 31.0436 104.064 30.6836 104.064C30.3646 104.064 30.0866 104.119 29.8496 104.229C29.6172 104.338 29.4189 104.486 29.2549 104.673C29.0908 104.855 28.9564 105.065 28.8516 105.302C28.7513 105.534 28.6761 105.776 28.626 106.026V107.674C28.6989 107.993 28.8174 108.3 28.9814 108.597C29.1501 108.888 29.3734 109.128 29.6514 109.314C29.9339 109.501 30.2826 109.595 30.6973 109.595C31.0391 109.595 31.3307 109.526 31.5723 109.39C31.8184 109.248 32.0166 109.055 32.167 108.809C32.3219 108.562 32.4359 108.278 32.5088 107.954C32.5817 107.631 32.6182 107.284 32.6182 106.915ZM35.4414 106.553V106.484C35.4414 105.491 35.5531 104.593 35.7764 103.791C35.9997 102.984 36.2845 102.278 36.6309 101.672C36.9772 101.066 37.3418 100.564 37.7246 100.168C38.1074 99.7669 38.4606 99.4775 38.7842 99.2998L39.0508 100.134C38.7819 100.339 38.5085 100.621 38.2305 100.981C37.957 101.341 37.7041 101.784 37.4717 102.308C37.2438 102.832 37.0592 103.44 36.918 104.133C36.7767 104.826 36.7061 105.605 36.7061 106.471V106.566C36.7061 107.432 36.7767 108.214 36.918 108.911C37.0592 109.604 37.2438 110.215 37.4717 110.743C37.7041 111.272 37.957 111.721 38.2305 112.09C38.5085 112.464 38.7819 112.76 39.0508 112.979L38.7842 113.744C38.4606 113.566 38.1074 113.277 37.7246 112.876C37.3418 112.479 36.9772 111.978 36.6309 111.372C36.2845 110.771 35.9997 110.066 35.7764 109.26C35.5531 108.453 35.4414 107.551 35.4414 106.553ZM41.5459 104.604V110.531H40.2744V103.135H41.4775L41.5459 104.604ZM41.2861 106.553L40.6982 106.532C40.7028 106.026 40.7689 105.559 40.8965 105.131C41.0241 104.698 41.2132 104.322 41.4639 104.003C41.7145 103.684 42.0267 103.438 42.4004 103.265C42.7741 103.087 43.207 102.998 43.6992 102.998C44.0456 102.998 44.3646 103.048 44.6562 103.148C44.9479 103.244 45.2008 103.397 45.415 103.606C45.6292 103.816 45.7956 104.085 45.9141 104.413C46.0326 104.741 46.0918 105.138 46.0918 105.603V110.531H44.8271V105.664C44.8271 105.277 44.7611 104.967 44.6289 104.734C44.5013 104.502 44.319 104.333 44.082 104.229C43.8451 104.119 43.5671 104.064 43.248 104.064C42.8743 104.064 42.5622 104.131 42.3115 104.263C42.0609 104.395 41.8604 104.577 41.71 104.81C41.5596 105.042 41.4502 105.309 41.3818 105.609C41.318 105.906 41.2861 106.22 41.2861 106.553ZM46.0781 105.855L45.2305 106.115C45.235 105.71 45.3011 105.32 45.4287 104.946C45.5609 104.573 45.75 104.24 45.9961 103.948C46.2467 103.657 46.5544 103.426 46.9189 103.258C47.2835 103.085 47.7005 102.998 48.1699 102.998C48.5664 102.998 48.9173 103.05 49.2227 103.155C49.5326 103.26 49.7923 103.422 50.002 103.641C50.2161 103.855 50.3779 104.131 50.4873 104.468C50.5967 104.805 50.6514 105.206 50.6514 105.671V110.531H49.3799V105.657C49.3799 105.243 49.3138 104.921 49.1816 104.693C49.054 104.461 48.8717 104.299 48.6348 104.208C48.4023 104.112 48.1243 104.064 47.8008 104.064C47.5228 104.064 47.2767 104.112 47.0625 104.208C46.8483 104.304 46.6683 104.436 46.5225 104.604C46.3766 104.769 46.265 104.958 46.1875 105.172C46.1146 105.386 46.0781 105.614 46.0781 105.855ZM56.9268 109.267V105.459C56.9268 105.167 56.8675 104.914 56.749 104.7C56.6351 104.481 56.4619 104.313 56.2295 104.194C55.9971 104.076 55.71 104.017 55.3682 104.017C55.0492 104.017 54.7689 104.071 54.5273 104.181C54.2904 104.29 54.1035 104.434 53.9668 104.611C53.8346 104.789 53.7686 104.98 53.7686 105.186H52.5039C52.5039 104.921 52.5723 104.659 52.709 104.399C52.8457 104.14 53.0417 103.905 53.2969 103.695C53.5566 103.481 53.8665 103.312 54.2266 103.189C54.5911 103.062 54.9967 102.998 55.4434 102.998C55.9811 102.998 56.4551 103.089 56.8652 103.271C57.2799 103.454 57.6035 103.729 57.8359 104.099C58.0729 104.463 58.1914 104.921 58.1914 105.473V108.918C58.1914 109.164 58.2119 109.426 58.2529 109.704C58.2985 109.982 58.3646 110.221 58.4512 110.422V110.531H57.1318C57.068 110.385 57.0179 110.192 56.9814 109.95C56.945 109.704 56.9268 109.476 56.9268 109.267ZM57.1455 106.047L57.1592 106.936H55.8809C55.5208 106.936 55.1995 106.965 54.917 107.024C54.6344 107.079 54.3975 107.163 54.2061 107.277C54.0146 107.391 53.8688 107.535 53.7686 107.708C53.6683 107.877 53.6182 108.075 53.6182 108.303C53.6182 108.535 53.6706 108.747 53.7754 108.938C53.8802 109.13 54.0374 109.283 54.2471 109.396C54.4613 109.506 54.7233 109.561 55.0332 109.561C55.4206 109.561 55.7624 109.479 56.0586 109.314C56.3548 109.15 56.5895 108.95 56.7627 108.713C56.9404 108.476 57.0361 108.246 57.0498 108.022L57.5898 108.631C57.5579 108.822 57.4714 109.034 57.3301 109.267C57.1888 109.499 56.9997 109.722 56.7627 109.937C56.5303 110.146 56.2523 110.322 55.9287 110.463C55.6097 110.6 55.2497 110.668 54.8486 110.668C54.3473 110.668 53.9076 110.57 53.5293 110.374C53.1556 110.178 52.8639 109.916 52.6543 109.588C52.4492 109.255 52.3467 108.884 52.3467 108.474C52.3467 108.077 52.4242 107.729 52.5791 107.428C52.734 107.122 52.9574 106.869 53.249 106.669C53.5407 106.464 53.8916 106.309 54.3018 106.204C54.7119 106.099 55.1699 106.047 55.6758 106.047H57.1455ZM61.5547 103.135V110.531H60.2832V103.135H61.5547ZM60.1875 101.173C60.1875 100.968 60.249 100.795 60.3721 100.653C60.4997 100.512 60.6865 100.441 60.9326 100.441C61.1742 100.441 61.3587 100.512 61.4863 100.653C61.6185 100.795 61.6846 100.968 61.6846 101.173C61.6846 101.369 61.6185 101.537 61.4863 101.679C61.3587 101.815 61.1742 101.884 60.9326 101.884C60.6865 101.884 60.4997 101.815 60.3721 101.679C60.249 101.537 60.1875 101.369 60.1875 101.173ZM64.8496 104.714V110.531H63.585V103.135H64.7812L64.8496 104.714ZM64.5488 106.553L64.0225 106.532C64.027 106.026 64.1022 105.559 64.248 105.131C64.3939 104.698 64.599 104.322 64.8633 104.003C65.1276 103.684 65.4421 103.438 65.8066 103.265C66.1758 103.087 66.5837 102.998 67.0303 102.998C67.3949 102.998 67.723 103.048 68.0146 103.148C68.3063 103.244 68.5547 103.399 68.7598 103.613C68.9694 103.827 69.1289 104.105 69.2383 104.447C69.3477 104.785 69.4023 105.197 69.4023 105.685V110.531H68.1309V105.671C68.1309 105.284 68.0739 104.974 67.96 104.741C67.846 104.504 67.6797 104.333 67.4609 104.229C67.2422 104.119 66.9733 104.064 66.6543 104.064C66.3398 104.064 66.0527 104.131 65.793 104.263C65.5378 104.395 65.3167 104.577 65.1299 104.81C64.9476 105.042 64.804 105.309 64.6992 105.609C64.599 105.906 64.5488 106.22 64.5488 106.553ZM74.2354 106.484V106.553C74.2354 107.551 74.1237 108.453 73.9004 109.26C73.6771 110.066 73.3923 110.771 73.0459 111.372C72.6995 111.978 72.335 112.479 71.9521 112.876C71.5693 113.277 71.2161 113.566 70.8926 113.744L70.626 112.979C70.8949 112.773 71.166 112.486 71.4395 112.117C71.7129 111.753 71.9658 111.301 72.1982 110.764C72.4307 110.23 72.6175 109.615 72.7588 108.918C72.9001 108.216 72.9707 107.432 72.9707 106.566V106.471C72.9707 105.605 72.8955 104.823 72.7451 104.126C72.5947 103.424 72.3988 102.807 72.1572 102.273C71.9202 101.74 71.665 101.291 71.3916 100.927C71.1227 100.558 70.8675 100.273 70.626 100.072L70.8926 99.2998C71.2161 99.4775 71.5693 99.7669 71.9521 100.168C72.335 100.564 72.6995 101.066 73.0459 101.672C73.3923 102.278 73.6771 102.984 73.9004 103.791C74.1237 104.593 74.2354 105.491 74.2354 106.484ZM76.1494 109.861C76.1494 109.647 76.2155 109.467 76.3477 109.321C76.4844 109.171 76.6803 109.096 76.9355 109.096C77.1908 109.096 77.3844 109.171 77.5166 109.321C77.6533 109.467 77.7217 109.647 77.7217 109.861C77.7217 110.071 77.6533 110.249 77.5166 110.395C77.3844 110.54 77.1908 110.613 76.9355 110.613C76.6803 110.613 76.4844 110.54 76.3477 110.395C76.2155 110.249 76.1494 110.071 76.1494 109.861ZM76.1562 103.825C76.1562 103.611 76.2223 103.431 76.3545 103.285C76.4912 103.135 76.6872 103.06 76.9424 103.06C77.1976 103.06 77.3913 103.135 77.5234 103.285C77.6602 103.431 77.7285 103.611 77.7285 103.825C77.7285 104.035 77.6602 104.213 77.5234 104.358C77.3913 104.504 77.1976 104.577 76.9424 104.577C76.6872 104.577 76.4912 104.504 76.3545 104.358C76.2223 104.213 76.1562 104.035 76.1562 103.825ZM85.7061 104.762V106.279C85.7061 107.095 85.6331 107.783 85.4873 108.344C85.3415 108.904 85.1318 109.355 84.8584 109.697C84.585 110.039 84.2546 110.287 83.8672 110.442C83.4844 110.593 83.0514 110.668 82.5684 110.668C82.1855 110.668 81.8324 110.62 81.5088 110.524C81.1852 110.429 80.8936 110.276 80.6338 110.066C80.3786 109.852 80.1598 109.574 79.9775 109.232C79.7952 108.891 79.6562 108.476 79.5605 107.988C79.4648 107.501 79.417 106.931 79.417 106.279V104.762C79.417 103.946 79.4899 103.262 79.6357 102.711C79.7861 102.16 79.998 101.717 80.2715 101.385C80.5449 101.048 80.873 100.806 81.2559 100.66C81.6432 100.514 82.0762 100.441 82.5547 100.441C82.9421 100.441 83.2975 100.489 83.6211 100.585C83.9492 100.676 84.2409 100.824 84.4961 101.029C84.7513 101.23 84.9678 101.499 85.1455 101.836C85.3278 102.169 85.4668 102.576 85.5625 103.06C85.6582 103.543 85.7061 104.11 85.7061 104.762ZM84.4346 106.484V104.55C84.4346 104.103 84.4072 103.711 84.3525 103.374C84.3024 103.032 84.2272 102.741 84.127 102.499C84.0267 102.257 83.8991 102.062 83.7441 101.911C83.5938 101.761 83.4183 101.651 83.2178 101.583C83.0218 101.51 82.8008 101.474 82.5547 101.474C82.2539 101.474 81.9873 101.531 81.7549 101.645C81.5225 101.754 81.3265 101.929 81.167 102.171C81.012 102.412 80.8936 102.729 80.8115 103.121C80.7295 103.513 80.6885 103.989 80.6885 104.55V106.484C80.6885 106.931 80.7135 107.325 80.7637 107.667C80.8184 108.009 80.8981 108.305 81.0029 108.556C81.1077 108.802 81.2354 109.005 81.3857 109.164C81.5361 109.324 81.7093 109.442 81.9053 109.52C82.1058 109.592 82.3268 109.629 82.5684 109.629C82.8783 109.629 83.1494 109.57 83.3818 109.451C83.6143 109.333 83.8079 109.148 83.9629 108.897C84.1224 108.642 84.2409 108.316 84.3184 107.92C84.3958 107.519 84.4346 107.04 84.4346 106.484ZM93.5811 104.762V106.279C93.5811 107.095 93.5081 107.783 93.3623 108.344C93.2165 108.904 93.0068 109.355 92.7334 109.697C92.46 110.039 92.1296 110.287 91.7422 110.442C91.3594 110.593 90.9264 110.668 90.4434 110.668C90.0605 110.668 89.7074 110.62 89.3838 110.524C89.0602 110.429 88.7686 110.276 88.5088 110.066C88.2536 109.852 88.0348 109.574 87.8525 109.232C87.6702 108.891 87.5312 108.476 87.4355 107.988C87.3398 107.501 87.292 106.931 87.292 106.279V104.762C87.292 103.946 87.3649 103.262 87.5107 102.711C87.6611 102.16 87.873 101.717 88.1465 101.385C88.4199 101.048 88.748 100.806 89.1309 100.66C89.5182 100.514 89.9512 100.441 90.4297 100.441C90.8171 100.441 91.1725 100.489 91.4961 100.585C91.8242 100.676 92.1159 100.824 92.3711 101.029C92.6263 101.23 92.8428 101.499 93.0205 101.836C93.2028 102.169 93.3418 102.576 93.4375 103.06C93.5332 103.543 93.5811 104.11 93.5811 104.762ZM92.3096 106.484V104.55C92.3096 104.103 92.2822 103.711 92.2275 103.374C92.1774 103.032 92.1022 102.741 92.002 102.499C91.9017 102.257 91.7741 102.062 91.6191 101.911C91.4688 101.761 91.2933 101.651 91.0928 101.583C90.8968 101.51 90.6758 101.474 90.4297 101.474C90.1289 101.474 89.8623 101.531 89.6299 101.645C89.3975 101.754 89.2015 101.929 89.042 102.171C88.887 102.412 88.7686 102.729 88.6865 103.121C88.6045 103.513 88.5635 103.989 88.5635 104.55V106.484C88.5635 106.931 88.5885 107.325 88.6387 107.667C88.6934 108.009 88.7731 108.305 88.8779 108.556C88.9827 108.802 89.1104 109.005 89.2607 109.164C89.4111 109.324 89.5843 109.442 89.7803 109.52C89.9808 109.592 90.2018 109.629 90.4434 109.629C90.7533 109.629 91.0244 109.57 91.2568 109.451C91.4893 109.333 91.6829 109.148 91.8379 108.897C91.9974 108.642 92.1159 108.316 92.1934 107.92C92.2708 107.519 92.3096 107.04 92.3096 106.484ZM101.483 107.838C101.483 108.444 101.342 108.959 101.06 109.383C100.782 109.802 100.403 110.121 99.9248 110.34C99.4508 110.559 98.9154 110.668 98.3184 110.668C97.7214 110.668 97.1836 110.559 96.7051 110.34C96.2266 110.121 95.8483 109.802 95.5703 109.383C95.2923 108.959 95.1533 108.444 95.1533 107.838C95.1533 107.441 95.2285 107.079 95.3789 106.751C95.5339 106.418 95.7503 106.129 96.0283 105.883C96.3109 105.637 96.6436 105.448 97.0264 105.315C97.4137 105.179 97.8398 105.11 98.3047 105.11C98.9154 105.11 99.46 105.229 99.9385 105.466C100.417 105.698 100.793 106.02 101.066 106.43C101.344 106.84 101.483 107.309 101.483 107.838ZM100.212 107.811C100.212 107.441 100.132 107.116 99.9727 106.833C99.8132 106.546 99.5898 106.323 99.3027 106.163C99.0156 106.004 98.6829 105.924 98.3047 105.924C97.9173 105.924 97.5824 106.004 97.2998 106.163C97.0218 106.323 96.8053 106.546 96.6504 106.833C96.4954 107.116 96.418 107.441 96.418 107.811C96.418 108.193 96.4932 108.521 96.6436 108.795C96.7985 109.064 97.0173 109.271 97.2998 109.417C97.5869 109.558 97.9264 109.629 98.3184 109.629C98.7103 109.629 99.0475 109.558 99.3301 109.417C99.6126 109.271 99.8291 109.064 99.9795 108.795C100.134 108.521 100.212 108.193 100.212 107.811ZM101.251 103.169C101.251 103.652 101.123 104.087 100.868 104.475C100.613 104.862 100.264 105.167 99.8223 105.391C99.3802 105.614 98.8789 105.726 98.3184 105.726C97.7487 105.726 97.2406 105.614 96.7939 105.391C96.3519 105.167 96.0055 104.862 95.7549 104.475C95.5042 104.087 95.3789 103.652 95.3789 103.169C95.3789 102.59 95.5042 102.098 95.7549 101.692C96.0101 101.287 96.3587 100.977 96.8008 100.763C97.2428 100.549 97.7464 100.441 98.3115 100.441C98.8812 100.441 99.387 100.549 99.8291 100.763C100.271 100.977 100.618 101.287 100.868 101.692C101.123 102.098 101.251 102.59 101.251 103.169ZM99.9863 103.189C99.9863 102.857 99.9157 102.563 99.7744 102.308C99.6331 102.052 99.4372 101.852 99.1865 101.706C98.9359 101.556 98.6442 101.48 98.3115 101.48C97.9788 101.48 97.6872 101.551 97.4365 101.692C97.1904 101.829 96.9967 102.025 96.8555 102.28C96.7188 102.535 96.6504 102.839 96.6504 103.189C96.6504 103.531 96.7188 103.83 96.8555 104.085C96.9967 104.34 97.1927 104.538 97.4434 104.68C97.694 104.821 97.9857 104.892 98.3184 104.892C98.651 104.892 98.9404 104.821 99.1865 104.68C99.4372 104.538 99.6331 104.34 99.7744 104.085C99.9157 103.83 99.9863 103.531 99.9863 103.189ZM103.165 109.861C103.165 109.647 103.231 109.467 103.363 109.321C103.5 109.171 103.696 109.096 103.951 109.096C104.206 109.096 104.4 109.171 104.532 109.321C104.669 109.467 104.737 109.647 104.737 109.861C104.737 110.071 104.669 110.249 104.532 110.395C104.4 110.54 104.206 110.613 103.951 110.613C103.696 110.613 103.5 110.54 103.363 110.395C103.231 110.249 103.165 110.071 103.165 109.861ZM103.172 103.825C103.172 103.611 103.238 103.431 103.37 103.285C103.507 103.135 103.703 103.06 103.958 103.06C104.213 103.06 104.407 103.135 104.539 103.285C104.676 103.431 104.744 103.611 104.744 103.825C104.744 104.035 104.676 104.213 104.539 104.358C104.407 104.504 104.213 104.577 103.958 104.577C103.703 104.577 103.507 104.504 103.37 104.358C103.238 104.213 103.172 104.035 103.172 103.825ZM112.722 104.762V106.279C112.722 107.095 112.649 107.783 112.503 108.344C112.357 108.904 112.147 109.355 111.874 109.697C111.601 110.039 111.27 110.287 110.883 110.442C110.5 110.593 110.067 110.668 109.584 110.668C109.201 110.668 108.848 110.62 108.524 110.524C108.201 110.429 107.909 110.276 107.649 110.066C107.394 109.852 107.175 109.574 106.993 109.232C106.811 108.891 106.672 108.476 106.576 107.988C106.48 107.501 106.433 106.931 106.433 106.279V104.762C106.433 103.946 106.506 103.262 106.651 102.711C106.802 102.16 107.014 101.717 107.287 101.385C107.561 101.048 107.889 100.806 108.271 100.66C108.659 100.514 109.092 100.441 109.57 100.441C109.958 100.441 110.313 100.489 110.637 100.585C110.965 100.676 111.257 100.824 111.512 101.029C111.767 101.23 111.983 101.499 112.161 101.836C112.343 102.169 112.482 102.576 112.578 103.06C112.674 103.543 112.722 104.11 112.722 104.762ZM111.45 106.484V104.55C111.45 104.103 111.423 103.711 111.368 103.374C111.318 103.032 111.243 102.741 111.143 102.499C111.042 102.257 110.915 102.062 110.76 101.911C110.609 101.761 110.434 101.651 110.233 101.583C110.037 101.51 109.816 101.474 109.57 101.474C109.27 101.474 109.003 101.531 108.771 101.645C108.538 101.754 108.342 101.929 108.183 102.171C108.028 102.412 107.909 102.729 107.827 103.121C107.745 103.513 107.704 103.989 107.704 104.55V106.484C107.704 106.931 107.729 107.325 107.779 107.667C107.834 108.009 107.914 108.305 108.019 108.556C108.123 108.802 108.251 109.005 108.401 109.164C108.552 109.324 108.725 109.442 108.921 109.52C109.121 109.592 109.342 109.629 109.584 109.629C109.894 109.629 110.165 109.57 110.397 109.451C110.63 109.333 110.824 109.148 110.979 108.897C111.138 108.642 111.257 108.316 111.334 107.92C111.411 107.519 111.45 107.04 111.45 106.484ZM119.305 106.211L114.444 104.317V103.012L120.282 105.596V106.396L119.305 106.211ZM114.444 107.879L119.318 105.944L120.282 105.801V106.594L114.444 109.185V107.879ZM125.279 100.031H126.551V109.096L126.441 110.531H125.279V100.031ZM131.548 106.771V106.915C131.548 107.453 131.484 107.952 131.356 108.412C131.229 108.868 131.042 109.264 130.796 109.602C130.55 109.939 130.249 110.201 129.894 110.388C129.538 110.575 129.13 110.668 128.67 110.668C128.201 110.668 127.788 110.588 127.433 110.429C127.082 110.265 126.785 110.03 126.544 109.725C126.302 109.419 126.109 109.05 125.963 108.617C125.822 108.184 125.724 107.697 125.669 107.154V106.525C125.724 105.979 125.822 105.489 125.963 105.056C126.109 104.623 126.302 104.254 126.544 103.948C126.785 103.638 127.082 103.404 127.433 103.244C127.784 103.08 128.191 102.998 128.656 102.998C129.121 102.998 129.534 103.089 129.894 103.271C130.254 103.449 130.554 103.704 130.796 104.037C131.042 104.37 131.229 104.769 131.356 105.233C131.484 105.694 131.548 106.206 131.548 106.771ZM130.276 106.915V106.771C130.276 106.402 130.242 106.056 130.174 105.732C130.105 105.404 129.996 105.117 129.846 104.871C129.695 104.62 129.497 104.424 129.251 104.283C129.005 104.137 128.702 104.064 128.342 104.064C128.023 104.064 127.745 104.119 127.508 104.229C127.275 104.338 127.077 104.486 126.913 104.673C126.749 104.855 126.615 105.065 126.51 105.302C126.41 105.534 126.334 105.776 126.284 106.026V107.674C126.357 107.993 126.476 108.3 126.64 108.597C126.808 108.888 127.032 109.128 127.31 109.314C127.592 109.501 127.941 109.595 128.355 109.595C128.697 109.595 128.989 109.526 129.23 109.39C129.477 109.248 129.675 109.055 129.825 108.809C129.98 108.562 130.094 108.278 130.167 107.954C130.24 107.631 130.276 107.284 130.276 106.915ZM142.396 103.866V104.967H136.695V103.866H142.396ZM142.396 106.703V107.804H136.695V106.703H142.396ZM154.366 107.182V108.221H147.175V107.476L151.632 100.578H152.664L151.557 102.574L148.61 107.182H154.366ZM152.979 100.578V110.531H151.714V100.578H152.979ZM159.042 105.691L160.416 103.805L158.352 103.189L158.673 102.164L160.737 102.923L160.676 100.571H161.715L161.646 102.964L163.684 102.205L163.998 103.251L161.899 103.873L163.246 105.726L162.398 106.361L161.134 104.393L159.896 106.313L159.042 105.691ZM165.071 105.691L166.445 103.805L164.381 103.189L164.702 102.164L166.767 102.923L166.705 100.571H167.744L167.676 102.964L169.713 102.205L170.027 103.251L167.929 103.873L169.275 105.726L168.428 106.361L167.163 104.393L165.926 106.313L165.071 105.691ZM181.04 109.492V110.531H174.525V109.622L177.786 105.992C178.187 105.546 178.497 105.167 178.716 104.857C178.939 104.543 179.094 104.263 179.181 104.017C179.272 103.766 179.317 103.511 179.317 103.251C179.317 102.923 179.249 102.627 179.112 102.362C178.98 102.093 178.784 101.879 178.524 101.72C178.265 101.56 177.95 101.48 177.581 101.48C177.139 101.48 176.77 101.567 176.474 101.74C176.182 101.909 175.963 102.146 175.817 102.451C175.672 102.757 175.599 103.107 175.599 103.504H174.334C174.334 102.943 174.457 102.431 174.703 101.966C174.949 101.501 175.314 101.132 175.797 100.858C176.28 100.58 176.875 100.441 177.581 100.441C178.21 100.441 178.748 100.553 179.194 100.776C179.641 100.995 179.983 101.305 180.22 101.706C180.461 102.103 180.582 102.567 180.582 103.101C180.582 103.392 180.532 103.688 180.432 103.989C180.336 104.285 180.201 104.582 180.028 104.878C179.86 105.174 179.661 105.466 179.434 105.753C179.21 106.04 178.971 106.323 178.716 106.601L176.05 109.492H181.04ZM20.8535 181.135V188.531H19.582V181.135H20.8535ZM19.4863 179.173C19.4863 178.968 19.5479 178.795 19.6709 178.653C19.7985 178.512 19.9854 178.441 20.2314 178.441C20.473 178.441 20.6576 178.512 20.7852 178.653C20.9173 178.795 20.9834 178.968 20.9834 179.173C20.9834 179.369 20.9173 179.537 20.7852 179.679C20.6576 179.815 20.473 179.884 20.2314 179.884C19.9854 179.884 19.7985 179.815 19.6709 179.679C19.5479 179.537 19.4863 179.369 19.4863 179.173ZM24.1484 182.297V188.531H22.8838V181.135H24.1143L24.1484 182.297ZM26.459 181.094L26.4521 182.27C26.3473 182.247 26.2471 182.233 26.1514 182.229C26.0602 182.219 25.9554 182.215 25.8369 182.215C25.5452 182.215 25.2878 182.26 25.0645 182.352C24.8411 182.443 24.652 182.57 24.4971 182.734C24.3421 182.898 24.2191 183.094 24.1279 183.322C24.0413 183.546 23.9844 183.792 23.957 184.061L23.6016 184.266C23.6016 183.819 23.6449 183.4 23.7314 183.008C23.8226 182.616 23.9616 182.27 24.1484 181.969C24.3353 181.663 24.5723 181.426 24.8594 181.258C25.151 181.085 25.4974 180.998 25.8984 180.998C25.9896 180.998 26.0944 181.009 26.2129 181.032C26.3314 181.05 26.4134 181.071 26.459 181.094ZM27.6211 178.031H28.8926V187.096L28.7832 188.531H27.6211V178.031ZM33.8896 184.771V184.915C33.8896 185.453 33.8258 185.952 33.6982 186.412C33.5706 186.868 33.3838 187.264 33.1377 187.602C32.8916 187.939 32.5908 188.201 32.2354 188.388C31.8799 188.575 31.472 188.668 31.0117 188.668C30.5423 188.668 30.1299 188.588 29.7744 188.429C29.4235 188.265 29.1273 188.03 28.8857 187.725C28.6442 187.419 28.4505 187.05 28.3047 186.617C28.1634 186.184 28.0654 185.697 28.0107 185.154V184.525C28.0654 183.979 28.1634 183.489 28.3047 183.056C28.4505 182.623 28.6442 182.254 28.8857 181.948C29.1273 181.638 29.4235 181.404 29.7744 181.244C30.1253 181.08 30.5332 180.998 30.998 180.998C31.4629 180.998 31.8753 181.089 32.2354 181.271C32.5954 181.449 32.8962 181.704 33.1377 182.037C33.3838 182.37 33.5706 182.769 33.6982 183.233C33.8258 183.694 33.8896 184.206 33.8896 184.771ZM32.6182 184.915V184.771C32.6182 184.402 32.584 184.056 32.5156 183.732C32.4473 183.404 32.3379 183.117 32.1875 182.871C32.0371 182.62 31.8389 182.424 31.5928 182.283C31.3467 182.137 31.0436 182.064 30.6836 182.064C30.3646 182.064 30.0866 182.119 29.8496 182.229C29.6172 182.338 29.4189 182.486 29.2549 182.673C29.0908 182.855 28.9564 183.065 28.8516 183.302C28.7513 183.534 28.6761 183.776 28.626 184.026V185.674C28.6989 185.993 28.8174 186.3 28.9814 186.597C29.1501 186.888 29.3734 187.128 29.6514 187.314C29.9339 187.501 30.2826 187.595 30.6973 187.595C31.0391 187.595 31.3307 187.526 31.5723 187.39C31.8184 187.248 32.0166 187.055 32.167 186.809C32.3219 186.562 32.4359 186.278 32.5088 185.954C32.5817 185.631 32.6182 185.284 32.6182 184.915ZM35.4414 184.553V184.484C35.4414 183.491 35.5531 182.593 35.7764 181.791C35.9997 180.984 36.2845 180.278 36.6309 179.672C36.9772 179.066 37.3418 178.564 37.7246 178.168C38.1074 177.767 38.4606 177.478 38.7842 177.3L39.0508 178.134C38.7819 178.339 38.5085 178.621 38.2305 178.981C37.957 179.341 37.7041 179.784 37.4717 180.308C37.2438 180.832 37.0592 181.44 36.918 182.133C36.7767 182.826 36.7061 183.605 36.7061 184.471V184.566C36.7061 185.432 36.7767 186.214 36.918 186.911C37.0592 187.604 37.2438 188.215 37.4717 188.743C37.7041 189.272 37.957 189.721 38.2305 190.09C38.5085 190.464 38.7819 190.76 39.0508 190.979L38.7842 191.744C38.4606 191.566 38.1074 191.277 37.7246 190.876C37.3418 190.479 36.9772 189.978 36.6309 189.372C36.2845 188.771 35.9997 188.066 35.7764 187.26C35.5531 186.453 35.4414 185.551 35.4414 184.553ZM41.5459 182.604V188.531H40.2744V181.135H41.4775L41.5459 182.604ZM41.2861 184.553L40.6982 184.532C40.7028 184.026 40.7689 183.559 40.8965 183.131C41.0241 182.698 41.2132 182.322 41.4639 182.003C41.7145 181.684 42.0267 181.438 42.4004 181.265C42.7741 181.087 43.207 180.998 43.6992 180.998C44.0456 180.998 44.3646 181.048 44.6562 181.148C44.9479 181.244 45.2008 181.397 45.415 181.606C45.6292 181.816 45.7956 182.085 45.9141 182.413C46.0326 182.741 46.0918 183.138 46.0918 183.603V188.531H44.8271V183.664C44.8271 183.277 44.7611 182.967 44.6289 182.734C44.5013 182.502 44.319 182.333 44.082 182.229C43.8451 182.119 43.5671 182.064 43.248 182.064C42.8743 182.064 42.5622 182.131 42.3115 182.263C42.0609 182.395 41.8604 182.577 41.71 182.81C41.5596 183.042 41.4502 183.309 41.3818 183.609C41.318 183.906 41.2861 184.22 41.2861 184.553ZM46.0781 183.855L45.2305 184.115C45.235 183.71 45.3011 183.32 45.4287 182.946C45.5609 182.573 45.75 182.24 45.9961 181.948C46.2467 181.657 46.5544 181.426 46.9189 181.258C47.2835 181.085 47.7005 180.998 48.1699 180.998C48.5664 180.998 48.9173 181.05 49.2227 181.155C49.5326 181.26 49.7923 181.422 50.002 181.641C50.2161 181.855 50.3779 182.131 50.4873 182.468C50.5967 182.805 50.6514 183.206 50.6514 183.671V188.531H49.3799V183.657C49.3799 183.243 49.3138 182.921 49.1816 182.693C49.054 182.461 48.8717 182.299 48.6348 182.208C48.4023 182.112 48.1243 182.064 47.8008 182.064C47.5228 182.064 47.2767 182.112 47.0625 182.208C46.8483 182.304 46.6683 182.436 46.5225 182.604C46.3766 182.769 46.265 182.958 46.1875 183.172C46.1146 183.386 46.0781 183.614 46.0781 183.855ZM56.9268 187.267V183.459C56.9268 183.167 56.8675 182.914 56.749 182.7C56.6351 182.481 56.4619 182.313 56.2295 182.194C55.9971 182.076 55.71 182.017 55.3682 182.017C55.0492 182.017 54.7689 182.071 54.5273 182.181C54.2904 182.29 54.1035 182.434 53.9668 182.611C53.8346 182.789 53.7686 182.98 53.7686 183.186H52.5039C52.5039 182.921 52.5723 182.659 52.709 182.399C52.8457 182.14 53.0417 181.905 53.2969 181.695C53.5566 181.481 53.8665 181.312 54.2266 181.189C54.5911 181.062 54.9967 180.998 55.4434 180.998C55.9811 180.998 56.4551 181.089 56.8652 181.271C57.2799 181.454 57.6035 181.729 57.8359 182.099C58.0729 182.463 58.1914 182.921 58.1914 183.473V186.918C58.1914 187.164 58.2119 187.426 58.2529 187.704C58.2985 187.982 58.3646 188.221 58.4512 188.422V188.531H57.1318C57.068 188.385 57.0179 188.192 56.9814 187.95C56.945 187.704 56.9268 187.476 56.9268 187.267ZM57.1455 184.047L57.1592 184.936H55.8809C55.5208 184.936 55.1995 184.965 54.917 185.024C54.6344 185.079 54.3975 185.163 54.2061 185.277C54.0146 185.391 53.8688 185.535 53.7686 185.708C53.6683 185.877 53.6182 186.075 53.6182 186.303C53.6182 186.535 53.6706 186.747 53.7754 186.938C53.8802 187.13 54.0374 187.283 54.2471 187.396C54.4613 187.506 54.7233 187.561 55.0332 187.561C55.4206 187.561 55.7624 187.479 56.0586 187.314C56.3548 187.15 56.5895 186.95 56.7627 186.713C56.9404 186.476 57.0361 186.246 57.0498 186.022L57.5898 186.631C57.5579 186.822 57.4714 187.034 57.3301 187.267C57.1888 187.499 56.9997 187.722 56.7627 187.937C56.5303 188.146 56.2523 188.322 55.9287 188.463C55.6097 188.6 55.2497 188.668 54.8486 188.668C54.3473 188.668 53.9076 188.57 53.5293 188.374C53.1556 188.178 52.8639 187.916 52.6543 187.588C52.4492 187.255 52.3467 186.884 52.3467 186.474C52.3467 186.077 52.4242 185.729 52.5791 185.428C52.734 185.122 52.9574 184.869 53.249 184.669C53.5407 184.464 53.8916 184.309 54.3018 184.204C54.7119 184.099 55.1699 184.047 55.6758 184.047H57.1455ZM61.5547 181.135V188.531H60.2832V181.135H61.5547ZM60.1875 179.173C60.1875 178.968 60.249 178.795 60.3721 178.653C60.4997 178.512 60.6865 178.441 60.9326 178.441C61.1742 178.441 61.3587 178.512 61.4863 178.653C61.6185 178.795 61.6846 178.968 61.6846 179.173C61.6846 179.369 61.6185 179.537 61.4863 179.679C61.3587 179.815 61.1742 179.884 60.9326 179.884C60.6865 179.884 60.4997 179.815 60.3721 179.679C60.249 179.537 60.1875 179.369 60.1875 179.173ZM64.8496 182.714V188.531H63.585V181.135H64.7812L64.8496 182.714ZM64.5488 184.553L64.0225 184.532C64.027 184.026 64.1022 183.559 64.248 183.131C64.3939 182.698 64.599 182.322 64.8633 182.003C65.1276 181.684 65.4421 181.438 65.8066 181.265C66.1758 181.087 66.5837 180.998 67.0303 180.998C67.3949 180.998 67.723 181.048 68.0146 181.148C68.3063 181.244 68.5547 181.399 68.7598 181.613C68.9694 181.827 69.1289 182.105 69.2383 182.447C69.3477 182.785 69.4023 183.197 69.4023 183.685V188.531H68.1309V183.671C68.1309 183.284 68.0739 182.974 67.96 182.741C67.846 182.504 67.6797 182.333 67.4609 182.229C67.2422 182.119 66.9733 182.064 66.6543 182.064C66.3398 182.064 66.0527 182.131 65.793 182.263C65.5378 182.395 65.3167 182.577 65.1299 182.81C64.9476 183.042 64.804 183.309 64.6992 183.609C64.599 183.906 64.5488 184.22 64.5488 184.553ZM74.2354 184.484V184.553C74.2354 185.551 74.1237 186.453 73.9004 187.26C73.6771 188.066 73.3923 188.771 73.0459 189.372C72.6995 189.978 72.335 190.479 71.9521 190.876C71.5693 191.277 71.2161 191.566 70.8926 191.744L70.626 190.979C70.8949 190.773 71.166 190.486 71.4395 190.117C71.7129 189.753 71.9658 189.301 72.1982 188.764C72.4307 188.23 72.6175 187.615 72.7588 186.918C72.9001 186.216 72.9707 185.432 72.9707 184.566V184.471C72.9707 183.605 72.8955 182.823 72.7451 182.126C72.5947 181.424 72.3988 180.807 72.1572 180.273C71.9202 179.74 71.665 179.291 71.3916 178.927C71.1227 178.558 70.8675 178.273 70.626 178.072L70.8926 177.3C71.2161 177.478 71.5693 177.767 71.9521 178.168C72.335 178.564 72.6995 179.066 73.0459 179.672C73.3923 180.278 73.6771 180.984 73.9004 181.791C74.1237 182.593 74.2354 183.491 74.2354 184.484ZM76.1494 187.861C76.1494 187.647 76.2155 187.467 76.3477 187.321C76.4844 187.171 76.6803 187.096 76.9355 187.096C77.1908 187.096 77.3844 187.171 77.5166 187.321C77.6533 187.467 77.7217 187.647 77.7217 187.861C77.7217 188.071 77.6533 188.249 77.5166 188.395C77.3844 188.54 77.1908 188.613 76.9355 188.613C76.6803 188.613 76.4844 188.54 76.3477 188.395C76.2155 188.249 76.1494 188.071 76.1494 187.861ZM76.1562 181.825C76.1562 181.611 76.2223 181.431 76.3545 181.285C76.4912 181.135 76.6872 181.06 76.9424 181.06C77.1976 181.06 77.3913 181.135 77.5234 181.285C77.6602 181.431 77.7285 181.611 77.7285 181.825C77.7285 182.035 77.6602 182.213 77.5234 182.358C77.3913 182.504 77.1976 182.577 76.9424 182.577C76.6872 182.577 76.4912 182.504 76.3545 182.358C76.2223 182.213 76.1562 182.035 76.1562 181.825ZM85.7061 182.762V184.279C85.7061 185.095 85.6331 185.783 85.4873 186.344C85.3415 186.904 85.1318 187.355 84.8584 187.697C84.585 188.039 84.2546 188.287 83.8672 188.442C83.4844 188.593 83.0514 188.668 82.5684 188.668C82.1855 188.668 81.8324 188.62 81.5088 188.524C81.1852 188.429 80.8936 188.276 80.6338 188.066C80.3786 187.852 80.1598 187.574 79.9775 187.232C79.7952 186.891 79.6562 186.476 79.5605 185.988C79.4648 185.501 79.417 184.931 79.417 184.279V182.762C79.417 181.946 79.4899 181.262 79.6357 180.711C79.7861 180.16 79.998 179.717 80.2715 179.385C80.5449 179.048 80.873 178.806 81.2559 178.66C81.6432 178.514 82.0762 178.441 82.5547 178.441C82.9421 178.441 83.2975 178.489 83.6211 178.585C83.9492 178.676 84.2409 178.824 84.4961 179.029C84.7513 179.23 84.9678 179.499 85.1455 179.836C85.3278 180.169 85.4668 180.576 85.5625 181.06C85.6582 181.543 85.7061 182.11 85.7061 182.762ZM84.4346 184.484V182.55C84.4346 182.103 84.4072 181.711 84.3525 181.374C84.3024 181.032 84.2272 180.741 84.127 180.499C84.0267 180.257 83.8991 180.062 83.7441 179.911C83.5938 179.761 83.4183 179.651 83.2178 179.583C83.0218 179.51 82.8008 179.474 82.5547 179.474C82.2539 179.474 81.9873 179.531 81.7549 179.645C81.5225 179.754 81.3265 179.929 81.167 180.171C81.012 180.412 80.8936 180.729 80.8115 181.121C80.7295 181.513 80.6885 181.989 80.6885 182.55V184.484C80.6885 184.931 80.7135 185.325 80.7637 185.667C80.8184 186.009 80.8981 186.305 81.0029 186.556C81.1077 186.802 81.2354 187.005 81.3857 187.164C81.5361 187.324 81.7093 187.442 81.9053 187.52C82.1058 187.592 82.3268 187.629 82.5684 187.629C82.8783 187.629 83.1494 187.57 83.3818 187.451C83.6143 187.333 83.8079 187.148 83.9629 186.897C84.1224 186.642 84.2409 186.316 84.3184 185.92C84.3958 185.519 84.4346 185.04 84.4346 184.484ZM93.5811 182.762V184.279C93.5811 185.095 93.5081 185.783 93.3623 186.344C93.2165 186.904 93.0068 187.355 92.7334 187.697C92.46 188.039 92.1296 188.287 91.7422 188.442C91.3594 188.593 90.9264 188.668 90.4434 188.668C90.0605 188.668 89.7074 188.62 89.3838 188.524C89.0602 188.429 88.7686 188.276 88.5088 188.066C88.2536 187.852 88.0348 187.574 87.8525 187.232C87.6702 186.891 87.5312 186.476 87.4355 185.988C87.3398 185.501 87.292 184.931 87.292 184.279V182.762C87.292 181.946 87.3649 181.262 87.5107 180.711C87.6611 180.16 87.873 179.717 88.1465 179.385C88.4199 179.048 88.748 178.806 89.1309 178.66C89.5182 178.514 89.9512 178.441 90.4297 178.441C90.8171 178.441 91.1725 178.489 91.4961 178.585C91.8242 178.676 92.1159 178.824 92.3711 179.029C92.6263 179.23 92.8428 179.499 93.0205 179.836C93.2028 180.169 93.3418 180.576 93.4375 181.06C93.5332 181.543 93.5811 182.11 93.5811 182.762ZM92.3096 184.484V182.55C92.3096 182.103 92.2822 181.711 92.2275 181.374C92.1774 181.032 92.1022 180.741 92.002 180.499C91.9017 180.257 91.7741 180.062 91.6191 179.911C91.4688 179.761 91.2933 179.651 91.0928 179.583C90.8968 179.51 90.6758 179.474 90.4297 179.474C90.1289 179.474 89.8623 179.531 89.6299 179.645C89.3975 179.754 89.2015 179.929 89.042 180.171C88.887 180.412 88.7686 180.729 88.6865 181.121C88.6045 181.513 88.5635 181.989 88.5635 182.55V184.484C88.5635 184.931 88.5885 185.325 88.6387 185.667C88.6934 186.009 88.7731 186.305 88.8779 186.556C88.9827 186.802 89.1104 187.005 89.2607 187.164C89.4111 187.324 89.5843 187.442 89.7803 187.52C89.9808 187.592 90.2018 187.629 90.4434 187.629C90.7533 187.629 91.0244 187.57 91.2568 187.451C91.4893 187.333 91.6829 187.148 91.8379 186.897C91.9974 186.642 92.1159 186.316 92.1934 185.92C92.2708 185.519 92.3096 185.04 92.3096 184.484ZM96.4658 187.472H96.5957C97.3249 187.472 97.9173 187.369 98.373 187.164C98.8288 186.959 99.1797 186.683 99.4258 186.337C99.6719 185.991 99.8405 185.601 99.9316 185.168C100.023 184.73 100.068 184.282 100.068 183.821V182.297C100.068 181.846 100.016 181.445 99.9111 181.094C99.8109 180.743 99.6696 180.449 99.4873 180.212C99.3096 179.975 99.1068 179.795 98.8789 179.672C98.651 179.549 98.4095 179.487 98.1543 179.487C97.8626 179.487 97.6006 179.547 97.3682 179.665C97.1403 179.779 96.9466 179.941 96.7871 180.15C96.6322 180.36 96.5137 180.606 96.4316 180.889C96.3496 181.171 96.3086 181.479 96.3086 181.812C96.3086 182.108 96.3451 182.395 96.418 182.673C96.4909 182.951 96.6025 183.201 96.7529 183.425C96.9033 183.648 97.0902 183.826 97.3135 183.958C97.5413 184.086 97.8079 184.149 98.1133 184.149C98.3958 184.149 98.6602 184.095 98.9062 183.985C99.1569 183.871 99.3779 183.719 99.5693 183.527C99.7653 183.331 99.9202 183.11 100.034 182.864C100.153 182.618 100.221 182.361 100.239 182.092H100.841C100.841 182.47 100.766 182.844 100.615 183.213C100.469 183.577 100.264 183.91 100 184.211C99.7357 184.512 99.4258 184.753 99.0703 184.936C98.7148 185.113 98.3275 185.202 97.9082 185.202C97.416 185.202 96.9899 185.106 96.6299 184.915C96.2699 184.724 95.9736 184.468 95.7412 184.149C95.5133 183.83 95.3424 183.475 95.2285 183.083C95.1191 182.687 95.0645 182.285 95.0645 181.88C95.0645 181.406 95.1305 180.962 95.2627 180.547C95.3949 180.132 95.5908 179.768 95.8506 179.453C96.1104 179.134 96.4316 178.886 96.8145 178.708C97.2018 178.53 97.6484 178.441 98.1543 178.441C98.724 178.441 99.2093 178.555 99.6104 178.783C100.011 179.011 100.337 179.316 100.588 179.699C100.843 180.082 101.03 180.513 101.148 180.991C101.267 181.47 101.326 181.962 101.326 182.468V182.926C101.326 183.441 101.292 183.965 101.224 184.498C101.16 185.027 101.035 185.533 100.848 186.016C100.665 186.499 100.399 186.932 100.048 187.314C99.6969 187.693 99.2389 187.993 98.6738 188.217C98.1133 188.436 97.4206 188.545 96.5957 188.545H96.4658V187.472ZM103.165 187.861C103.165 187.647 103.231 187.467 103.363 187.321C103.5 187.171 103.696 187.096 103.951 187.096C104.206 187.096 104.4 187.171 104.532 187.321C104.669 187.467 104.737 187.647 104.737 187.861C104.737 188.071 104.669 188.249 104.532 188.395C104.4 188.54 104.206 188.613 103.951 188.613C103.696 188.613 103.5 188.54 103.363 188.395C103.231 188.249 103.165 188.071 103.165 187.861ZM103.172 181.825C103.172 181.611 103.238 181.431 103.37 181.285C103.507 181.135 103.703 181.06 103.958 181.06C104.213 181.06 104.407 181.135 104.539 181.285C104.676 181.431 104.744 181.611 104.744 181.825C104.744 182.035 104.676 182.213 104.539 182.358C104.407 182.504 104.213 182.577 103.958 182.577C103.703 182.577 103.507 182.504 103.37 182.358C103.238 182.213 103.172 182.035 103.172 181.825ZM112.722 182.762V184.279C112.722 185.095 112.649 185.783 112.503 186.344C112.357 186.904 112.147 187.355 111.874 187.697C111.601 188.039 111.27 188.287 110.883 188.442C110.5 188.593 110.067 188.668 109.584 188.668C109.201 188.668 108.848 188.62 108.524 188.524C108.201 188.429 107.909 188.276 107.649 188.066C107.394 187.852 107.175 187.574 106.993 187.232C106.811 186.891 106.672 186.476 106.576 185.988C106.48 185.501 106.433 184.931 106.433 184.279V182.762C106.433 181.946 106.506 181.262 106.651 180.711C106.802 180.16 107.014 179.717 107.287 179.385C107.561 179.048 107.889 178.806 108.271 178.66C108.659 178.514 109.092 178.441 109.57 178.441C109.958 178.441 110.313 178.489 110.637 178.585C110.965 178.676 111.257 178.824 111.512 179.029C111.767 179.23 111.983 179.499 112.161 179.836C112.343 180.169 112.482 180.576 112.578 181.06C112.674 181.543 112.722 182.11 112.722 182.762ZM111.45 184.484V182.55C111.45 182.103 111.423 181.711 111.368 181.374C111.318 181.032 111.243 180.741 111.143 180.499C111.042 180.257 110.915 180.062 110.76 179.911C110.609 179.761 110.434 179.651 110.233 179.583C110.037 179.51 109.816 179.474 109.57 179.474C109.27 179.474 109.003 179.531 108.771 179.645C108.538 179.754 108.342 179.929 108.183 180.171C108.028 180.412 107.909 180.729 107.827 181.121C107.745 181.513 107.704 181.989 107.704 182.55V184.484C107.704 184.931 107.729 185.325 107.779 185.667C107.834 186.009 107.914 186.305 108.019 186.556C108.123 186.802 108.251 187.005 108.401 187.164C108.552 187.324 108.725 187.442 108.921 187.52C109.121 187.592 109.342 187.629 109.584 187.629C109.894 187.629 110.165 187.57 110.397 187.451C110.63 187.333 110.824 187.148 110.979 186.897C111.138 186.642 111.257 186.316 111.334 185.92C111.411 185.519 111.45 185.04 111.45 184.484ZM119.305 184.211L114.444 182.317V181.012L120.282 183.596V184.396L119.305 184.211ZM114.444 185.879L119.318 183.944L120.282 183.801V184.594L114.444 187.185V185.879ZM125.895 178.578H127.173L130.434 186.692L133.688 178.578H134.973L130.926 188.531H129.928L125.895 178.578ZM125.478 178.578H126.605L126.79 184.648V188.531H125.478V178.578ZM134.255 178.578H135.383V188.531H134.07V184.648L134.255 178.578ZM141.87 187.267V183.459C141.87 183.167 141.811 182.914 141.692 182.7C141.578 182.481 141.405 182.313 141.173 182.194C140.94 182.076 140.653 182.017 140.312 182.017C139.993 182.017 139.712 182.071 139.471 182.181C139.234 182.29 139.047 182.434 138.91 182.611C138.778 182.789 138.712 182.98 138.712 183.186H137.447C137.447 182.921 137.516 182.659 137.652 182.399C137.789 182.14 137.985 181.905 138.24 181.695C138.5 181.481 138.81 181.312 139.17 181.189C139.535 181.062 139.94 180.998 140.387 180.998C140.924 180.998 141.398 181.089 141.809 181.271C142.223 181.454 142.547 181.729 142.779 182.099C143.016 182.463 143.135 182.921 143.135 183.473V186.918C143.135 187.164 143.155 187.426 143.196 187.704C143.242 187.982 143.308 188.221 143.395 188.422V188.531H142.075C142.011 188.385 141.961 188.192 141.925 187.95C141.888 187.704 141.87 187.476 141.87 187.267ZM142.089 184.047L142.103 184.936H140.824C140.464 184.936 140.143 184.965 139.86 185.024C139.578 185.079 139.341 185.163 139.149 185.277C138.958 185.391 138.812 185.535 138.712 185.708C138.612 185.877 138.562 186.075 138.562 186.303C138.562 186.535 138.614 186.747 138.719 186.938C138.824 187.13 138.981 187.283 139.19 187.396C139.405 187.506 139.667 187.561 139.977 187.561C140.364 187.561 140.706 187.479 141.002 187.314C141.298 187.15 141.533 186.95 141.706 186.713C141.884 186.476 141.979 186.246 141.993 186.022L142.533 186.631C142.501 186.822 142.415 187.034 142.273 187.267C142.132 187.499 141.943 187.722 141.706 187.937C141.474 188.146 141.196 188.322 140.872 188.463C140.553 188.6 140.193 188.668 139.792 188.668C139.291 188.668 138.851 188.57 138.473 188.374C138.099 188.178 137.807 187.916 137.598 187.588C137.393 187.255 137.29 186.884 137.29 186.474C137.29 186.077 137.368 185.729 137.522 185.428C137.677 185.122 137.901 184.869 138.192 184.669C138.484 184.464 138.835 184.309 139.245 184.204C139.655 184.099 140.113 184.047 140.619 184.047H142.089ZM148.221 181.135V182.105H144.222V181.135H148.221ZM145.575 179.337H146.84V186.699C146.84 186.95 146.879 187.139 146.956 187.267C147.034 187.394 147.134 187.479 147.257 187.52C147.38 187.561 147.512 187.581 147.653 187.581C147.758 187.581 147.868 187.572 147.981 187.554C148.1 187.531 148.189 187.513 148.248 187.499L148.255 188.531C148.155 188.563 148.022 188.593 147.858 188.62C147.699 188.652 147.505 188.668 147.277 188.668C146.967 188.668 146.683 188.606 146.423 188.483C146.163 188.36 145.956 188.155 145.801 187.868C145.65 187.576 145.575 187.185 145.575 186.692V179.337ZM150.969 178.031V188.531H149.704V178.031H150.969ZM150.668 184.553L150.142 184.532C150.146 184.026 150.221 183.559 150.367 183.131C150.513 182.698 150.718 182.322 150.982 182.003C151.247 181.684 151.561 181.438 151.926 181.265C152.295 181.087 152.703 180.998 153.149 180.998C153.514 180.998 153.842 181.048 154.134 181.148C154.425 181.244 154.674 181.399 154.879 181.613C155.089 181.827 155.248 182.105 155.357 182.447C155.467 182.785 155.521 183.197 155.521 183.685V188.531H154.25V183.671C154.25 183.284 154.193 182.974 154.079 182.741C153.965 182.504 153.799 182.333 153.58 182.229C153.361 182.119 153.092 182.064 152.773 182.064C152.459 182.064 152.172 182.131 151.912 182.263C151.657 182.395 151.436 182.577 151.249 182.81C151.067 183.042 150.923 183.309 150.818 183.609C150.718 183.906 150.668 184.22 150.668 184.553ZM157.436 187.861C157.436 187.647 157.502 187.467 157.634 187.321C157.771 187.171 157.966 187.096 158.222 187.096C158.477 187.096 158.671 187.171 158.803 187.321C158.939 187.467 159.008 187.647 159.008 187.861C159.008 188.071 158.939 188.249 158.803 188.395C158.671 188.54 158.477 188.613 158.222 188.613C157.966 188.613 157.771 188.54 157.634 188.395C157.502 188.249 157.436 188.071 157.436 187.861ZM165.413 186.569C165.413 186.387 165.372 186.218 165.29 186.063C165.213 185.904 165.051 185.76 164.805 185.633C164.563 185.501 164.199 185.387 163.711 185.291C163.301 185.204 162.929 185.102 162.597 184.983C162.269 184.865 161.988 184.721 161.756 184.553C161.528 184.384 161.353 184.186 161.229 183.958C161.106 183.73 161.045 183.464 161.045 183.158C161.045 182.867 161.109 182.591 161.236 182.331C161.368 182.071 161.553 181.841 161.79 181.641C162.032 181.44 162.321 181.283 162.658 181.169C162.995 181.055 163.371 180.998 163.786 180.998C164.379 180.998 164.884 181.103 165.304 181.312C165.723 181.522 166.044 181.802 166.268 182.153C166.491 182.5 166.603 182.885 166.603 183.309H165.338C165.338 183.104 165.276 182.905 165.153 182.714C165.035 182.518 164.859 182.356 164.627 182.229C164.399 182.101 164.119 182.037 163.786 182.037C163.435 182.037 163.15 182.092 162.932 182.201C162.717 182.306 162.56 182.44 162.46 182.604C162.364 182.769 162.316 182.942 162.316 183.124C162.316 183.261 162.339 183.384 162.385 183.493C162.435 183.598 162.521 183.696 162.645 183.787C162.768 183.874 162.941 183.956 163.164 184.033C163.387 184.111 163.672 184.188 164.019 184.266C164.625 184.402 165.124 184.566 165.516 184.758C165.908 184.949 166.199 185.184 166.391 185.462C166.582 185.74 166.678 186.077 166.678 186.474C166.678 186.797 166.609 187.093 166.473 187.362C166.34 187.631 166.147 187.864 165.892 188.06C165.641 188.251 165.34 188.401 164.989 188.511C164.643 188.616 164.253 188.668 163.82 188.668C163.169 188.668 162.617 188.552 162.166 188.319C161.715 188.087 161.373 187.786 161.141 187.417C160.908 187.048 160.792 186.658 160.792 186.248H162.063C162.082 186.594 162.182 186.87 162.364 187.075C162.547 187.276 162.77 187.419 163.034 187.506C163.299 187.588 163.561 187.629 163.82 187.629C164.167 187.629 164.456 187.583 164.688 187.492C164.925 187.401 165.105 187.276 165.229 187.116C165.352 186.957 165.413 186.774 165.413 186.569ZM172.994 191.375V182.557L173.104 181.135H174.266V191.375H172.994ZM168.024 184.915V184.771C168.024 184.206 168.09 183.694 168.223 183.233C168.355 182.769 168.549 182.37 168.804 182.037C169.059 181.704 169.367 181.449 169.727 181.271C170.091 181.089 170.506 180.998 170.971 180.998C171.436 180.998 171.843 181.08 172.194 181.244C172.55 181.404 172.851 181.638 173.097 181.948C173.347 182.254 173.546 182.623 173.691 183.056C173.837 183.489 173.938 183.979 173.992 184.525V185.154C173.942 185.697 173.844 186.184 173.698 186.617C173.552 187.05 173.354 187.419 173.104 187.725C172.857 188.03 172.554 188.265 172.194 188.429C171.839 188.588 171.426 188.668 170.957 188.668C170.501 188.668 170.091 188.575 169.727 188.388C169.367 188.201 169.059 187.939 168.804 187.602C168.553 187.264 168.359 186.868 168.223 186.412C168.09 185.952 168.024 185.453 168.024 184.915ZM169.296 184.771V184.915C169.296 185.284 169.335 185.633 169.412 185.961C169.49 186.285 169.608 186.572 169.768 186.822C169.932 187.073 170.137 187.271 170.383 187.417C170.633 187.558 170.93 187.629 171.271 187.629C171.691 187.629 172.039 187.538 172.317 187.355C172.6 187.173 172.826 186.934 172.994 186.638C173.163 186.337 173.293 186.016 173.384 185.674V184.026C173.334 183.776 173.254 183.532 173.145 183.295C173.04 183.058 172.903 182.846 172.734 182.659C172.566 182.468 172.361 182.317 172.119 182.208C171.882 182.094 171.604 182.037 171.285 182.037C170.939 182.037 170.64 182.11 170.39 182.256C170.139 182.402 169.932 182.602 169.768 182.857C169.608 183.108 169.49 183.397 169.412 183.726C169.335 184.054 169.296 184.402 169.296 184.771ZM177.561 182.297V188.531H176.296V181.135H177.526L177.561 182.297ZM179.871 181.094L179.864 182.27C179.759 182.247 179.659 182.233 179.563 182.229C179.472 182.219 179.368 182.215 179.249 182.215C178.957 182.215 178.7 182.26 178.477 182.352C178.253 182.443 178.064 182.57 177.909 182.734C177.754 182.898 177.631 183.094 177.54 183.322C177.453 183.546 177.396 183.792 177.369 184.061L177.014 184.266C177.014 183.819 177.057 183.4 177.144 183.008C177.235 182.616 177.374 182.27 177.561 181.969C177.747 181.663 177.984 181.426 178.271 181.258C178.563 181.085 178.91 180.998 179.311 180.998C179.402 180.998 179.507 181.009 179.625 181.032C179.743 181.05 179.826 181.071 179.871 181.094ZM184.479 181.135V182.105H180.479V181.135H184.479ZM181.833 179.337H183.098V186.699C183.098 186.95 183.136 187.139 183.214 187.267C183.291 187.394 183.392 187.479 183.515 187.52C183.638 187.561 183.77 187.581 183.911 187.581C184.016 187.581 184.125 187.572 184.239 187.554C184.358 187.531 184.447 187.513 184.506 187.499L184.513 188.531C184.412 188.563 184.28 188.593 184.116 188.62C183.957 188.652 183.763 188.668 183.535 188.668C183.225 188.668 182.94 188.606 182.681 188.483C182.421 188.36 182.214 188.155 182.059 187.868C181.908 187.576 181.833 187.185 181.833 186.692V179.337ZM185.914 184.553V184.484C185.914 183.491 186.026 182.593 186.249 181.791C186.472 180.984 186.757 180.278 187.104 179.672C187.45 179.066 187.814 178.564 188.197 178.168C188.58 177.767 188.933 177.478 189.257 177.3L189.523 178.134C189.255 178.339 188.981 178.621 188.703 178.981C188.43 179.341 188.177 179.784 187.944 180.308C187.716 180.832 187.532 181.44 187.391 182.133C187.249 182.826 187.179 183.605 187.179 184.471V184.566C187.179 185.432 187.249 186.214 187.391 186.911C187.532 187.604 187.716 188.215 187.944 188.743C188.177 189.272 188.43 189.721 188.703 190.09C188.981 190.464 189.255 190.76 189.523 190.979L189.257 191.744C188.933 191.566 188.58 191.277 188.197 190.876C187.814 190.479 187.45 189.978 187.104 189.372C186.757 188.771 186.472 188.066 186.249 187.26C186.026 186.453 185.914 185.551 185.914 184.553ZM195.122 187.267V183.459C195.122 183.167 195.063 182.914 194.944 182.7C194.83 182.481 194.657 182.313 194.425 182.194C194.192 182.076 193.905 182.017 193.563 182.017C193.244 182.017 192.964 182.071 192.723 182.181C192.486 182.29 192.299 182.434 192.162 182.611C192.03 182.789 191.964 182.98 191.964 183.186H190.699C190.699 182.921 190.768 182.659 190.904 182.399C191.041 182.14 191.237 181.905 191.492 181.695C191.752 181.481 192.062 181.312 192.422 181.189C192.786 181.062 193.192 180.998 193.639 180.998C194.176 180.998 194.65 181.089 195.061 181.271C195.475 181.454 195.799 181.729 196.031 182.099C196.268 182.463 196.387 182.921 196.387 183.473V186.918C196.387 187.164 196.407 187.426 196.448 187.704C196.494 187.982 196.56 188.221 196.646 188.422V188.531H195.327C195.263 188.385 195.213 188.192 195.177 187.95C195.14 187.704 195.122 187.476 195.122 187.267ZM195.341 184.047L195.354 184.936H194.076C193.716 184.936 193.395 184.965 193.112 185.024C192.83 185.079 192.593 185.163 192.401 185.277C192.21 185.391 192.064 185.535 191.964 185.708C191.864 185.877 191.813 186.075 191.813 186.303C191.813 186.535 191.866 186.747 191.971 186.938C192.076 187.13 192.233 187.283 192.442 187.396C192.657 187.506 192.919 187.561 193.229 187.561C193.616 187.561 193.958 187.479 194.254 187.314C194.55 187.15 194.785 186.95 194.958 186.713C195.136 186.476 195.231 186.246 195.245 186.022L195.785 186.631C195.753 186.822 195.667 187.034 195.525 187.267C195.384 187.499 195.195 187.722 194.958 187.937C194.726 188.146 194.448 188.322 194.124 188.463C193.805 188.6 193.445 188.668 193.044 188.668C192.543 188.668 192.103 188.57 191.725 188.374C191.351 188.178 191.059 187.916 190.85 187.588C190.645 187.255 190.542 186.884 190.542 186.474C190.542 186.077 190.619 185.729 190.774 185.428C190.929 185.122 191.153 184.869 191.444 184.669C191.736 184.464 192.087 184.309 192.497 184.204C192.907 184.099 193.365 184.047 193.871 184.047H195.341ZM204.768 183.192V184.382H197.945V183.192H204.768ZM201.992 180.287V187.533H200.728V180.287H201.992ZM206.312 178.031H207.584V187.096L207.475 188.531H206.312V178.031ZM212.581 184.771V184.915C212.581 185.453 212.517 185.952 212.39 186.412C212.262 186.868 212.075 187.264 211.829 187.602C211.583 187.939 211.282 188.201 210.927 188.388C210.571 188.575 210.163 188.668 209.703 188.668C209.234 188.668 208.821 188.588 208.466 188.429C208.115 188.265 207.819 188.03 207.577 187.725C207.336 187.419 207.142 187.05 206.996 186.617C206.855 186.184 206.757 185.697 206.702 185.154V184.525C206.757 183.979 206.855 183.489 206.996 183.056C207.142 182.623 207.336 182.254 207.577 181.948C207.819 181.638 208.115 181.404 208.466 181.244C208.817 181.08 209.225 180.998 209.689 180.998C210.154 180.998 210.567 181.089 210.927 181.271C211.287 181.449 211.588 181.704 211.829 182.037C212.075 182.37 212.262 182.769 212.39 183.233C212.517 183.694 212.581 184.206 212.581 184.771ZM211.31 184.915V184.771C211.31 184.402 211.275 184.056 211.207 183.732C211.139 183.404 211.029 183.117 210.879 182.871C210.729 182.62 210.53 182.424 210.284 182.283C210.038 182.137 209.735 182.064 209.375 182.064C209.056 182.064 208.778 182.119 208.541 182.229C208.309 182.338 208.11 182.486 207.946 182.673C207.782 182.855 207.648 183.065 207.543 183.302C207.443 183.534 207.368 183.776 207.317 184.026V185.674C207.39 185.993 207.509 186.3 207.673 186.597C207.841 186.888 208.065 187.128 208.343 187.314C208.625 187.501 208.974 187.595 209.389 187.595C209.73 187.595 210.022 187.526 210.264 187.39C210.51 187.248 210.708 187.055 210.858 186.809C211.013 186.562 211.127 186.278 211.2 185.954C211.273 185.631 211.31 185.284 211.31 184.915ZM217.093 184.484V184.553C217.093 185.551 216.981 186.453 216.758 187.26C216.535 188.066 216.25 188.771 215.903 189.372C215.557 189.978 215.192 190.479 214.81 190.876C214.427 191.277 214.074 191.566 213.75 191.744L213.483 190.979C213.752 190.773 214.023 190.486 214.297 190.117C214.57 189.753 214.823 189.301 215.056 188.764C215.288 188.23 215.475 187.615 215.616 186.918C215.757 186.216 215.828 185.432 215.828 184.566V184.471C215.828 183.605 215.753 182.823 215.603 182.126C215.452 181.424 215.256 180.807 215.015 180.273C214.778 179.74 214.522 179.291 214.249 178.927C213.98 178.558 213.725 178.273 213.483 178.072L213.75 177.3C214.074 177.478 214.427 177.767 214.81 178.168C215.192 178.564 215.557 179.066 215.903 179.672C216.25 180.278 216.535 180.984 216.758 181.791C216.981 182.593 217.093 183.491 217.093 184.484Z" fill="#1FBD8A"/>
<path d="M25.2559 51.8662V52.9668H19.5547V51.8662H25.2559ZM25.2559 54.7031V55.8037H19.5547V54.7031H25.2559ZM31.9824 54.2109L27.1221 52.3174V51.0117L32.96 53.5957V54.3955L31.9824 54.2109ZM27.1221 55.8789L31.9961 53.9443L32.96 53.8008V54.5938L27.1221 57.1846V55.8789ZM39.085 57.4717H39.2148C39.944 57.4717 40.5365 57.3691 40.9922 57.1641C41.4479 56.959 41.7988 56.6833 42.0449 56.3369C42.291 55.9906 42.4596 55.6009 42.5508 55.168C42.6419 54.7305 42.6875 54.2816 42.6875 53.8213V52.2969C42.6875 51.8457 42.6351 51.4447 42.5303 51.0938C42.43 50.7428 42.2887 50.4489 42.1064 50.2119C41.9287 49.9749 41.7259 49.7949 41.498 49.6719C41.2702 49.5488 41.0286 49.4873 40.7734 49.4873C40.4818 49.4873 40.2197 49.5465 39.9873 49.665C39.7594 49.779 39.5658 49.9408 39.4062 50.1504C39.2513 50.36 39.1328 50.6061 39.0508 50.8887C38.9688 51.1712 38.9277 51.4788 38.9277 51.8115C38.9277 52.1077 38.9642 52.3949 39.0371 52.6729C39.11 52.9508 39.2217 53.2015 39.3721 53.4248C39.5225 53.6481 39.7093 53.8258 39.9326 53.958C40.1605 54.0856 40.4271 54.1494 40.7324 54.1494C41.015 54.1494 41.2793 54.0947 41.5254 53.9854C41.776 53.8714 41.9971 53.7188 42.1885 53.5273C42.3844 53.3314 42.5394 53.1104 42.6533 52.8643C42.7718 52.6182 42.8402 52.3607 42.8584 52.0918H43.46C43.46 52.4701 43.3848 52.8438 43.2344 53.2129C43.0885 53.5775 42.8835 53.9102 42.6191 54.2109C42.3548 54.5117 42.0449 54.7533 41.6895 54.9355C41.334 55.1133 40.9466 55.2021 40.5273 55.2021C40.0352 55.2021 39.609 55.1064 39.249 54.915C38.889 54.7236 38.5928 54.4684 38.3604 54.1494C38.1325 53.8304 37.9616 53.4749 37.8477 53.083C37.7383 52.6865 37.6836 52.2855 37.6836 51.8799C37.6836 51.4059 37.7497 50.9616 37.8818 50.5469C38.014 50.1322 38.21 49.7676 38.4697 49.4531C38.7295 49.1341 39.0508 48.8857 39.4336 48.708C39.821 48.5303 40.2676 48.4414 40.7734 48.4414C41.3431 48.4414 41.8285 48.5553 42.2295 48.7832C42.6305 49.0111 42.9564 49.3164 43.207 49.6992C43.4622 50.082 43.6491 50.5127 43.7676 50.9912C43.8861 51.4697 43.9453 51.9619 43.9453 52.4678V52.9258C43.9453 53.4408 43.9111 53.9648 43.8428 54.498C43.779 55.0267 43.6536 55.5326 43.4668 56.0156C43.2845 56.4987 43.0179 56.9316 42.667 57.3145C42.3161 57.6927 41.8581 57.9935 41.293 58.2168C40.7324 58.4355 40.0397 58.5449 39.2148 58.5449H39.085V57.4717ZM25.2559 129.866V130.967H19.5547V129.866H25.2559ZM25.2559 132.703V133.804H19.5547V132.703H25.2559ZM31.9824 132.211L27.1221 130.317V129.012L32.96 131.596V132.396L31.9824 132.211ZM27.1221 133.879L31.9961 131.944L32.96 131.801V132.594L27.1221 135.185V133.879ZM41.9834 126.523V136.531H40.7188V128.103L38.1689 129.032V127.891L41.7852 126.523H41.9834ZM50.5557 126.564H50.665V127.638H50.5557C49.8857 127.638 49.3252 127.747 48.874 127.966C48.4229 128.18 48.0651 128.469 47.8008 128.834C47.5365 129.194 47.3451 129.6 47.2266 130.051C47.1126 130.502 47.0557 130.96 47.0557 131.425V132.888C47.0557 133.33 47.1081 133.722 47.2129 134.063C47.3177 134.401 47.4613 134.686 47.6436 134.918C47.8258 135.15 48.0309 135.326 48.2588 135.444C48.4912 135.563 48.7327 135.622 48.9834 135.622C49.2751 135.622 49.5348 135.567 49.7627 135.458C49.9906 135.344 50.182 135.187 50.3369 134.986C50.4964 134.781 50.6172 134.54 50.6992 134.262C50.7812 133.984 50.8223 133.678 50.8223 133.346C50.8223 133.049 50.7858 132.765 50.7129 132.491C50.64 132.213 50.5283 131.967 50.3779 131.753C50.2275 131.534 50.0384 131.363 49.8105 131.24C49.5872 131.113 49.3206 131.049 49.0107 131.049C48.6598 131.049 48.3317 131.135 48.0264 131.309C47.7256 131.477 47.4772 131.701 47.2812 131.979C47.0898 132.252 46.9805 132.55 46.9531 132.874L46.2832 132.867C46.347 132.357 46.4655 131.922 46.6387 131.562C46.8164 131.197 47.0352 130.901 47.2949 130.673C47.5592 130.44 47.8532 130.272 48.1768 130.167C48.5049 130.058 48.8512 130.003 49.2158 130.003C49.7126 130.003 50.141 130.096 50.501 130.283C50.861 130.47 51.1572 130.721 51.3896 131.035C51.6221 131.345 51.793 131.696 51.9023 132.088C52.0163 132.475 52.0732 132.874 52.0732 133.284C52.0732 133.754 52.0072 134.193 51.875 134.604C51.7428 135.014 51.5446 135.374 51.2803 135.684C51.0205 135.993 50.6992 136.235 50.3164 136.408C49.9336 136.581 49.4893 136.668 48.9834 136.668C48.4456 136.668 47.9762 136.559 47.5752 136.34C47.1742 136.117 46.8415 135.82 46.5771 135.451C46.3128 135.082 46.1146 134.672 45.9824 134.221C45.8503 133.77 45.7842 133.312 45.7842 132.847V132.252C45.7842 131.55 45.8548 130.862 45.9961 130.188C46.1374 129.513 46.3812 128.902 46.7275 128.355C47.0785 127.809 47.5638 127.373 48.1836 127.05C48.8034 126.726 49.5941 126.564 50.5557 126.564ZM25.2559 207.866V208.967H19.5547V207.866H25.2559ZM25.2559 210.703V211.804H19.5547V210.703H25.2559ZM31.9824 210.211L27.1221 208.317V207.012L32.96 209.596V210.396L31.9824 210.211ZM27.1221 211.879L31.9961 209.944L32.96 209.801V210.594L27.1221 213.185V211.879ZM39.4268 209.794L38.415 209.534L38.9141 204.578H44.0205V205.747H39.9873L39.6865 208.454C39.8688 208.349 40.099 208.251 40.377 208.16C40.6595 208.069 40.9831 208.023 41.3477 208.023C41.8079 208.023 42.2204 208.103 42.585 208.263C42.9495 208.418 43.2594 208.641 43.5146 208.933C43.7744 209.224 43.9727 209.575 44.1094 209.985C44.2461 210.396 44.3145 210.854 44.3145 211.359C44.3145 211.838 44.2484 212.278 44.1162 212.679C43.9886 213.08 43.7949 213.431 43.5352 213.731C43.2754 214.028 42.9473 214.258 42.5508 214.422C42.1589 214.586 41.6963 214.668 41.1631 214.668C40.762 214.668 40.3815 214.613 40.0215 214.504C39.666 214.39 39.347 214.219 39.0645 213.991C38.7865 213.759 38.5586 213.472 38.3809 213.13C38.2077 212.784 38.0983 212.378 38.0527 211.913H39.2559C39.3105 212.287 39.4199 212.601 39.584 212.856C39.748 213.112 39.9622 213.305 40.2266 213.438C40.4954 213.565 40.8076 213.629 41.1631 213.629C41.4639 213.629 41.7305 213.576 41.9629 213.472C42.1953 213.367 42.3913 213.216 42.5508 213.021C42.7103 212.825 42.8311 212.588 42.9131 212.31C42.9997 212.032 43.043 211.719 43.043 211.373C43.043 211.059 42.9997 210.767 42.9131 210.498C42.8265 210.229 42.6966 209.994 42.5234 209.794C42.3548 209.593 42.1475 209.438 41.9014 209.329C41.6553 209.215 41.3727 209.158 41.0537 209.158C40.6299 209.158 40.3086 209.215 40.0898 209.329C39.8757 209.443 39.6546 209.598 39.4268 209.794ZM45.8594 213.861C45.8594 213.647 45.9255 213.467 46.0576 213.321C46.1943 213.171 46.3903 213.096 46.6455 213.096C46.9007 213.096 47.0944 213.171 47.2266 213.321C47.3633 213.467 47.4316 213.647 47.4316 213.861C47.4316 214.071 47.3633 214.249 47.2266 214.395C47.0944 214.54 46.9007 214.613 46.6455 214.613C46.3903 214.613 46.1943 214.54 46.0576 214.395C45.9255 214.249 45.8594 214.071 45.8594 213.861ZM55.6416 208.762V210.279C55.6416 211.095 55.5687 211.783 55.4229 212.344C55.277 212.904 55.0674 213.355 54.7939 213.697C54.5205 214.039 54.1901 214.287 53.8027 214.442C53.4199 214.593 52.987 214.668 52.5039 214.668C52.1211 214.668 51.7679 214.62 51.4443 214.524C51.1208 214.429 50.8291 214.276 50.5693 214.066C50.3141 213.852 50.0954 213.574 49.9131 213.232C49.7308 212.891 49.5918 212.476 49.4961 211.988C49.4004 211.501 49.3525 210.931 49.3525 210.279V208.762C49.3525 207.946 49.4255 207.262 49.5713 206.711C49.7217 206.16 49.9336 205.717 50.207 205.385C50.4805 205.048 50.8086 204.806 51.1914 204.66C51.5788 204.514 52.0117 204.441 52.4902 204.441C52.8776 204.441 53.2331 204.489 53.5566 204.585C53.8848 204.676 54.1764 204.824 54.4316 205.029C54.6868 205.23 54.9033 205.499 55.0811 205.836C55.2633 206.169 55.4023 206.576 55.498 207.06C55.5938 207.543 55.6416 208.11 55.6416 208.762ZM54.3701 210.484V208.55C54.3701 208.103 54.3428 207.711 54.2881 207.374C54.238 207.032 54.1628 206.741 54.0625 206.499C53.9622 206.257 53.8346 206.062 53.6797 205.911C53.5293 205.761 53.3538 205.651 53.1533 205.583C52.9574 205.51 52.7363 205.474 52.4902 205.474C52.1895 205.474 51.9229 205.531 51.6904 205.645C51.458 205.754 51.262 205.929 51.1025 206.171C50.9476 206.412 50.8291 206.729 50.7471 207.121C50.665 207.513 50.624 207.989 50.624 208.55V210.484C50.624 210.931 50.6491 211.325 50.6992 211.667C50.7539 212.009 50.8337 212.305 50.9385 212.556C51.0433 212.802 51.1709 213.005 51.3213 213.164C51.4717 213.324 51.6449 213.442 51.8408 213.52C52.0413 213.592 52.2624 213.629 52.5039 213.629C52.8138 213.629 53.085 213.57 53.3174 213.451C53.5498 213.333 53.7435 213.148 53.8984 212.897C54.0579 212.642 54.1764 212.316 54.2539 211.92C54.3314 211.519 54.3701 211.04 54.3701 210.484Z" fill="white"/>
</g>
<defs>
<filter id="filter0_d_2_114" x="-50" y="-20" width="543" height="485" filterUnits="userSpaceOnUse" color-interpolation-filters="sRGB">
<feFlood flood-opacity="0" result="BackgroundImageFix"/>
<feColorMatrix in="SourceAlpha" type="matrix" values="0 0 0 0 0 0 0 0 0 0 0 0 0 0 0 0 0 0 127 0" result="hardAlpha"/>
<feOffset dy="30"/>
<feGaussianBlur stdDeviation="25"/>
<feColorMatrix type="matrix" values="0 0 0 0 0.0235294 0 0 0 0 0.0901961 0 0 0 0 0.0352941 0 0 0 0.35 0"/>
<feBlend mode="normal" in2="BackgroundImageFix" result="effect1_dropShadow_2_114"/>
<feBlend mode="normal" in="SourceGraphic" in2="effect1_dropShadow_2_114" result="shape"/>
</filter>
<clipPath id="clip0_2_114">
<rect width="443" height="326" fill="white"/>
</clipPath>
</defs>
</svg>
