<svg width="443" height="326" viewBox="0 0 443 326" fill="none" xmlns="http://www.w3.org/2000/svg">
<g clip-path="url(#clip0_2_114)">
<g filter="url(#filter0_d_2_114)">
<path d="M0 10C0 4.47716 4.47715 0 10 0H433C438.523 0 443 4.47715 443 10V375C443 380.523 438.523 385 433 385H9.99999C4.47715 385 0 380.523 0 375V10Z" fill="#1D3954"/>
</g>
<path d="M19.876 27.9375L24.5996 29.8516V31.1914L19.0078 28.6006V27.8145L19.876 27.9375ZM24.5996 26.3652L19.8828 28.3066L19.0078 28.4023V27.6094L24.5996 25.0254V26.3652ZM28.1064 22.5781L28.0176 29.7217H26.876L26.7803 22.5781H28.1064ZM26.7393 31.8955C26.7393 31.6904 26.8008 31.5173 26.9238 31.376C27.0514 31.2347 27.2383 31.1641 27.4844 31.1641C27.7259 31.1641 27.9105 31.2347 28.0381 31.376C28.1702 31.5173 28.2363 31.6904 28.2363 31.8955C28.2363 32.0915 28.1702 32.2601 28.0381 32.4014C27.9105 32.5426 27.7259 32.6133 27.4844 32.6133C27.2383 32.6133 27.0514 32.5426 26.9238 32.4014C26.8008 32.2601 26.7393 32.0915 26.7393 31.8955ZM33.0967 32.5312H31.0186L31.0322 31.458H33.0967C33.8076 31.458 34.4001 31.3099 34.874 31.0137C35.348 30.7129 35.7035 30.2936 35.9404 29.7559C36.182 29.2135 36.3027 28.5801 36.3027 27.8555V27.2471C36.3027 26.6774 36.2344 26.1715 36.0977 25.7295C35.9609 25.2829 35.7604 24.9069 35.4961 24.6016C35.2318 24.2917 34.9082 24.057 34.5254 23.8975C34.1471 23.738 33.7119 23.6582 33.2197 23.6582H30.9775V22.5781H33.2197C33.8714 22.5781 34.4661 22.6875 35.0039 22.9062C35.5417 23.1204 36.0042 23.4326 36.3916 23.8428C36.7835 24.2484 37.0843 24.7406 37.2939 25.3193C37.5036 25.8936 37.6084 26.5407 37.6084 27.2607V27.8555C37.6084 28.5755 37.5036 29.2249 37.2939 29.8037C37.0843 30.3779 36.7812 30.8678 36.3848 31.2734C35.9928 31.679 35.5189 31.9912 34.9629 32.21C34.4115 32.4242 33.7894 32.5312 33.0967 32.5312ZM31.7227 22.5781V32.5312H30.4033V22.5781H31.7227ZM47.2539 27.2402V27.8691C47.2539 28.6165 47.1605 29.2865 46.9736 29.8789C46.7868 30.4714 46.5179 30.9749 46.167 31.3896C45.8161 31.8044 45.3945 32.1211 44.9023 32.3398C44.4147 32.5586 43.8678 32.668 43.2617 32.668C42.6738 32.668 42.1338 32.5586 41.6416 32.3398C41.154 32.1211 40.7301 31.8044 40.3701 31.3896C40.0146 30.9749 39.7389 30.4714 39.543 29.8789C39.347 29.2865 39.249 28.6165 39.249 27.8691V27.2402C39.249 26.4928 39.3447 25.8252 39.5361 25.2373C39.7321 24.6449 40.0078 24.1413 40.3633 23.7266C40.7188 23.3073 41.1403 22.9883 41.6279 22.7695C42.1201 22.5508 42.6602 22.4414 43.248 22.4414C43.8542 22.4414 44.401 22.5508 44.8887 22.7695C45.3809 22.9883 45.8024 23.3073 46.1533 23.7266C46.5088 24.1413 46.7799 24.6449 46.9668 25.2373C47.1582 25.8252 47.2539 26.4928 47.2539 27.2402ZM45.9482 27.8691V27.2266C45.9482 26.6341 45.8867 26.11 45.7637 25.6543C45.6452 25.1986 45.4697 24.8158 45.2373 24.5059C45.0049 24.196 44.7201 23.9613 44.3828 23.8018C44.0501 23.6423 43.6719 23.5625 43.248 23.5625C42.8379 23.5625 42.4665 23.6423 42.1338 23.8018C41.8057 23.9613 41.5231 24.196 41.2861 24.5059C41.0537 24.8158 40.8737 25.1986 40.7461 25.6543C40.6185 26.11 40.5547 26.6341 40.5547 27.2266V27.8691C40.5547 28.4661 40.6185 28.9948 40.7461 29.4551C40.8737 29.9108 41.056 30.2959 41.293 30.6104C41.5345 30.9202 41.8193 31.1549 42.1475 31.3145C42.4801 31.474 42.8516 31.5537 43.2617 31.5537C43.6901 31.5537 44.0706 31.474 44.4033 31.3145C44.736 31.1549 45.0163 30.9202 45.2441 30.6104C45.4766 30.2959 45.652 29.9108 45.7705 29.4551C45.889 28.9948 45.9482 28.4661 45.9482 27.8691ZM55.2383 29.3662H56.5508C56.4824 29.9951 56.3024 30.5579 56.0107 31.0547C55.7191 31.5514 55.3066 31.9456 54.7734 32.2373C54.2402 32.5244 53.5749 32.668 52.7773 32.668C52.194 32.668 51.6631 32.5586 51.1846 32.3398C50.7106 32.1211 50.3027 31.8112 49.9609 31.4102C49.6191 31.0046 49.3548 30.5192 49.168 29.9541C48.9857 29.3844 48.8945 28.751 48.8945 28.0537V27.0625C48.8945 26.3652 48.9857 25.734 49.168 25.1689C49.3548 24.5993 49.6214 24.1117 49.9678 23.7061C50.3187 23.3005 50.7402 22.9883 51.2324 22.7695C51.7246 22.5508 52.2783 22.4414 52.8936 22.4414C53.6455 22.4414 54.2812 22.5827 54.8008 22.8652C55.3203 23.1478 55.7236 23.5397 56.0107 24.041C56.3024 24.5378 56.4824 25.1143 56.5508 25.7705H55.2383C55.1745 25.3057 55.056 24.9069 54.8828 24.5742C54.7096 24.237 54.4635 23.9772 54.1445 23.7949C53.8255 23.6126 53.4085 23.5215 52.8936 23.5215C52.4515 23.5215 52.0618 23.6058 51.7246 23.7744C51.3919 23.943 51.1117 24.1823 50.8838 24.4922C50.6605 24.8021 50.4919 25.1735 50.3779 25.6064C50.264 26.0394 50.207 26.5202 50.207 27.0488V28.0537C50.207 28.5413 50.2572 28.9993 50.3574 29.4277C50.4622 29.8561 50.6195 30.2321 50.8291 30.5557C51.0387 30.8792 51.3053 31.1344 51.6289 31.3213C51.9525 31.5036 52.3353 31.5947 52.7773 31.5947C53.3379 31.5947 53.7845 31.5059 54.1172 31.3281C54.4499 31.1504 54.7005 30.8952 54.8691 30.5625C55.0423 30.2298 55.1654 29.8311 55.2383 29.3662ZM61.8213 22.5781V32.5312H60.5225V22.5781H61.8213ZM65.0205 22.5781V23.6582H57.3301V22.5781H65.0205ZM67.0645 22.5781L69.6484 27.5752L72.2393 22.5781H73.7363L70.3047 28.8125V32.5312H68.9854V28.8125L65.5537 22.5781H67.0645ZM78.6855 28.6279H76.0264V27.5547H78.6855C79.2005 27.5547 79.6175 27.4727 79.9365 27.3086C80.2555 27.1445 80.488 26.9167 80.6338 26.625C80.7842 26.3333 80.8594 26.0007 80.8594 25.627C80.8594 25.2852 80.7842 24.9639 80.6338 24.6631C80.488 24.3623 80.2555 24.1208 79.9365 23.9385C79.6175 23.7516 79.2005 23.6582 78.6855 23.6582H76.334V32.5312H75.0146V22.5781H78.6855C79.4375 22.5781 80.0732 22.708 80.5928 22.9678C81.1123 23.2275 81.5065 23.5876 81.7754 24.0479C82.0443 24.5036 82.1787 25.0254 82.1787 25.6133C82.1787 26.2513 82.0443 26.7959 81.7754 27.2471C81.5065 27.6982 81.1123 28.0423 80.5928 28.2793C80.0732 28.5117 79.4375 28.6279 78.6855 28.6279ZM90.1699 31.458V32.5312H84.8994V31.458H90.1699ZM85.166 22.5781V32.5312H83.8467V22.5781H85.166ZM89.4727 26.8574V27.9307H84.8994V26.8574H89.4727ZM90.1016 22.5781V23.6582H84.8994V22.5781H90.1016ZM96.3496 22.0312V32.5312H95.085V22.0312H96.3496ZM96.0488 28.5527L95.5225 28.5322C95.527 28.0264 95.6022 27.5592 95.748 27.1309C95.8939 26.6979 96.099 26.3219 96.3633 26.0029C96.6276 25.6839 96.9421 25.4378 97.3066 25.2646C97.6758 25.0869 98.0837 24.998 98.5303 24.998C98.8949 24.998 99.223 25.0482 99.5146 25.1484C99.8063 25.2441 100.055 25.3991 100.26 25.6133C100.469 25.8275 100.629 26.1055 100.738 26.4473C100.848 26.7845 100.902 27.1969 100.902 27.6846V32.5312H99.6309V27.6709C99.6309 27.2835 99.5739 26.9736 99.46 26.7412C99.346 26.5042 99.1797 26.3333 98.9609 26.2285C98.7422 26.1191 98.4733 26.0645 98.1543 26.0645C97.8398 26.0645 97.5527 26.1305 97.293 26.2627C97.0378 26.3949 96.8167 26.5771 96.6299 26.8096C96.4476 27.042 96.304 27.3086 96.1992 27.6094C96.099 27.9056 96.0488 28.2201 96.0488 28.5527ZM105.893 25.1348V26.1055H101.894V25.1348H105.893ZM103.247 23.3369H104.512V30.6992C104.512 30.9499 104.55 31.139 104.628 31.2666C104.705 31.3942 104.806 31.4785 104.929 31.5195C105.052 31.5605 105.184 31.5811 105.325 31.5811C105.43 31.5811 105.539 31.5719 105.653 31.5537C105.772 31.5309 105.861 31.5127 105.92 31.499L105.927 32.5312C105.826 32.5632 105.694 32.5928 105.53 32.6201C105.371 32.652 105.177 32.668 104.949 32.668C104.639 32.668 104.354 32.6064 104.095 32.4834C103.835 32.3604 103.628 32.1553 103.473 31.8682C103.322 31.5765 103.247 31.1846 103.247 30.6924V23.3369ZM108.634 26.6045V32.5312H107.362V25.1348H108.565L108.634 26.6045ZM108.374 28.5527L107.786 28.5322C107.791 28.0264 107.857 27.5592 107.984 27.1309C108.112 26.6979 108.301 26.3219 108.552 26.0029C108.802 25.6839 109.115 25.4378 109.488 25.2646C109.862 25.0869 110.295 24.998 110.787 24.998C111.133 24.998 111.452 25.0482 111.744 25.1484C112.036 25.2441 112.289 25.3968 112.503 25.6064C112.717 25.8161 112.883 26.085 113.002 26.4131C113.12 26.7412 113.18 27.1377 113.18 27.6025V32.5312H111.915V27.6641C111.915 27.2767 111.849 26.9668 111.717 26.7344C111.589 26.502 111.407 26.3333 111.17 26.2285C110.933 26.1191 110.655 26.0645 110.336 26.0645C109.962 26.0645 109.65 26.1305 109.399 26.2627C109.149 26.3949 108.948 26.5771 108.798 26.8096C108.647 27.042 108.538 27.3086 108.47 27.6094C108.406 27.9056 108.374 28.2201 108.374 28.5527ZM113.166 27.8555L112.318 28.1152C112.323 27.7096 112.389 27.32 112.517 26.9463C112.649 26.5726 112.838 26.2399 113.084 25.9482C113.335 25.6566 113.642 25.4264 114.007 25.2578C114.371 25.0846 114.788 24.998 115.258 24.998C115.654 24.998 116.005 25.0505 116.311 25.1553C116.62 25.2601 116.88 25.4219 117.09 25.6406C117.304 25.8548 117.466 26.1305 117.575 26.4678C117.685 26.805 117.739 27.2061 117.739 27.6709V32.5312H116.468V27.6572C116.468 27.2425 116.402 26.9212 116.27 26.6934C116.142 26.4609 115.96 26.2992 115.723 26.208C115.49 26.1123 115.212 26.0645 114.889 26.0645C114.611 26.0645 114.365 26.1123 114.15 26.208C113.936 26.3037 113.756 26.4359 113.61 26.6045C113.465 26.7686 113.353 26.9577 113.275 27.1719C113.202 27.3861 113.166 27.6139 113.166 27.8555ZM121.027 22.0312V32.5312H119.756V22.0312H121.027ZM127.877 28.2109L123.017 26.3174V25.0117L128.854 27.5957V28.3955L127.877 28.2109ZM123.017 29.8789L127.891 27.9443L128.854 27.8008V28.5938L123.017 31.1846V29.8789ZM44.1846 79.9375L48.9082 81.8516V83.1914L43.3164 80.6006V79.8145L44.1846 79.9375ZM48.9082 78.3652L44.1914 80.3066L43.3164 80.4023V79.6094L48.9082 77.0254V78.3652ZM52.1758 74.0312V84.5312H50.9111V74.0312H52.1758ZM51.875 80.5527L51.3486 80.5322C51.3532 80.0264 51.4284 79.5592 51.5742 79.1309C51.7201 78.6979 51.9251 78.3219 52.1895 78.0029C52.4538 77.6839 52.7682 77.4378 53.1328 77.2646C53.502 77.0869 53.9098 76.998 54.3564 76.998C54.721 76.998 55.0492 77.0482 55.3408 77.1484C55.6325 77.2441 55.8809 77.3991 56.0859 77.6133C56.2956 77.8275 56.4551 78.1055 56.5645 78.4473C56.6738 78.7845 56.7285 79.1969 56.7285 79.6846V84.5312H55.457V79.6709C55.457 79.2835 55.4001 78.9736 55.2861 78.7412C55.1722 78.5042 55.0059 78.3333 54.7871 78.2285C54.5684 78.1191 54.2995 78.0645 53.9805 78.0645C53.666 78.0645 53.3789 78.1305 53.1191 78.2627C52.8639 78.3949 52.6429 78.5771 52.4561 78.8096C52.2738 79.042 52.1302 79.3086 52.0254 79.6094C51.9251 79.9056 51.875 80.2201 51.875 80.5527ZM61.6914 84.668C61.1764 84.668 60.7093 84.5814 60.29 84.4082C59.8753 84.2305 59.5176 83.9821 59.2168 83.6631C58.9206 83.3441 58.6927 82.9658 58.5332 82.5283C58.3737 82.0908 58.2939 81.6123 58.2939 81.0928V80.8057C58.2939 80.2041 58.3828 79.6686 58.5605 79.1992C58.7383 78.7253 58.9798 78.3242 59.2852 77.9961C59.5905 77.668 59.9368 77.4196 60.3242 77.251C60.7116 77.0824 61.1126 76.998 61.5273 76.998C62.056 76.998 62.5117 77.0892 62.8945 77.2715C63.2819 77.4538 63.5986 77.709 63.8447 78.0371C64.0908 78.3607 64.2731 78.7435 64.3916 79.1855C64.5101 79.623 64.5693 80.1016 64.5693 80.6211V81.1885H59.0459V80.1562H63.3047V80.0605C63.2865 79.7324 63.2181 79.4134 63.0996 79.1035C62.9857 78.7936 62.8034 78.5384 62.5527 78.3379C62.3021 78.1374 61.9603 78.0371 61.5273 78.0371C61.2402 78.0371 60.9759 78.0986 60.7344 78.2217C60.4928 78.3402 60.2855 78.5179 60.1123 78.7549C59.9391 78.9919 59.8047 79.2812 59.709 79.623C59.6133 79.9648 59.5654 80.359 59.5654 80.8057V81.0928C59.5654 81.4437 59.6133 81.7741 59.709 82.084C59.8092 82.3893 59.9528 82.6582 60.1396 82.8906C60.3311 83.123 60.5612 83.3053 60.8301 83.4375C61.1035 83.5697 61.4134 83.6357 61.7598 83.6357C62.2064 83.6357 62.5846 83.5446 62.8945 83.3623C63.2044 83.18 63.4756 82.9362 63.708 82.6309L64.4736 83.2393C64.3141 83.4808 64.1113 83.7109 63.8652 83.9297C63.6191 84.1484 63.3161 84.3262 62.9561 84.4629C62.6006 84.5996 62.179 84.668 61.6914 84.668ZM70.4072 83.2666V79.459C70.4072 79.1673 70.348 78.9144 70.2295 78.7002C70.1156 78.4814 69.9424 78.3128 69.71 78.1943C69.4775 78.0758 69.1904 78.0166 68.8486 78.0166C68.5296 78.0166 68.2493 78.0713 68.0078 78.1807C67.7708 78.29 67.584 78.4336 67.4473 78.6113C67.3151 78.7891 67.249 78.9805 67.249 79.1855H65.9844C65.9844 78.9212 66.0527 78.6592 66.1895 78.3994C66.3262 78.1396 66.5221 77.9049 66.7773 77.6953C67.0371 77.4811 67.347 77.3125 67.707 77.1895C68.0716 77.0618 68.4772 76.998 68.9238 76.998C69.4616 76.998 69.9355 77.0892 70.3457 77.2715C70.7604 77.4538 71.084 77.7295 71.3164 78.0986C71.5534 78.4632 71.6719 78.9212 71.6719 79.4727V82.918C71.6719 83.1641 71.6924 83.4261 71.7334 83.7041C71.779 83.9821 71.8451 84.2214 71.9316 84.4219V84.5312H70.6123C70.5485 84.3854 70.4984 84.1917 70.4619 83.9502C70.4255 83.7041 70.4072 83.4762 70.4072 83.2666ZM70.626 80.0469L70.6396 80.9355H69.3613C69.0013 80.9355 68.68 80.9652 68.3975 81.0244C68.1149 81.0791 67.8779 81.1634 67.6865 81.2773C67.4951 81.3913 67.3493 81.5348 67.249 81.708C67.1488 81.8766 67.0986 82.0749 67.0986 82.3027C67.0986 82.5352 67.151 82.7471 67.2559 82.9385C67.3607 83.1299 67.5179 83.2826 67.7275 83.3965C67.9417 83.5059 68.2038 83.5605 68.5137 83.5605C68.901 83.5605 69.2428 83.4785 69.5391 83.3145C69.8353 83.1504 70.07 82.9499 70.2432 82.7129C70.4209 82.4759 70.5166 82.2458 70.5303 82.0225L71.0703 82.6309C71.0384 82.8223 70.9518 83.0342 70.8105 83.2666C70.6693 83.499 70.4801 83.7223 70.2432 83.9365C70.0107 84.1462 69.7327 84.3216 69.4092 84.4629C69.0902 84.5996 68.7301 84.668 68.3291 84.668C67.8278 84.668 67.388 84.57 67.0098 84.374C66.6361 84.1781 66.3444 83.916 66.1348 83.5879C65.9297 83.2552 65.8271 82.8838 65.8271 82.4736C65.8271 82.0771 65.9046 81.7285 66.0596 81.4277C66.2145 81.1224 66.4378 80.8695 66.7295 80.6689C67.0212 80.4639 67.3721 80.3089 67.7822 80.2041C68.1924 80.0993 68.6504 80.0469 69.1562 80.0469H70.626ZM78.3232 83.0957V74.0312H79.5947V84.5312H78.4326L78.3232 83.0957ZM73.3467 80.915V80.7715C73.3467 80.2064 73.415 79.6937 73.5518 79.2334C73.693 78.7686 73.8913 78.3698 74.1465 78.0371C74.4062 77.7044 74.7139 77.4492 75.0693 77.2715C75.4294 77.0892 75.8304 76.998 76.2725 76.998C76.7373 76.998 77.1429 77.0801 77.4893 77.2441C77.8402 77.4036 78.1364 77.6383 78.3779 77.9482C78.624 78.2536 78.8177 78.6227 78.959 79.0557C79.1003 79.4886 79.1982 79.9785 79.2529 80.5254V81.1543C79.2028 81.6966 79.1048 82.1842 78.959 82.6172C78.8177 83.0501 78.624 83.4193 78.3779 83.7246C78.1364 84.0299 77.8402 84.2646 77.4893 84.4287C77.1383 84.5882 76.7282 84.668 76.2588 84.668C75.8258 84.668 75.4294 84.5745 75.0693 84.3877C74.7139 84.2008 74.4062 83.9388 74.1465 83.6016C73.8913 83.2643 73.693 82.8678 73.5518 82.4121C73.415 81.9518 73.3467 81.4528 73.3467 80.915ZM74.6182 80.7715V80.915C74.6182 81.2842 74.6546 81.6305 74.7275 81.9541C74.805 82.2777 74.9235 82.5625 75.083 82.8086C75.2425 83.0547 75.4453 83.2484 75.6914 83.3896C75.9375 83.5264 76.2314 83.5947 76.5732 83.5947C76.9925 83.5947 77.3366 83.5059 77.6055 83.3281C77.8789 83.1504 78.0977 82.9157 78.2617 82.624C78.4258 82.3324 78.5534 82.0156 78.6445 81.6738V80.0264C78.5898 79.7757 78.5101 79.5342 78.4053 79.3018C78.305 79.0648 78.1729 78.8551 78.0088 78.6729C77.8493 78.486 77.651 78.3379 77.4141 78.2285C77.1816 78.1191 76.9059 78.0645 76.5869 78.0645C76.2406 78.0645 75.9421 78.1374 75.6914 78.2832C75.4453 78.4245 75.2425 78.6204 75.083 78.8711C74.9235 79.1172 74.805 79.4043 74.7275 79.7324C74.6546 80.056 74.6182 80.4023 74.6182 80.7715ZM86.3828 80.2109L81.5225 78.3174V77.0117L87.3604 79.5957V80.3955L86.3828 80.2109ZM81.5225 81.8789L86.3965 79.9443L87.3604 79.8008V80.5938L81.5225 83.1846V81.8789ZM113.733 100.578V110.531H112.421V101.658H107.513V110.531H106.193V100.578H113.733ZM117.199 104.557V113.375H115.928V103.135H117.09L117.199 104.557ZM122.183 106.771V106.915C122.183 107.453 122.119 107.952 121.991 108.412C121.864 108.868 121.677 109.264 121.431 109.602C121.189 109.939 120.891 110.201 120.535 110.388C120.18 110.575 119.772 110.668 119.312 110.668C118.842 110.668 118.427 110.59 118.067 110.436C117.707 110.281 117.402 110.055 117.151 109.759C116.901 109.463 116.7 109.107 116.55 108.692C116.404 108.278 116.304 107.811 116.249 107.291V106.525C116.304 105.979 116.406 105.489 116.557 105.056C116.707 104.623 116.905 104.254 117.151 103.948C117.402 103.638 117.705 103.404 118.061 103.244C118.416 103.08 118.826 102.998 119.291 102.998C119.756 102.998 120.168 103.089 120.528 103.271C120.888 103.449 121.191 103.704 121.438 104.037C121.684 104.37 121.868 104.769 121.991 105.233C122.119 105.694 122.183 106.206 122.183 106.771ZM120.911 106.915V106.771C120.911 106.402 120.872 106.056 120.795 105.732C120.717 105.404 120.597 105.117 120.433 104.871C120.273 104.62 120.068 104.424 119.817 104.283C119.567 104.137 119.268 104.064 118.922 104.064C118.603 104.064 118.325 104.119 118.088 104.229C117.855 104.338 117.657 104.486 117.493 104.673C117.329 104.855 117.195 105.065 117.09 105.302C116.99 105.534 116.914 105.776 116.864 106.026V107.797C116.955 108.116 117.083 108.417 117.247 108.699C117.411 108.977 117.63 109.203 117.903 109.376C118.177 109.545 118.521 109.629 118.936 109.629C119.277 109.629 119.571 109.558 119.817 109.417C120.068 109.271 120.273 109.073 120.433 108.822C120.597 108.572 120.717 108.285 120.795 107.961C120.872 107.633 120.911 107.284 120.911 106.915ZM125.163 108.528L128.574 103.135H129.846V110.531H128.574V105.138L125.163 110.531H123.905V103.135H125.163V108.528ZM136.128 108.85L138.644 103.135H139.86L136.565 110.531H135.69L132.409 103.135H133.626L136.128 108.85ZM133.257 103.135V110.531H131.992V103.135H133.257ZM138.958 110.531V103.135H140.229V110.531H138.958ZM145.336 110.668C144.821 110.668 144.354 110.581 143.935 110.408C143.52 110.23 143.162 109.982 142.861 109.663C142.565 109.344 142.337 108.966 142.178 108.528C142.018 108.091 141.938 107.612 141.938 107.093V106.806C141.938 106.204 142.027 105.669 142.205 105.199C142.383 104.725 142.624 104.324 142.93 103.996C143.235 103.668 143.581 103.42 143.969 103.251C144.356 103.082 144.757 102.998 145.172 102.998C145.701 102.998 146.156 103.089 146.539 103.271C146.926 103.454 147.243 103.709 147.489 104.037C147.735 104.361 147.918 104.743 148.036 105.186C148.155 105.623 148.214 106.102 148.214 106.621V107.188H142.69V106.156H146.949V106.061C146.931 105.732 146.863 105.413 146.744 105.104C146.63 104.794 146.448 104.538 146.197 104.338C145.947 104.137 145.605 104.037 145.172 104.037C144.885 104.037 144.62 104.099 144.379 104.222C144.137 104.34 143.93 104.518 143.757 104.755C143.584 104.992 143.449 105.281 143.354 105.623C143.258 105.965 143.21 106.359 143.21 106.806V107.093C143.21 107.444 143.258 107.774 143.354 108.084C143.454 108.389 143.597 108.658 143.784 108.891C143.976 109.123 144.206 109.305 144.475 109.438C144.748 109.57 145.058 109.636 145.404 109.636C145.851 109.636 146.229 109.545 146.539 109.362C146.849 109.18 147.12 108.936 147.353 108.631L148.118 109.239C147.959 109.481 147.756 109.711 147.51 109.93C147.264 110.148 146.961 110.326 146.601 110.463C146.245 110.6 145.824 110.668 145.336 110.668ZM150.955 104.557V113.375H149.684V103.135H150.846L150.955 104.557ZM155.938 106.771V106.915C155.938 107.453 155.875 107.952 155.747 108.412C155.619 108.868 155.433 109.264 155.187 109.602C154.945 109.939 154.646 110.201 154.291 110.388C153.936 110.575 153.528 110.668 153.067 110.668C152.598 110.668 152.183 110.59 151.823 110.436C151.463 110.281 151.158 110.055 150.907 109.759C150.657 109.463 150.456 109.107 150.306 108.692C150.16 108.278 150.06 107.811 150.005 107.291V106.525C150.06 105.979 150.162 105.489 150.312 105.056C150.463 104.623 150.661 104.254 150.907 103.948C151.158 103.638 151.461 103.404 151.816 103.244C152.172 103.08 152.582 102.998 153.047 102.998C153.512 102.998 153.924 103.089 154.284 103.271C154.644 103.449 154.947 103.704 155.193 104.037C155.439 104.37 155.624 104.769 155.747 105.233C155.875 105.694 155.938 106.206 155.938 106.771ZM154.667 106.915V106.771C154.667 106.402 154.628 106.056 154.551 105.732C154.473 105.404 154.353 105.117 154.188 104.871C154.029 104.62 153.824 104.424 153.573 104.283C153.323 104.137 153.024 104.064 152.678 104.064C152.359 104.064 152.081 104.119 151.844 104.229C151.611 104.338 151.413 104.486 151.249 104.673C151.085 104.855 150.951 105.065 150.846 105.302C150.745 105.534 150.67 105.776 150.62 106.026V107.797C150.711 108.116 150.839 108.417 151.003 108.699C151.167 108.977 151.386 109.203 151.659 109.376C151.933 109.545 152.277 109.629 152.691 109.629C153.033 109.629 153.327 109.558 153.573 109.417C153.824 109.271 154.029 109.073 154.188 108.822C154.353 108.572 154.473 108.285 154.551 107.961C154.628 107.633 154.667 107.284 154.667 106.915ZM44.1846 131.938L48.9082 133.852V135.191L43.3164 132.601V131.814L44.1846 131.938ZM48.9082 130.365L44.1914 132.307L43.3164 132.402V131.609L48.9082 129.025V130.365ZM55.3135 126.578L51.1641 137.386H50.0771L54.2334 126.578H55.3135ZM57.959 126.031V136.531H56.6943V126.031H57.959ZM57.6582 132.553L57.1318 132.532C57.1364 132.026 57.2116 131.559 57.3574 131.131C57.5033 130.698 57.7083 130.322 57.9727 130.003C58.237 129.684 58.5514 129.438 58.916 129.265C59.2852 129.087 59.693 128.998 60.1396 128.998C60.5042 128.998 60.8324 129.048 61.124 129.148C61.4157 129.244 61.6641 129.399 61.8691 129.613C62.0788 129.827 62.2383 130.105 62.3477 130.447C62.457 130.785 62.5117 131.197 62.5117 131.685V136.531H61.2402V131.671C61.2402 131.284 61.1833 130.974 61.0693 130.741C60.9554 130.504 60.7891 130.333 60.5703 130.229C60.3516 130.119 60.0827 130.064 59.7637 130.064C59.4492 130.064 59.1621 130.131 58.9023 130.263C58.6471 130.395 58.4261 130.577 58.2393 130.81C58.057 131.042 57.9134 131.309 57.8086 131.609C57.7083 131.906 57.6582 132.22 57.6582 132.553ZM67.4746 136.668C66.9596 136.668 66.4925 136.581 66.0732 136.408C65.6585 136.23 65.3008 135.982 65 135.663C64.7038 135.344 64.4759 134.966 64.3164 134.528C64.1569 134.091 64.0771 133.612 64.0771 133.093V132.806C64.0771 132.204 64.166 131.669 64.3438 131.199C64.5215 130.725 64.763 130.324 65.0684 129.996C65.3737 129.668 65.7201 129.42 66.1074 129.251C66.4948 129.082 66.8958 128.998 67.3105 128.998C67.8392 128.998 68.2949 129.089 68.6777 129.271C69.0651 129.454 69.3818 129.709 69.6279 130.037C69.874 130.361 70.0563 130.743 70.1748 131.186C70.2933 131.623 70.3525 132.102 70.3525 132.621V133.188H64.8291V132.156H69.0879V132.061C69.0697 131.732 69.0013 131.413 68.8828 131.104C68.7689 130.794 68.5866 130.538 68.3359 130.338C68.0853 130.137 67.7435 130.037 67.3105 130.037C67.0234 130.037 66.7591 130.099 66.5176 130.222C66.276 130.34 66.0687 130.518 65.8955 130.755C65.7223 130.992 65.5879 131.281 65.4922 131.623C65.3965 131.965 65.3486 132.359 65.3486 132.806V133.093C65.3486 133.444 65.3965 133.774 65.4922 134.084C65.5924 134.389 65.736 134.658 65.9229 134.891C66.1143 135.123 66.3444 135.305 66.6133 135.438C66.8867 135.57 67.1966 135.636 67.543 135.636C67.9896 135.636 68.3678 135.545 68.6777 135.362C68.9876 135.18 69.2588 134.936 69.4912 134.631L70.2568 135.239C70.0973 135.481 69.8945 135.711 69.6484 135.93C69.4023 136.148 69.0993 136.326 68.7393 136.463C68.3838 136.6 67.9622 136.668 67.4746 136.668ZM76.1904 135.267V131.459C76.1904 131.167 76.1312 130.914 76.0127 130.7C75.8988 130.481 75.7256 130.313 75.4932 130.194C75.2607 130.076 74.9736 130.017 74.6318 130.017C74.3128 130.017 74.0326 130.071 73.791 130.181C73.554 130.29 73.3672 130.434 73.2305 130.611C73.0983 130.789 73.0322 130.98 73.0322 131.186H71.7676C71.7676 130.921 71.8359 130.659 71.9727 130.399C72.1094 130.14 72.3053 129.905 72.5605 129.695C72.8203 129.481 73.1302 129.312 73.4902 129.189C73.8548 129.062 74.2604 128.998 74.707 128.998C75.2448 128.998 75.7188 129.089 76.1289 129.271C76.5436 129.454 76.8672 129.729 77.0996 130.099C77.3366 130.463 77.4551 130.921 77.4551 131.473V134.918C77.4551 135.164 77.4756 135.426 77.5166 135.704C77.5622 135.982 77.6283 136.221 77.7148 136.422V136.531H76.3955C76.3317 136.385 76.2816 136.192 76.2451 135.95C76.2087 135.704 76.1904 135.476 76.1904 135.267ZM76.4092 132.047L76.4229 132.936H75.1445C74.7845 132.936 74.4632 132.965 74.1807 133.024C73.8981 133.079 73.6611 133.163 73.4697 133.277C73.2783 133.391 73.1325 133.535 73.0322 133.708C72.932 133.877 72.8818 134.075 72.8818 134.303C72.8818 134.535 72.9342 134.747 73.0391 134.938C73.1439 135.13 73.3011 135.283 73.5107 135.396C73.7249 135.506 73.987 135.561 74.2969 135.561C74.6842 135.561 75.026 135.479 75.3223 135.314C75.6185 135.15 75.8532 134.95 76.0264 134.713C76.2041 134.476 76.2998 134.246 76.3135 134.022L76.8535 134.631C76.8216 134.822 76.735 135.034 76.5938 135.267C76.4525 135.499 76.2633 135.722 76.0264 135.937C75.7939 136.146 75.516 136.322 75.1924 136.463C74.8734 136.6 74.5133 136.668 74.1123 136.668C73.611 136.668 73.1712 136.57 72.793 136.374C72.4193 136.178 72.1276 135.916 71.918 135.588C71.7129 135.255 71.6104 134.884 71.6104 134.474C71.6104 134.077 71.6878 133.729 71.8428 133.428C71.9977 133.122 72.221 132.869 72.5127 132.669C72.8044 132.464 73.1553 132.309 73.5654 132.204C73.9756 132.099 74.4336 132.047 74.9395 132.047H76.4092ZM84.1064 135.096V126.031H85.3779V136.531H84.2158L84.1064 135.096ZM79.1299 132.915V132.771C79.1299 132.206 79.1982 131.694 79.335 131.233C79.4762 130.769 79.6745 130.37 79.9297 130.037C80.1895 129.704 80.4971 129.449 80.8525 129.271C81.2126 129.089 81.6136 128.998 82.0557 128.998C82.5205 128.998 82.9261 129.08 83.2725 129.244C83.6234 129.404 83.9196 129.638 84.1611 129.948C84.4072 130.254 84.6009 130.623 84.7422 131.056C84.8835 131.489 84.9814 131.979 85.0361 132.525V133.154C84.986 133.697 84.888 134.184 84.7422 134.617C84.6009 135.05 84.4072 135.419 84.1611 135.725C83.9196 136.03 83.6234 136.265 83.2725 136.429C82.9215 136.588 82.5114 136.668 82.042 136.668C81.609 136.668 81.2126 136.575 80.8525 136.388C80.4971 136.201 80.1895 135.939 79.9297 135.602C79.6745 135.264 79.4762 134.868 79.335 134.412C79.1982 133.952 79.1299 133.453 79.1299 132.915ZM80.4014 132.771V132.915C80.4014 133.284 80.4378 133.631 80.5107 133.954C80.5882 134.278 80.7067 134.562 80.8662 134.809C81.0257 135.055 81.2285 135.248 81.4746 135.39C81.7207 135.526 82.0146 135.595 82.3564 135.595C82.7757 135.595 83.1198 135.506 83.3887 135.328C83.6621 135.15 83.8809 134.916 84.0449 134.624C84.209 134.332 84.3366 134.016 84.4277 133.674V132.026C84.373 131.776 84.2933 131.534 84.1885 131.302C84.0882 131.065 83.9561 130.855 83.792 130.673C83.6325 130.486 83.4342 130.338 83.1973 130.229C82.9648 130.119 82.6891 130.064 82.3701 130.064C82.0238 130.064 81.7253 130.137 81.4746 130.283C81.2285 130.424 81.0257 130.62 80.8662 130.871C80.7067 131.117 80.5882 131.404 80.5107 131.732C80.4378 132.056 80.4014 132.402 80.4014 132.771ZM92.166 132.211L87.3057 130.317V129.012L93.1436 131.596V132.396L92.166 132.211ZM87.3057 133.879L92.1797 131.944L93.1436 131.801V132.594L87.3057 135.185V133.879ZM44.1846 157.938L48.9082 159.852V161.191L43.3164 158.601V157.814L44.1846 157.938ZM48.9082 156.365L44.1914 158.307L43.3164 158.402V157.609L48.9082 155.025V156.365ZM50.9043 152.031H52.1758V161.096L52.0664 162.531H50.9043V152.031ZM57.1729 158.771V158.915C57.1729 159.453 57.109 159.952 56.9814 160.412C56.8538 160.868 56.667 161.264 56.4209 161.602C56.1748 161.939 55.874 162.201 55.5186 162.388C55.1631 162.575 54.7552 162.668 54.2949 162.668C53.8255 162.668 53.4131 162.588 53.0576 162.429C52.7067 162.265 52.4105 162.03 52.1689 161.725C51.9274 161.419 51.7337 161.05 51.5879 160.617C51.4466 160.184 51.3486 159.697 51.2939 159.154V158.525C51.3486 157.979 51.4466 157.489 51.5879 157.056C51.7337 156.623 51.9274 156.254 52.1689 155.948C52.4105 155.638 52.7067 155.404 53.0576 155.244C53.4085 155.08 53.8164 154.998 54.2812 154.998C54.7461 154.998 55.1585 155.089 55.5186 155.271C55.8786 155.449 56.1794 155.704 56.4209 156.037C56.667 156.37 56.8538 156.769 56.9814 157.233C57.109 157.694 57.1729 158.206 57.1729 158.771ZM55.9014 158.915V158.771C55.9014 158.402 55.8672 158.056 55.7988 157.732C55.7305 157.404 55.6211 157.117 55.4707 156.871C55.3203 156.62 55.1221 156.424 54.876 156.283C54.6299 156.137 54.3268 156.064 53.9668 156.064C53.6478 156.064 53.3698 156.119 53.1328 156.229C52.9004 156.338 52.7021 156.486 52.5381 156.673C52.374 156.855 52.2396 157.065 52.1348 157.302C52.0345 157.534 51.9593 157.776 51.9092 158.026V159.674C51.9821 159.993 52.1006 160.3 52.2646 160.597C52.4333 160.888 52.6566 161.128 52.9346 161.314C53.2171 161.501 53.5658 161.595 53.9805 161.595C54.3223 161.595 54.6139 161.526 54.8555 161.39C55.1016 161.248 55.2998 161.055 55.4502 160.809C55.6051 160.562 55.7191 160.278 55.792 159.954C55.8649 159.631 55.9014 159.284 55.9014 158.915ZM58.4375 158.915V158.758C58.4375 158.225 58.515 157.73 58.6699 157.274C58.8249 156.814 59.0482 156.415 59.3398 156.078C59.6315 155.736 59.9847 155.472 60.3994 155.285C60.8141 155.094 61.279 154.998 61.7939 154.998C62.3135 154.998 62.7806 155.094 63.1953 155.285C63.6146 155.472 63.9701 155.736 64.2617 156.078C64.5579 156.415 64.7835 156.814 64.9385 157.274C65.0934 157.73 65.1709 158.225 65.1709 158.758V158.915C65.1709 159.448 65.0934 159.943 64.9385 160.398C64.7835 160.854 64.5579 161.253 64.2617 161.595C63.9701 161.932 63.6169 162.196 63.2021 162.388C62.792 162.575 62.3271 162.668 61.8076 162.668C61.2881 162.668 60.821 162.575 60.4062 162.388C59.9915 162.196 59.6361 161.932 59.3398 161.595C59.0482 161.253 58.8249 160.854 58.6699 160.398C58.515 159.943 58.4375 159.448 58.4375 158.915ZM59.7021 158.758V158.915C59.7021 159.284 59.7454 159.633 59.832 159.961C59.9186 160.285 60.0485 160.572 60.2217 160.822C60.3994 161.073 60.6204 161.271 60.8848 161.417C61.1491 161.558 61.4567 161.629 61.8076 161.629C62.154 161.629 62.457 161.558 62.7168 161.417C62.9811 161.271 63.1999 161.073 63.373 160.822C63.5462 160.572 63.6761 160.285 63.7627 159.961C63.8538 159.633 63.8994 159.284 63.8994 158.915V158.758C63.8994 158.393 63.8538 158.049 63.7627 157.726C63.6761 157.397 63.5439 157.108 63.3662 156.857C63.193 156.602 62.9743 156.402 62.71 156.256C62.4502 156.11 62.1449 156.037 61.7939 156.037C61.4476 156.037 61.1423 156.11 60.8779 156.256C60.6182 156.402 60.3994 156.602 60.2217 156.857C60.0485 157.108 59.9186 157.397 59.832 157.726C59.7454 158.049 59.7021 158.393 59.7021 158.758ZM71.4189 161.096V152.031H72.6904V162.531H71.5283L71.4189 161.096ZM66.4424 158.915V158.771C66.4424 158.206 66.5107 157.694 66.6475 157.233C66.7887 156.769 66.987 156.37 67.2422 156.037C67.502 155.704 67.8096 155.449 68.165 155.271C68.5251 155.089 68.9261 154.998 69.3682 154.998C69.833 154.998 70.2386 155.08 70.585 155.244C70.9359 155.404 71.2321 155.638 71.4736 155.948C71.7197 156.254 71.9134 156.623 72.0547 157.056C72.196 157.489 72.2939 157.979 72.3486 158.525V159.154C72.2985 159.697 72.2005 160.184 72.0547 160.617C71.9134 161.05 71.7197 161.419 71.4736 161.725C71.2321 162.03 70.9359 162.265 70.585 162.429C70.234 162.588 69.8239 162.668 69.3545 162.668C68.9215 162.668 68.5251 162.575 68.165 162.388C67.8096 162.201 67.502 161.939 67.2422 161.602C66.987 161.264 66.7887 160.868 66.6475 160.412C66.5107 159.952 66.4424 159.453 66.4424 158.915ZM67.7139 158.771V158.915C67.7139 159.284 67.7503 159.631 67.8232 159.954C67.9007 160.278 68.0192 160.562 68.1787 160.809C68.3382 161.055 68.541 161.248 68.7871 161.39C69.0332 161.526 69.3271 161.595 69.6689 161.595C70.0882 161.595 70.4323 161.506 70.7012 161.328C70.9746 161.15 71.1934 160.916 71.3574 160.624C71.5215 160.332 71.6491 160.016 71.7402 159.674V158.026C71.6855 157.776 71.6058 157.534 71.501 157.302C71.4007 157.065 71.2686 156.855 71.1045 156.673C70.945 156.486 70.7467 156.338 70.5098 156.229C70.2773 156.119 70.0016 156.064 69.6826 156.064C69.3363 156.064 69.0378 156.137 68.7871 156.283C68.541 156.424 68.3382 156.62 68.1787 156.871C68.0192 157.117 67.9007 157.404 67.8232 157.732C67.7503 158.056 67.7139 158.402 67.7139 158.771ZM76.7373 161.766L78.7949 155.135H80.1484L77.1816 163.673C77.1133 163.855 77.0221 164.051 76.9082 164.261C76.7988 164.475 76.6576 164.678 76.4844 164.869C76.3112 165.061 76.1016 165.215 75.8555 165.334C75.6139 165.457 75.3245 165.519 74.9873 165.519C74.887 165.519 74.7594 165.505 74.6045 165.478C74.4495 165.45 74.3402 165.427 74.2764 165.409L74.2695 164.384C74.306 164.388 74.363 164.393 74.4404 164.397C74.5225 164.407 74.5794 164.411 74.6113 164.411C74.8984 164.411 75.1423 164.372 75.3428 164.295C75.5433 164.222 75.7119 164.097 75.8486 163.919C75.9899 163.746 76.1107 163.507 76.2109 163.201L76.7373 161.766ZM75.2266 155.135L77.1475 160.877L77.4756 162.21L76.5664 162.675L73.8457 155.135H75.2266ZM86.1094 158.211L81.249 156.317V155.012L87.0869 157.596V158.396L86.1094 158.211ZM81.249 159.879L86.123 157.944L87.0869 157.801V158.594L81.249 161.185V159.879ZM114.294 204.578V214.531H112.981V205.658H108.073V214.531H106.754V204.578H114.294ZM117.76 208.557V217.375H116.488V207.135H117.65L117.76 208.557ZM122.743 210.771V210.915C122.743 211.453 122.679 211.952 122.552 212.412C122.424 212.868 122.237 213.264 121.991 213.602C121.75 213.939 121.451 214.201 121.096 214.388C120.74 214.575 120.332 214.668 119.872 214.668C119.403 214.668 118.988 214.59 118.628 214.436C118.268 214.281 117.963 214.055 117.712 213.759C117.461 213.463 117.261 213.107 117.11 212.692C116.965 212.278 116.864 211.811 116.81 211.291V210.525C116.864 209.979 116.967 209.489 117.117 209.056C117.268 208.623 117.466 208.254 117.712 207.948C117.963 207.638 118.266 207.404 118.621 207.244C118.977 207.08 119.387 206.998 119.852 206.998C120.316 206.998 120.729 207.089 121.089 207.271C121.449 207.449 121.752 207.704 121.998 208.037C122.244 208.37 122.429 208.769 122.552 209.233C122.679 209.694 122.743 210.206 122.743 210.771ZM121.472 210.915V210.771C121.472 210.402 121.433 210.056 121.355 209.732C121.278 209.404 121.157 209.117 120.993 208.871C120.834 208.62 120.629 208.424 120.378 208.283C120.127 208.137 119.829 208.064 119.482 208.064C119.163 208.064 118.885 208.119 118.648 208.229C118.416 208.338 118.218 208.486 118.054 208.673C117.89 208.855 117.755 209.065 117.65 209.302C117.55 209.534 117.475 209.776 117.425 210.026V211.797C117.516 212.116 117.644 212.417 117.808 212.699C117.972 212.977 118.19 213.203 118.464 213.376C118.737 213.545 119.081 213.629 119.496 213.629C119.838 213.629 120.132 213.558 120.378 213.417C120.629 213.271 120.834 213.073 120.993 212.822C121.157 212.572 121.278 212.285 121.355 211.961C121.433 211.633 121.472 211.284 121.472 210.915ZM125.724 212.528L129.135 207.135H130.406V214.531H129.135V209.138L125.724 214.531H124.466V207.135H125.724V212.528ZM135.909 211.277H133.482L133.469 210.266H135.451C135.843 210.266 136.169 210.227 136.429 210.149C136.693 210.072 136.891 209.956 137.023 209.801C137.156 209.646 137.222 209.454 137.222 209.227C137.222 209.049 137.183 208.894 137.105 208.762C137.033 208.625 136.921 208.513 136.771 208.427C136.62 208.336 136.433 208.27 136.21 208.229C135.991 208.183 135.734 208.16 135.438 208.16H133.817V214.531H132.553V207.135H135.438C135.907 207.135 136.328 207.176 136.702 207.258C137.08 207.34 137.402 207.465 137.666 207.634C137.935 207.798 138.14 208.007 138.281 208.263C138.423 208.518 138.493 208.819 138.493 209.165C138.493 209.388 138.448 209.6 138.356 209.801C138.265 210.001 138.131 210.179 137.953 210.334C137.775 210.489 137.557 210.617 137.297 210.717C137.037 210.812 136.739 210.874 136.401 210.901L135.909 211.277ZM135.909 214.531H133.024L133.653 213.506H135.909C136.26 213.506 136.552 213.463 136.784 213.376C137.017 213.285 137.19 213.157 137.304 212.993C137.422 212.825 137.481 212.624 137.481 212.392C137.481 212.159 137.422 211.961 137.304 211.797C137.19 211.628 137.017 211.501 136.784 211.414C136.552 211.323 136.26 211.277 135.909 211.277H133.988L134.002 210.266H136.401L136.859 210.648C137.265 210.68 137.609 210.781 137.892 210.949C138.174 211.118 138.388 211.332 138.534 211.592C138.68 211.847 138.753 212.125 138.753 212.426C138.753 212.772 138.687 213.077 138.555 213.342C138.427 213.606 138.24 213.827 137.994 214.005C137.748 214.178 137.45 214.31 137.099 214.401C136.748 214.488 136.351 214.531 135.909 214.531ZM143.518 214.668C143.003 214.668 142.535 214.581 142.116 214.408C141.701 214.23 141.344 213.982 141.043 213.663C140.747 213.344 140.519 212.966 140.359 212.528C140.2 212.091 140.12 211.612 140.12 211.093V210.806C140.12 210.204 140.209 209.669 140.387 209.199C140.564 208.725 140.806 208.324 141.111 207.996C141.417 207.668 141.763 207.42 142.15 207.251C142.538 207.082 142.939 206.998 143.354 206.998C143.882 206.998 144.338 207.089 144.721 207.271C145.108 207.454 145.425 207.709 145.671 208.037C145.917 208.361 146.099 208.743 146.218 209.186C146.336 209.623 146.396 210.102 146.396 210.621V211.188H140.872V210.156H145.131V210.061C145.113 209.732 145.044 209.413 144.926 209.104C144.812 208.794 144.63 208.538 144.379 208.338C144.128 208.137 143.786 208.037 143.354 208.037C143.066 208.037 142.802 208.099 142.561 208.222C142.319 208.34 142.112 208.518 141.938 208.755C141.765 208.992 141.631 209.281 141.535 209.623C141.439 209.965 141.392 210.359 141.392 210.806V211.093C141.392 211.444 141.439 211.774 141.535 212.084C141.635 212.389 141.779 212.658 141.966 212.891C142.157 213.123 142.387 213.305 142.656 213.438C142.93 213.57 143.24 213.636 143.586 213.636C144.033 213.636 144.411 213.545 144.721 213.362C145.031 213.18 145.302 212.936 145.534 212.631L146.3 213.239C146.14 213.481 145.938 213.711 145.691 213.93C145.445 214.148 145.142 214.326 144.782 214.463C144.427 214.6 144.005 214.668 143.518 214.668ZM150.805 207.135V214.531H149.533V207.135H150.805ZM153.286 207.135V208.16H147.1V207.135H153.286ZM155.679 213.027V214.046C155.679 214.461 155.574 214.898 155.364 215.358C155.155 215.823 154.861 216.211 154.482 216.521L153.765 216.021C153.91 215.821 154.034 215.616 154.134 215.406C154.234 215.201 154.309 214.987 154.359 214.764C154.414 214.545 154.441 214.312 154.441 214.066V213.027H155.679ZM162.262 211.004H163.629L161.489 214.531H160.122L162.262 211.004ZM163.321 207.135H166.411V214.531H165.146V208.16H163.321C162.961 208.16 162.667 208.222 162.439 208.345C162.212 208.463 162.045 208.618 161.94 208.81C161.836 209.001 161.783 209.199 161.783 209.404C161.783 209.605 161.831 209.799 161.927 209.985C162.022 210.168 162.173 210.318 162.378 210.437C162.583 210.555 162.847 210.614 163.171 210.614H165.488V211.653H163.171C162.747 211.653 162.371 211.596 162.043 211.482C161.715 211.368 161.437 211.211 161.209 211.011C160.981 210.806 160.808 210.566 160.689 210.293C160.571 210.015 160.512 209.714 160.512 209.391C160.512 209.067 160.573 208.769 160.696 208.495C160.824 208.222 161.006 207.982 161.243 207.777C161.485 207.572 161.779 207.415 162.125 207.306C162.476 207.192 162.875 207.135 163.321 207.135ZM174.553 209.78V210.819H171.217V209.78H174.553ZM182.223 213.629C182.523 213.629 182.801 213.567 183.057 213.444C183.312 213.321 183.521 213.153 183.686 212.938C183.85 212.72 183.943 212.471 183.966 212.193H185.169C185.146 212.631 184.998 213.039 184.725 213.417C184.456 213.791 184.103 214.094 183.665 214.326C183.228 214.554 182.747 214.668 182.223 214.668C181.667 214.668 181.181 214.57 180.767 214.374C180.356 214.178 180.015 213.909 179.741 213.567C179.472 213.226 179.27 212.834 179.133 212.392C179.001 211.945 178.935 211.473 178.935 210.977V210.689C178.935 210.193 179.001 209.723 179.133 209.281C179.27 208.835 179.472 208.44 179.741 208.099C180.015 207.757 180.356 207.488 180.767 207.292C181.181 207.096 181.667 206.998 182.223 206.998C182.801 206.998 183.307 207.117 183.74 207.354C184.173 207.586 184.513 207.905 184.759 208.311C185.009 208.712 185.146 209.167 185.169 209.678H183.966C183.943 209.372 183.856 209.097 183.706 208.851C183.56 208.604 183.36 208.409 183.104 208.263C182.854 208.112 182.56 208.037 182.223 208.037C181.835 208.037 181.509 208.115 181.245 208.27C180.985 208.42 180.778 208.625 180.623 208.885C180.473 209.14 180.363 209.425 180.295 209.739C180.231 210.049 180.199 210.366 180.199 210.689V210.977C180.199 211.3 180.231 211.619 180.295 211.934C180.359 212.248 180.466 212.533 180.616 212.788C180.771 213.043 180.979 213.248 181.238 213.403C181.503 213.554 181.831 213.629 182.223 213.629ZM187.965 207.135V214.531H186.7V207.135H187.965ZM192.818 207.135L189.312 211.373H187.541L187.35 210.266H188.799L191.28 207.135H192.818ZM191.458 214.531L188.737 211.182L189.551 210.266L193.064 214.531H191.458ZM195.43 208.557V217.375H194.158V207.135H195.32L195.43 208.557ZM200.413 210.771V210.915C200.413 211.453 200.349 211.952 200.222 212.412C200.094 212.868 199.907 213.264 199.661 213.602C199.42 213.939 199.121 214.201 198.766 214.388C198.41 214.575 198.002 214.668 197.542 214.668C197.073 214.668 196.658 214.59 196.298 214.436C195.938 214.281 195.632 214.055 195.382 213.759C195.131 213.463 194.931 213.107 194.78 212.692C194.634 212.278 194.534 211.811 194.479 211.291V210.525C194.534 209.979 194.637 209.489 194.787 209.056C194.938 208.623 195.136 208.254 195.382 207.948C195.632 207.638 195.936 207.404 196.291 207.244C196.646 207.08 197.057 206.998 197.521 206.998C197.986 206.998 198.399 207.089 198.759 207.271C199.119 207.449 199.422 207.704 199.668 208.037C199.914 208.37 200.099 208.769 200.222 209.233C200.349 209.694 200.413 210.206 200.413 210.771ZM199.142 210.915V210.771C199.142 210.402 199.103 210.056 199.025 209.732C198.948 209.404 198.827 209.117 198.663 208.871C198.504 208.62 198.299 208.424 198.048 208.283C197.797 208.137 197.499 208.064 197.152 208.064C196.833 208.064 196.555 208.119 196.318 208.229C196.086 208.338 195.888 208.486 195.724 208.673C195.56 208.855 195.425 209.065 195.32 209.302C195.22 209.534 195.145 209.776 195.095 210.026V211.797C195.186 212.116 195.313 212.417 195.478 212.699C195.642 212.977 195.86 213.203 196.134 213.376C196.407 213.545 196.751 213.629 197.166 213.629C197.508 213.629 197.802 213.558 198.048 213.417C198.299 213.271 198.504 213.073 198.663 212.822C198.827 212.572 198.948 212.285 199.025 211.961C199.103 211.633 199.142 211.284 199.142 210.915ZM203.394 212.528L206.805 207.135H208.076V214.531H206.805V209.138L203.394 214.531H202.136V207.135H203.394V212.528ZM215.035 207.135V208.181H211.296V207.135H215.035ZM211.48 207.135V214.531H210.216V207.135H211.48ZM216.156 207.135V214.531H214.885V207.135H216.156ZM221.201 207.135V214.531H219.93V207.135H221.201ZM223.683 207.135V208.16H217.496V207.135H223.683ZM232.262 210.628H229.603V209.555H232.262C232.777 209.555 233.194 209.473 233.513 209.309C233.832 209.145 234.064 208.917 234.21 208.625C234.36 208.333 234.436 208.001 234.436 207.627C234.436 207.285 234.36 206.964 234.21 206.663C234.064 206.362 233.832 206.121 233.513 205.938C233.194 205.752 232.777 205.658 232.262 205.658H229.91V214.531H228.591V204.578H232.262C233.014 204.578 233.649 204.708 234.169 204.968C234.688 205.228 235.083 205.588 235.352 206.048C235.62 206.504 235.755 207.025 235.755 207.613C235.755 208.251 235.62 208.796 235.352 209.247C235.083 209.698 234.688 210.042 234.169 210.279C233.649 210.512 233.014 210.628 232.262 210.628ZM243.924 208.857V209.931H238.537V208.857H243.924ZM238.742 204.578V214.531H237.423V204.578H238.742ZM245.072 204.578V214.531H243.76V204.578H245.072ZM251.088 210.628H248.429V209.555H251.088C251.603 209.555 252.02 209.473 252.339 209.309C252.658 209.145 252.89 208.917 253.036 208.625C253.187 208.333 253.262 208.001 253.262 207.627C253.262 207.285 253.187 206.964 253.036 206.663C252.89 206.362 252.658 206.121 252.339 205.938C252.02 205.752 251.603 205.658 251.088 205.658H248.736V214.531H247.417V204.578H251.088C251.84 204.578 252.476 204.708 252.995 204.968C253.515 205.228 253.909 205.588 254.178 206.048C254.447 206.504 254.581 207.025 254.581 207.613C254.581 208.251 254.447 208.796 254.178 209.247C253.909 209.698 253.515 210.042 252.995 210.279C252.476 210.512 251.84 210.628 251.088 210.628ZM257.562 204.578L257.473 211.722H256.331L256.235 204.578H257.562ZM256.194 213.896C256.194 213.69 256.256 213.517 256.379 213.376C256.507 213.235 256.693 213.164 256.939 213.164C257.181 213.164 257.366 213.235 257.493 213.376C257.625 213.517 257.691 213.69 257.691 213.896C257.691 214.091 257.625 214.26 257.493 214.401C257.366 214.543 257.181 214.613 256.939 214.613C256.693 214.613 256.507 214.543 256.379 214.401C256.256 214.26 256.194 214.091 256.194 213.896ZM47.6572 261.938L52.3809 263.852V265.191L46.7891 262.601V261.814L47.6572 261.938ZM52.3809 260.365L47.6641 262.307L46.7891 262.402V261.609L52.3809 259.025V260.365ZM58.7861 256.578L54.6367 267.386H53.5498L57.7061 256.578H58.7861ZM60.1602 256.031H61.4316V265.096L61.3223 266.531H60.1602V256.031ZM66.4287 262.771V262.915C66.4287 263.453 66.3649 263.952 66.2373 264.412C66.1097 264.868 65.9229 265.264 65.6768 265.602C65.4307 265.939 65.1299 266.201 64.7744 266.388C64.4189 266.575 64.0111 266.668 63.5508 266.668C63.0814 266.668 62.6689 266.588 62.3135 266.429C61.9626 266.265 61.6663 266.03 61.4248 265.725C61.1833 265.419 60.9896 265.05 60.8438 264.617C60.7025 264.184 60.6045 263.697 60.5498 263.154V262.525C60.6045 261.979 60.7025 261.489 60.8438 261.056C60.9896 260.623 61.1833 260.254 61.4248 259.948C61.6663 259.638 61.9626 259.404 62.3135 259.244C62.6644 259.08 63.0723 258.998 63.5371 258.998C64.002 258.998 64.4144 259.089 64.7744 259.271C65.1344 259.449 65.4352 259.704 65.6768 260.037C65.9229 260.37 66.1097 260.769 66.2373 261.233C66.3649 261.694 66.4287 262.206 66.4287 262.771ZM65.1572 262.915V262.771C65.1572 262.402 65.123 262.056 65.0547 261.732C64.9863 261.404 64.877 261.117 64.7266 260.871C64.5762 260.62 64.3779 260.424 64.1318 260.283C63.8857 260.137 63.5827 260.064 63.2227 260.064C62.9036 260.064 62.6257 260.119 62.3887 260.229C62.1562 260.338 61.958 260.486 61.7939 260.673C61.6299 260.855 61.4954 261.065 61.3906 261.302C61.2904 261.534 61.2152 261.776 61.165 262.026V263.674C61.238 263.993 61.3564 264.3 61.5205 264.597C61.6891 264.888 61.9124 265.128 62.1904 265.314C62.473 265.501 62.8216 265.595 63.2363 265.595C63.5781 265.595 63.8698 265.526 64.1113 265.39C64.3574 265.248 64.5557 265.055 64.7061 264.809C64.861 264.562 64.9749 264.278 65.0479 263.954C65.1208 263.631 65.1572 263.284 65.1572 262.915ZM67.6934 262.915V262.758C67.6934 262.225 67.7708 261.73 67.9258 261.274C68.0807 260.814 68.304 260.415 68.5957 260.078C68.8874 259.736 69.2406 259.472 69.6553 259.285C70.07 259.094 70.5348 258.998 71.0498 258.998C71.5693 258.998 72.0365 259.094 72.4512 259.285C72.8704 259.472 73.2259 259.736 73.5176 260.078C73.8138 260.415 74.0394 260.814 74.1943 261.274C74.3493 261.73 74.4268 262.225 74.4268 262.758V262.915C74.4268 263.448 74.3493 263.943 74.1943 264.398C74.0394 264.854 73.8138 265.253 73.5176 265.595C73.2259 265.932 72.8727 266.196 72.458 266.388C72.0479 266.575 71.583 266.668 71.0635 266.668C70.5439 266.668 70.0768 266.575 69.6621 266.388C69.2474 266.196 68.8919 265.932 68.5957 265.595C68.304 265.253 68.0807 264.854 67.9258 264.398C67.7708 263.943 67.6934 263.448 67.6934 262.915ZM68.958 262.758V262.915C68.958 263.284 69.0013 263.633 69.0879 263.961C69.1745 264.285 69.3044 264.572 69.4775 264.822C69.6553 265.073 69.8763 265.271 70.1406 265.417C70.4049 265.558 70.7126 265.629 71.0635 265.629C71.4098 265.629 71.7129 265.558 71.9727 265.417C72.237 265.271 72.4557 265.073 72.6289 264.822C72.8021 264.572 72.932 264.285 73.0186 263.961C73.1097 263.633 73.1553 263.284 73.1553 262.915V262.758C73.1553 262.393 73.1097 262.049 73.0186 261.726C72.932 261.397 72.7998 261.108 72.6221 260.857C72.4489 260.602 72.2301 260.402 71.9658 260.256C71.7061 260.11 71.4007 260.037 71.0498 260.037C70.7035 260.037 70.3981 260.11 70.1338 260.256C69.874 260.402 69.6553 260.602 69.4775 260.857C69.3044 261.108 69.1745 261.397 69.0879 261.726C69.0013 262.049 68.958 262.393 68.958 262.758ZM80.6748 265.096V256.031H81.9463V266.531H80.7842L80.6748 265.096ZM75.6982 262.915V262.771C75.6982 262.206 75.7666 261.694 75.9033 261.233C76.0446 260.769 76.2428 260.37 76.498 260.037C76.7578 259.704 77.0654 259.449 77.4209 259.271C77.7809 259.089 78.182 258.998 78.624 258.998C79.0889 258.998 79.4945 259.08 79.8408 259.244C80.1917 259.404 80.488 259.638 80.7295 259.948C80.9756 260.254 81.1693 260.623 81.3105 261.056C81.4518 261.489 81.5498 261.979 81.6045 262.525V263.154C81.5544 263.697 81.4564 264.184 81.3105 264.617C81.1693 265.05 80.9756 265.419 80.7295 265.725C80.488 266.03 80.1917 266.265 79.8408 266.429C79.4899 266.588 79.0798 266.668 78.6104 266.668C78.1774 266.668 77.7809 266.575 77.4209 266.388C77.0654 266.201 76.7578 265.939 76.498 265.602C76.2428 265.264 76.0446 264.868 75.9033 264.412C75.7666 263.952 75.6982 263.453 75.6982 262.915ZM76.9697 262.771V262.915C76.9697 263.284 77.0062 263.631 77.0791 263.954C77.1566 264.278 77.2751 264.562 77.4346 264.809C77.5941 265.055 77.7969 265.248 78.043 265.39C78.2891 265.526 78.583 265.595 78.9248 265.595C79.3441 265.595 79.6882 265.506 79.957 265.328C80.2305 265.15 80.4492 264.916 80.6133 264.624C80.7773 264.332 80.9049 264.016 80.9961 263.674V262.026C80.9414 261.776 80.8617 261.534 80.7568 261.302C80.6566 261.065 80.5244 260.855 80.3604 260.673C80.2008 260.486 80.0026 260.338 79.7656 260.229C79.5332 260.119 79.2575 260.064 78.9385 260.064C78.5921 260.064 78.2936 260.137 78.043 260.283C77.7969 260.424 77.5941 260.62 77.4346 260.871C77.2751 261.117 77.1566 261.404 77.0791 261.732C77.0062 262.056 76.9697 262.402 76.9697 262.771ZM85.9932 265.766L88.0508 259.135H89.4043L86.4375 267.673C86.3691 267.855 86.278 268.051 86.1641 268.261C86.0547 268.475 85.9134 268.678 85.7402 268.869C85.5671 269.061 85.3574 269.215 85.1113 269.334C84.8698 269.457 84.5804 269.519 84.2432 269.519C84.1429 269.519 84.0153 269.505 83.8604 269.478C83.7054 269.45 83.596 269.427 83.5322 269.409L83.5254 268.384C83.5618 268.388 83.6188 268.393 83.6963 268.397C83.7783 268.407 83.8353 268.411 83.8672 268.411C84.1543 268.411 84.3981 268.372 84.5986 268.295C84.7992 268.222 84.9678 268.097 85.1045 267.919C85.2458 267.746 85.3665 267.507 85.4668 267.201L85.9932 265.766ZM84.4824 259.135L86.4033 264.877L86.7314 266.21L85.8223 266.675L83.1016 259.135H84.4824ZM95.3652 262.211L90.5049 260.317V259.012L96.3428 261.596V262.396L95.3652 262.211ZM90.5049 263.879L95.3789 261.944L96.3428 261.801V262.594L90.5049 265.185V263.879Z" fill="#1FBD8A"/>
<path d="M19.876 53.9375L24.5996 55.8516V57.1914L19.0078 54.6006V53.8145L19.876 53.9375ZM24.5996 52.3652L19.8828 54.3066L19.0078 54.4023V53.6094L24.5996 51.0254V52.3652ZM27.8672 48.0312V58.5312H26.6025V48.0312H27.8672ZM27.5664 54.5527L27.04 54.5322C27.0446 54.0264 27.1198 53.5592 27.2656 53.1309C27.4115 52.6979 27.6165 52.3219 27.8809 52.0029C28.1452 51.6839 28.4596 51.4378 28.8242 51.2646C29.1934 51.0869 29.6012 50.998 30.0479 50.998C30.4124 50.998 30.7406 51.0482 31.0322 51.1484C31.3239 51.2441 31.5723 51.3991 31.7773 51.6133C31.987 51.8275 32.1465 52.1055 32.2559 52.4473C32.3652 52.7845 32.4199 53.1969 32.4199 53.6846V58.5312H31.1484V53.6709C31.1484 53.2835 31.0915 52.9736 30.9775 52.7412C30.8636 52.5042 30.6973 52.3333 30.4785 52.2285C30.2598 52.1191 29.9909 52.0645 29.6719 52.0645C29.3574 52.0645 29.0703 52.1305 28.8105 52.2627C28.5553 52.3949 28.3343 52.5771 28.1475 52.8096C27.9652 53.042 27.8216 53.3086 27.7168 53.6094C27.6165 53.9056 27.5664 54.2201 27.5664 54.5527ZM37.4102 51.1348V52.1055H33.4111V51.1348H37.4102ZM34.7646 49.3369H36.0293V56.6992C36.0293 56.9499 36.068 57.139 36.1455 57.2666C36.223 57.3942 36.3232 57.4785 36.4463 57.5195C36.5693 57.5605 36.7015 57.5811 36.8428 57.5811C36.9476 57.5811 37.057 57.5719 37.1709 57.5537C37.2894 57.5309 37.3783 57.5127 37.4375 57.499L37.4443 58.5312C37.3441 58.5632 37.2119 58.5928 37.0479 58.6201C36.8883 58.652 36.6947 58.668 36.4668 58.668C36.1569 58.668 35.8721 58.6064 35.6123 58.4834C35.3525 58.3604 35.1452 58.1553 34.9902 57.8682C34.8398 57.5765 34.7646 57.1846 34.7646 56.6924V49.3369ZM40.1514 52.6045V58.5312H38.8799V51.1348H40.083L40.1514 52.6045ZM39.8916 54.5527L39.3037 54.5322C39.3083 54.0264 39.3743 53.5592 39.502 53.1309C39.6296 52.6979 39.8187 52.3219 40.0693 52.0029C40.32 51.6839 40.6322 51.4378 41.0059 51.2646C41.3796 51.0869 41.8125 50.998 42.3047 50.998C42.651 50.998 42.9701 51.0482 43.2617 51.1484C43.5534 51.2441 43.8063 51.3968 44.0205 51.6064C44.2347 51.8161 44.401 52.085 44.5195 52.4131C44.638 52.7412 44.6973 53.1377 44.6973 53.6025V58.5312H43.4326V53.6641C43.4326 53.2767 43.3665 52.9668 43.2344 52.7344C43.1068 52.502 42.9245 52.3333 42.6875 52.2285C42.4505 52.1191 42.1725 52.0645 41.8535 52.0645C41.4798 52.0645 41.1676 52.1305 40.917 52.2627C40.6663 52.3949 40.4658 52.5771 40.3154 52.8096C40.165 53.042 40.0557 53.3086 39.9873 53.6094C39.9235 53.9056 39.8916 54.2201 39.8916 54.5527ZM44.6836 53.8555L43.8359 54.1152C43.8405 53.7096 43.9066 53.32 44.0342 52.9463C44.1663 52.5726 44.3555 52.2399 44.6016 51.9482C44.8522 51.6566 45.1598 51.4264 45.5244 51.2578C45.889 51.0846 46.306 50.998 46.7754 50.998C47.1719 50.998 47.5228 51.0505 47.8281 51.1553C48.138 51.2601 48.3978 51.4219 48.6074 51.6406C48.8216 51.8548 48.9834 52.1305 49.0928 52.4678C49.2021 52.805 49.2568 53.2061 49.2568 53.6709V58.5312H47.9854V53.6572C47.9854 53.2425 47.9193 52.9212 47.7871 52.6934C47.6595 52.4609 47.4772 52.2992 47.2402 52.208C47.0078 52.1123 46.7298 52.0645 46.4062 52.0645C46.1283 52.0645 45.8822 52.1123 45.668 52.208C45.4538 52.3037 45.2738 52.4359 45.1279 52.6045C44.9821 52.7686 44.8704 52.9577 44.793 53.1719C44.7201 53.3861 44.6836 53.6139 44.6836 53.8555ZM52.5449 48.0312V58.5312H51.2734V48.0312H52.5449ZM59.3945 54.2109L54.5342 52.3174V51.0117L60.3721 53.5957V54.3955L59.3945 54.2109ZM54.5342 55.8789L59.4082 53.9443L60.3721 53.8008V54.5938L54.5342 57.1846V55.8789ZM68.4932 105.938L73.2168 107.852V109.191L67.625 106.601V105.814L68.4932 105.938ZM73.2168 104.365L68.5 106.307L67.625 106.402V105.609L73.2168 103.025V104.365ZM78.3164 103.135V104.105H74.3174V103.135H78.3164ZM75.6709 101.337H76.9355V108.699C76.9355 108.95 76.9743 109.139 77.0518 109.267C77.1292 109.394 77.2295 109.479 77.3525 109.52C77.4756 109.561 77.6077 109.581 77.749 109.581C77.8538 109.581 77.9632 109.572 78.0771 109.554C78.1956 109.531 78.2845 109.513 78.3438 109.499L78.3506 110.531C78.2503 110.563 78.1182 110.593 77.9541 110.62C77.7946 110.652 77.6009 110.668 77.373 110.668C77.0632 110.668 76.7783 110.606 76.5186 110.483C76.2588 110.36 76.0514 110.155 75.8965 109.868C75.7461 109.576 75.6709 109.185 75.6709 108.692V101.337ZM81.1738 103.135V110.531H79.9023V103.135H81.1738ZM79.8066 101.173C79.8066 100.968 79.8682 100.795 79.9912 100.653C80.1188 100.512 80.3057 100.441 80.5518 100.441C80.7933 100.441 80.9779 100.512 81.1055 100.653C81.2376 100.795 81.3037 100.968 81.3037 101.173C81.3037 101.369 81.2376 101.537 81.1055 101.679C80.9779 101.815 80.7933 101.884 80.5518 101.884C80.3057 101.884 80.1188 101.815 79.9912 101.679C79.8682 101.537 79.8066 101.369 79.8066 101.173ZM86.3008 103.135V104.105H82.3018V103.135H86.3008ZM83.6553 101.337H84.9199V108.699C84.9199 108.95 84.9587 109.139 85.0361 109.267C85.1136 109.394 85.2139 109.479 85.3369 109.52C85.46 109.561 85.5921 109.581 85.7334 109.581C85.8382 109.581 85.9476 109.572 86.0615 109.554C86.18 109.531 86.2689 109.513 86.3281 109.499L86.335 110.531C86.2347 110.563 86.1025 110.593 85.9385 110.62C85.779 110.652 85.5853 110.668 85.3574 110.668C85.0475 110.668 84.7627 110.606 84.5029 110.483C84.2432 110.36 84.0358 110.155 83.8809 109.868C83.7305 109.576 83.6553 109.185 83.6553 108.692V101.337ZM89.1582 100.031V110.531H87.8867V100.031H89.1582ZM94.2578 110.668C93.7428 110.668 93.2757 110.581 92.8564 110.408C92.4417 110.23 92.084 109.982 91.7832 109.663C91.487 109.344 91.2591 108.966 91.0996 108.528C90.9401 108.091 90.8604 107.612 90.8604 107.093V106.806C90.8604 106.204 90.9492 105.669 91.127 105.199C91.3047 104.725 91.5462 104.324 91.8516 103.996C92.1569 103.668 92.5033 103.42 92.8906 103.251C93.278 103.082 93.679 102.998 94.0938 102.998C94.6224 102.998 95.0781 103.089 95.4609 103.271C95.8483 103.454 96.165 103.709 96.4111 104.037C96.6572 104.361 96.8395 104.743 96.958 105.186C97.0765 105.623 97.1357 106.102 97.1357 106.621V107.188H91.6123V106.156H95.8711V106.061C95.8529 105.732 95.7845 105.413 95.666 105.104C95.5521 104.794 95.3698 104.538 95.1191 104.338C94.8685 104.137 94.5267 104.037 94.0938 104.037C93.8066 104.037 93.5423 104.099 93.3008 104.222C93.0592 104.34 92.8519 104.518 92.6787 104.755C92.5055 104.992 92.3711 105.281 92.2754 105.623C92.1797 105.965 92.1318 106.359 92.1318 106.806V107.093C92.1318 107.444 92.1797 107.774 92.2754 108.084C92.3757 108.389 92.5192 108.658 92.7061 108.891C92.8975 109.123 93.1276 109.305 93.3965 109.438C93.6699 109.57 93.9798 109.636 94.3262 109.636C94.7728 109.636 95.151 109.545 95.4609 109.362C95.7708 109.18 96.042 108.936 96.2744 108.631L97.04 109.239C96.8805 109.481 96.6777 109.711 96.4316 109.93C96.1855 110.148 95.8825 110.326 95.5225 110.463C95.167 110.6 94.7454 110.668 94.2578 110.668ZM103.432 106.211L98.5713 104.317V103.012L104.409 105.596V106.396L103.432 106.211ZM98.5713 107.879L103.445 105.944L104.409 105.801V106.594L98.5713 109.185V107.879ZM157.948 105.938L162.672 107.852V109.191L157.08 106.601V105.814L157.948 105.938ZM162.672 104.365L157.955 106.307L157.08 106.402V105.609L162.672 103.025V104.365ZM169.077 100.578L164.928 111.386H163.841L167.997 100.578H169.077ZM173.555 103.135V104.105H169.556V103.135H173.555ZM170.909 101.337H172.174V108.699C172.174 108.95 172.213 109.139 172.29 109.267C172.368 109.394 172.468 109.479 172.591 109.52C172.714 109.561 172.846 109.581 172.987 109.581C173.092 109.581 173.201 109.572 173.315 109.554C173.434 109.531 173.523 109.513 173.582 109.499L173.589 110.531C173.489 110.563 173.356 110.593 173.192 110.62C173.033 110.652 172.839 110.668 172.611 110.668C172.301 110.668 172.017 110.606 171.757 110.483C171.497 110.36 171.29 110.155 171.135 109.868C170.984 109.576 170.909 109.185 170.909 108.692V101.337ZM176.412 103.135V110.531H175.141V103.135H176.412ZM175.045 101.173C175.045 100.968 175.106 100.795 175.229 100.653C175.357 100.512 175.544 100.441 175.79 100.441C176.032 100.441 176.216 100.512 176.344 100.653C176.476 100.795 176.542 100.968 176.542 101.173C176.542 101.369 176.476 101.537 176.344 101.679C176.216 101.815 176.032 101.884 175.79 101.884C175.544 101.884 175.357 101.815 175.229 101.679C175.106 101.537 175.045 101.369 175.045 101.173ZM181.539 103.135V104.105H177.54V103.135H181.539ZM178.894 101.337H180.158V108.699C180.158 108.95 180.197 109.139 180.274 109.267C180.352 109.394 180.452 109.479 180.575 109.52C180.698 109.561 180.83 109.581 180.972 109.581C181.076 109.581 181.186 109.572 181.3 109.554C181.418 109.531 181.507 109.513 181.566 109.499L181.573 110.531C181.473 110.563 181.341 110.593 181.177 110.62C181.017 110.652 180.824 110.668 180.596 110.668C180.286 110.668 180.001 110.606 179.741 110.483C179.481 110.36 179.274 110.155 179.119 109.868C178.969 109.576 178.894 109.185 178.894 108.692V101.337ZM184.396 100.031V110.531H183.125V100.031H184.396ZM189.496 110.668C188.981 110.668 188.514 110.581 188.095 110.408C187.68 110.23 187.322 109.982 187.021 109.663C186.725 109.344 186.497 108.966 186.338 108.528C186.178 108.091 186.099 107.612 186.099 107.093V106.806C186.099 106.204 186.188 105.669 186.365 105.199C186.543 104.725 186.785 104.324 187.09 103.996C187.395 103.668 187.742 103.42 188.129 103.251C188.516 103.082 188.917 102.998 189.332 102.998C189.861 102.998 190.316 103.089 190.699 103.271C191.087 103.454 191.403 103.709 191.649 104.037C191.896 104.361 192.078 104.743 192.196 105.186C192.315 105.623 192.374 106.102 192.374 106.621V107.188H186.851V106.156H191.109V106.061C191.091 105.732 191.023 105.413 190.904 105.104C190.79 104.794 190.608 104.538 190.357 104.338C190.107 104.137 189.765 104.037 189.332 104.037C189.045 104.037 188.781 104.099 188.539 104.222C188.298 104.34 188.09 104.518 187.917 104.755C187.744 104.992 187.609 105.281 187.514 105.623C187.418 105.965 187.37 106.359 187.37 106.806V107.093C187.37 107.444 187.418 107.774 187.514 108.084C187.614 108.389 187.757 108.658 187.944 108.891C188.136 109.123 188.366 109.305 188.635 109.438C188.908 109.57 189.218 109.636 189.564 109.636C190.011 109.636 190.389 109.545 190.699 109.362C191.009 109.18 191.28 108.936 191.513 108.631L192.278 109.239C192.119 109.481 191.916 109.711 191.67 109.93C191.424 110.148 191.121 110.326 190.761 110.463C190.405 110.6 189.984 110.668 189.496 110.668ZM198.67 106.211L193.81 104.317V103.012L199.647 105.596V106.396L198.67 106.211ZM193.81 107.879L198.684 105.944L199.647 105.801V106.594L193.81 109.185V107.879ZM68.4932 183.938L73.2168 185.852V187.191L67.625 184.601V183.814L68.4932 183.938ZM73.2168 182.365L68.5 184.307L67.625 184.402V183.609L73.2168 181.025V182.365ZM77.9678 185.729H76.6963C76.7008 185.291 76.7396 184.933 76.8125 184.655C76.89 184.373 77.0153 184.115 77.1885 183.883C77.3617 183.65 77.5918 183.386 77.8789 183.09C78.0885 182.876 78.2799 182.675 78.4531 182.488C78.6309 182.297 78.7744 182.092 78.8838 181.873C78.9932 181.65 79.0479 181.383 79.0479 181.073C79.0479 180.759 78.9909 180.488 78.877 180.26C78.7676 180.032 78.6035 179.856 78.3848 179.733C78.1706 179.61 77.904 179.549 77.585 179.549C77.3206 179.549 77.07 179.597 76.833 179.692C76.596 179.788 76.4046 179.936 76.2588 180.137C76.113 180.333 76.0378 180.59 76.0332 180.909H74.7686C74.7777 180.394 74.9053 179.952 75.1514 179.583C75.402 179.214 75.7393 178.931 76.1631 178.735C76.5869 178.539 77.0609 178.441 77.585 178.441C78.1637 178.441 78.6559 178.546 79.0615 178.756C79.4717 178.965 79.7839 179.266 79.998 179.658C80.2122 180.046 80.3193 180.506 80.3193 181.039C80.3193 181.449 80.235 181.827 80.0664 182.174C79.9023 182.516 79.6904 182.837 79.4307 183.138C79.1709 183.438 78.8952 183.726 78.6035 183.999C78.3529 184.231 78.1842 184.493 78.0977 184.785C78.0111 185.077 77.9678 185.391 77.9678 185.729ZM76.6416 187.896C76.6416 187.69 76.7054 187.517 76.833 187.376C76.9606 187.235 77.1452 187.164 77.3867 187.164C77.6328 187.164 77.8197 187.235 77.9473 187.376C78.0749 187.517 78.1387 187.69 78.1387 187.896C78.1387 188.091 78.0749 188.26 77.9473 188.401C77.8197 188.543 77.6328 188.613 77.3867 188.613C77.1452 188.613 76.9606 188.543 76.833 188.401C76.7054 188.26 76.6416 188.091 76.6416 187.896ZM83.1016 182.557V191.375H81.8301V181.135H82.9922L83.1016 182.557ZM88.085 184.771V184.915C88.085 185.453 88.0212 185.952 87.8936 186.412C87.766 186.868 87.5791 187.264 87.333 187.602C87.0915 187.939 86.793 188.201 86.4375 188.388C86.082 188.575 85.6742 188.668 85.2139 188.668C84.7445 188.668 84.3298 188.59 83.9697 188.436C83.6097 188.281 83.3044 188.055 83.0537 187.759C82.8031 187.463 82.6025 187.107 82.4521 186.692C82.3063 186.278 82.2061 185.811 82.1514 185.291V184.525C82.2061 183.979 82.3086 183.489 82.459 183.056C82.6094 182.623 82.8076 182.254 83.0537 181.948C83.3044 181.638 83.6074 181.404 83.9629 181.244C84.3184 181.08 84.7285 180.998 85.1934 180.998C85.6582 180.998 86.0706 181.089 86.4307 181.271C86.7907 181.449 87.0938 181.704 87.3398 182.037C87.5859 182.37 87.7705 182.769 87.8936 183.233C88.0212 183.694 88.085 184.206 88.085 184.771ZM86.8135 184.915V184.771C86.8135 184.402 86.7747 184.056 86.6973 183.732C86.6198 183.404 86.499 183.117 86.335 182.871C86.1755 182.62 85.9704 182.424 85.7197 182.283C85.4691 182.137 85.1706 182.064 84.8242 182.064C84.5052 182.064 84.2272 182.119 83.9902 182.229C83.7578 182.338 83.5596 182.486 83.3955 182.673C83.2314 182.855 83.097 183.065 82.9922 183.302C82.8919 183.534 82.8167 183.776 82.7666 184.026V185.797C82.8577 186.116 82.9854 186.417 83.1494 186.699C83.3135 186.977 83.5322 187.203 83.8057 187.376C84.0791 187.545 84.4232 187.629 84.8379 187.629C85.1797 187.629 85.4736 187.558 85.7197 187.417C85.9704 187.271 86.1755 187.073 86.335 186.822C86.499 186.572 86.6198 186.285 86.6973 185.961C86.7747 185.633 86.8135 185.284 86.8135 184.915ZM90.9629 178.031V188.531H89.6982V178.031H90.9629ZM90.6621 184.553L90.1357 184.532C90.1403 184.026 90.2155 183.559 90.3613 183.131C90.5072 182.698 90.7122 182.322 90.9766 182.003C91.2409 181.684 91.5553 181.438 91.9199 181.265C92.2891 181.087 92.6969 180.998 93.1436 180.998C93.5081 180.998 93.8363 181.048 94.1279 181.148C94.4196 181.244 94.668 181.399 94.873 181.613C95.0827 181.827 95.2422 182.105 95.3516 182.447C95.4609 182.785 95.5156 183.197 95.5156 183.685V188.531H94.2441V183.671C94.2441 183.284 94.1872 182.974 94.0732 182.741C93.9593 182.504 93.793 182.333 93.5742 182.229C93.3555 182.119 93.0866 182.064 92.7676 182.064C92.4531 182.064 92.166 182.131 91.9062 182.263C91.651 182.395 91.43 182.577 91.2432 182.81C91.0609 183.042 90.9173 183.309 90.8125 183.609C90.7122 183.906 90.6621 184.22 90.6621 184.553ZM98.6738 182.557V191.375H97.4023V181.135H98.5645L98.6738 182.557ZM103.657 184.771V184.915C103.657 185.453 103.593 185.952 103.466 186.412C103.338 186.868 103.151 187.264 102.905 187.602C102.664 187.939 102.365 188.201 102.01 188.388C101.654 188.575 101.246 188.668 100.786 188.668C100.317 188.668 99.902 188.59 99.542 188.436C99.182 188.281 98.8766 188.055 98.626 187.759C98.3753 187.463 98.1748 187.107 98.0244 186.692C97.8786 186.278 97.7783 185.811 97.7236 185.291V184.525C97.7783 183.979 97.8809 183.489 98.0312 183.056C98.1816 182.623 98.3799 182.254 98.626 181.948C98.8766 181.638 99.1797 181.404 99.5352 181.244C99.8906 181.08 100.301 180.998 100.766 180.998C101.23 180.998 101.643 181.089 102.003 181.271C102.363 181.449 102.666 181.704 102.912 182.037C103.158 182.37 103.343 182.769 103.466 183.233C103.593 183.694 103.657 184.206 103.657 184.771ZM102.386 184.915V184.771C102.386 184.402 102.347 184.056 102.27 183.732C102.192 183.404 102.071 183.117 101.907 182.871C101.748 182.62 101.543 182.424 101.292 182.283C101.041 182.137 100.743 182.064 100.396 182.064C100.077 182.064 99.7995 182.119 99.5625 182.229C99.3301 182.338 99.1318 182.486 98.9678 182.673C98.8037 182.855 98.6693 183.065 98.5645 183.302C98.4642 183.534 98.389 183.776 98.3389 184.026V185.797C98.43 186.116 98.5576 186.417 98.7217 186.699C98.8857 186.977 99.1045 187.203 99.3779 187.376C99.6514 187.545 99.9954 187.629 100.41 187.629C100.752 187.629 101.046 187.558 101.292 187.417C101.543 187.271 101.748 187.073 101.907 186.822C102.071 186.572 102.192 186.285 102.27 185.961C102.347 185.633 102.386 185.284 102.386 184.915ZM71.166 214.668C70.651 214.668 70.1839 214.581 69.7646 214.408C69.3499 214.23 68.9922 213.982 68.6914 213.663C68.3952 213.344 68.1673 212.966 68.0078 212.528C67.8483 212.091 67.7686 211.612 67.7686 211.093V210.806C67.7686 210.204 67.8574 209.669 68.0352 209.199C68.2129 208.725 68.4544 208.324 68.7598 207.996C69.0651 207.668 69.4115 207.42 69.7988 207.251C70.1862 207.082 70.5872 206.998 71.002 206.998C71.5306 206.998 71.9863 207.089 72.3691 207.271C72.7565 207.454 73.0732 207.709 73.3193 208.037C73.5654 208.361 73.7477 208.743 73.8662 209.186C73.9847 209.623 74.0439 210.102 74.0439 210.621V211.188H68.5205V210.156H72.7793V210.061C72.7611 209.732 72.6927 209.413 72.5742 209.104C72.4603 208.794 72.278 208.538 72.0273 208.338C71.7767 208.137 71.4349 208.037 71.002 208.037C70.7148 208.037 70.4505 208.099 70.209 208.222C69.9674 208.34 69.7601 208.518 69.5869 208.755C69.4137 208.992 69.2793 209.281 69.1836 209.623C69.0879 209.965 69.04 210.359 69.04 210.806V211.093C69.04 211.444 69.0879 211.774 69.1836 212.084C69.2839 212.389 69.4274 212.658 69.6143 212.891C69.8057 213.123 70.0358 213.305 70.3047 213.438C70.5781 213.57 70.888 213.636 71.2344 213.636C71.681 213.636 72.0592 213.545 72.3691 213.362C72.679 213.18 72.9502 212.936 73.1826 212.631L73.9482 213.239C73.7887 213.481 73.5859 213.711 73.3398 213.93C73.0938 214.148 72.7907 214.326 72.4307 214.463C72.0752 214.6 71.6536 214.668 71.166 214.668ZM78.4805 213.629C78.7812 213.629 79.0592 213.567 79.3145 213.444C79.5697 213.321 79.7793 213.153 79.9434 212.938C80.1074 212.72 80.2008 212.471 80.2236 212.193H81.4268C81.404 212.631 81.2559 213.039 80.9824 213.417C80.7135 213.791 80.3604 214.094 79.9229 214.326C79.4854 214.554 79.0046 214.668 78.4805 214.668C77.9245 214.668 77.4391 214.57 77.0244 214.374C76.6143 214.178 76.2725 213.909 75.999 213.567C75.7301 213.226 75.5273 212.834 75.3906 212.392C75.2585 211.945 75.1924 211.473 75.1924 210.977V210.689C75.1924 210.193 75.2585 209.723 75.3906 209.281C75.5273 208.835 75.7301 208.44 75.999 208.099C76.2725 207.757 76.6143 207.488 77.0244 207.292C77.4391 207.096 77.9245 206.998 78.4805 206.998C79.0592 206.998 79.5651 207.117 79.998 207.354C80.431 207.586 80.7705 207.905 81.0166 208.311C81.2673 208.712 81.404 209.167 81.4268 209.678H80.2236C80.2008 209.372 80.1143 209.097 79.9639 208.851C79.818 208.604 79.6175 208.409 79.3623 208.263C79.1117 208.112 78.8177 208.037 78.4805 208.037C78.0931 208.037 77.7673 208.115 77.5029 208.27C77.2432 208.42 77.0358 208.625 76.8809 208.885C76.7305 209.14 76.6211 209.425 76.5527 209.739C76.4889 210.049 76.457 210.366 76.457 210.689V210.977C76.457 211.3 76.4889 211.619 76.5527 211.934C76.6165 212.248 76.7236 212.533 76.874 212.788C77.029 213.043 77.2363 213.248 77.4961 213.403C77.7604 213.554 78.0885 213.629 78.4805 213.629ZM84.1133 204.031V214.531H82.8486V204.031H84.1133ZM83.8125 210.553L83.2861 210.532C83.2907 210.026 83.3659 209.559 83.5117 209.131C83.6576 208.698 83.8626 208.322 84.127 208.003C84.3913 207.684 84.7057 207.438 85.0703 207.265C85.4395 207.087 85.8473 206.998 86.2939 206.998C86.6585 206.998 86.9867 207.048 87.2783 207.148C87.57 207.244 87.8184 207.399 88.0234 207.613C88.2331 207.827 88.3926 208.105 88.502 208.447C88.6113 208.785 88.666 209.197 88.666 209.685V214.531H87.3945V209.671C87.3945 209.284 87.3376 208.974 87.2236 208.741C87.1097 208.504 86.9434 208.333 86.7246 208.229C86.5059 208.119 86.237 208.064 85.918 208.064C85.6035 208.064 85.3164 208.131 85.0566 208.263C84.8014 208.395 84.5804 208.577 84.3936 208.81C84.2113 209.042 84.0677 209.309 83.9629 209.609C83.8626 209.906 83.8125 210.22 83.8125 210.553ZM90.2246 210.915V210.758C90.2246 210.225 90.3021 209.73 90.457 209.274C90.612 208.814 90.8353 208.415 91.127 208.078C91.4186 207.736 91.7718 207.472 92.1865 207.285C92.6012 207.094 93.0661 206.998 93.5811 206.998C94.1006 206.998 94.5677 207.094 94.9824 207.285C95.4017 207.472 95.7572 207.736 96.0488 208.078C96.3451 208.415 96.5706 208.814 96.7256 209.274C96.8805 209.73 96.958 210.225 96.958 210.758V210.915C96.958 211.448 96.8805 211.943 96.7256 212.398C96.5706 212.854 96.3451 213.253 96.0488 213.595C95.7572 213.932 95.404 214.196 94.9893 214.388C94.5791 214.575 94.1143 214.668 93.5947 214.668C93.0752 214.668 92.6081 214.575 92.1934 214.388C91.7786 214.196 91.4232 213.932 91.127 213.595C90.8353 213.253 90.612 212.854 90.457 212.398C90.3021 211.943 90.2246 211.448 90.2246 210.915ZM91.4893 210.758V210.915C91.4893 211.284 91.5326 211.633 91.6191 211.961C91.7057 212.285 91.8356 212.572 92.0088 212.822C92.1865 213.073 92.4076 213.271 92.6719 213.417C92.9362 213.558 93.2438 213.629 93.5947 213.629C93.9411 213.629 94.2441 213.558 94.5039 213.417C94.7682 213.271 94.987 213.073 95.1602 212.822C95.3333 212.572 95.4632 212.285 95.5498 211.961C95.641 211.633 95.6865 211.284 95.6865 210.915V210.758C95.6865 210.393 95.641 210.049 95.5498 209.726C95.4632 209.397 95.3311 209.108 95.1533 208.857C94.9801 208.602 94.7614 208.402 94.4971 208.256C94.2373 208.11 93.932 208.037 93.5811 208.037C93.2347 208.037 92.9294 208.11 92.665 208.256C92.4053 208.402 92.1865 208.602 92.0088 208.857C91.8356 209.108 91.7057 209.397 91.6191 209.726C91.5326 210.049 91.4893 210.393 91.4893 210.758ZM102.953 204.031V204.961L102.748 207.401H101.989V205.022V204.031H102.953ZM104.799 204.031V204.961L104.594 207.401H103.835V204.975V204.031H104.799ZM260.604 204.031V204.961L260.398 207.401H259.64V205.022V204.031H260.604ZM262.449 204.031V204.961L262.244 207.401H261.485V204.975V204.031H262.449ZM263.939 207.825C263.939 207.611 264.006 207.431 264.138 207.285C264.274 207.135 264.47 207.06 264.726 207.06C264.981 207.06 265.174 207.135 265.307 207.285C265.443 207.431 265.512 207.611 265.512 207.825C265.512 208.035 265.443 208.213 265.307 208.358C265.174 208.504 264.981 208.577 264.726 208.577C264.47 208.577 264.274 208.504 264.138 208.358C264.006 208.213 263.939 208.035 263.939 207.825ZM265.382 213.027V214.046C265.382 214.461 265.277 214.898 265.067 215.358C264.858 215.823 264.564 216.211 264.186 216.521L263.468 216.021C263.614 215.821 263.737 215.616 263.837 215.406C263.937 215.201 264.012 214.987 264.062 214.764C264.117 214.545 264.145 214.312 264.145 214.066V213.027H265.382ZM70.8447 237.729H69.5732C69.5778 237.291 69.6165 236.933 69.6895 236.655C69.7669 236.373 69.8923 236.115 70.0654 235.883C70.2386 235.65 70.4688 235.386 70.7559 235.09C70.9655 234.876 71.1569 234.675 71.3301 234.488C71.5078 234.297 71.6514 234.092 71.7607 233.873C71.8701 233.65 71.9248 233.383 71.9248 233.073C71.9248 232.759 71.8678 232.488 71.7539 232.26C71.6445 232.032 71.4805 231.856 71.2617 231.733C71.0475 231.61 70.7809 231.549 70.4619 231.549C70.1976 231.549 69.9469 231.597 69.71 231.692C69.473 231.788 69.2816 231.936 69.1357 232.137C68.9899 232.333 68.9147 232.59 68.9102 232.909H67.6455C67.6546 232.394 67.7822 231.952 68.0283 231.583C68.279 231.214 68.6162 230.931 69.04 230.735C69.4639 230.539 69.9378 230.441 70.4619 230.441C71.0407 230.441 71.5329 230.546 71.9385 230.756C72.3486 230.965 72.6608 231.266 72.875 231.658C73.0892 232.046 73.1963 232.506 73.1963 233.039C73.1963 233.449 73.112 233.827 72.9434 234.174C72.7793 234.516 72.5674 234.837 72.3076 235.138C72.0479 235.438 71.7721 235.726 71.4805 235.999C71.2298 236.231 71.0612 236.493 70.9746 236.785C70.888 237.077 70.8447 237.391 70.8447 237.729ZM69.5186 239.896C69.5186 239.69 69.5824 239.517 69.71 239.376C69.8376 239.235 70.0221 239.164 70.2637 239.164C70.5098 239.164 70.6966 239.235 70.8242 239.376C70.9518 239.517 71.0156 239.69 71.0156 239.896C71.0156 240.091 70.9518 240.26 70.8242 240.401C70.6966 240.543 70.5098 240.613 70.2637 240.613C70.0221 240.613 69.8376 240.543 69.71 240.401C69.5824 240.26 69.5186 240.091 69.5186 239.896ZM79.5332 236.211L74.6729 234.317V233.012L80.5107 235.596V236.396L79.5332 236.211ZM74.6729 237.879L79.5469 235.944L80.5107 235.801V236.594L74.6729 239.185V237.879ZM19.876 287.938L24.5996 289.852V291.191L19.0078 288.601V287.814L19.876 287.938ZM24.5996 286.365L19.8828 288.307L19.0078 288.402V287.609L24.5996 285.025V286.365ZM31.0049 282.578L26.8555 293.386H25.7686L29.9248 282.578H31.0049ZM33.6504 282.031V292.531H32.3857V282.031H33.6504ZM33.3496 288.553L32.8232 288.532C32.8278 288.026 32.903 287.559 33.0488 287.131C33.1947 286.698 33.3997 286.322 33.6641 286.003C33.9284 285.684 34.2428 285.438 34.6074 285.265C34.9766 285.087 35.3844 284.998 35.8311 284.998C36.1956 284.998 36.5238 285.048 36.8154 285.148C37.1071 285.244 37.3555 285.399 37.5605 285.613C37.7702 285.827 37.9297 286.105 38.0391 286.447C38.1484 286.785 38.2031 287.197 38.2031 287.685V292.531H36.9316V287.671C36.9316 287.284 36.8747 286.974 36.7607 286.741C36.6468 286.504 36.4805 286.333 36.2617 286.229C36.043 286.119 35.7741 286.064 35.4551 286.064C35.1406 286.064 34.8535 286.131 34.5938 286.263C34.3385 286.395 34.1175 286.577 33.9307 286.81C33.7484 287.042 33.6048 287.309 33.5 287.609C33.3997 287.906 33.3496 288.22 33.3496 288.553ZM43.1934 285.135V286.105H39.1943V285.135H43.1934ZM40.5479 283.337H41.8125V290.699C41.8125 290.95 41.8512 291.139 41.9287 291.267C42.0062 291.394 42.1064 291.479 42.2295 291.52C42.3525 291.561 42.4847 291.581 42.626 291.581C42.7308 291.581 42.8402 291.572 42.9541 291.554C43.0726 291.531 43.1615 291.513 43.2207 291.499L43.2275 292.531C43.1273 292.563 42.9951 292.593 42.8311 292.62C42.6715 292.652 42.4779 292.668 42.25 292.668C41.9401 292.668 41.6553 292.606 41.3955 292.483C41.1357 292.36 40.9284 292.155 40.7734 291.868C40.623 291.576 40.5479 291.185 40.5479 290.692V283.337ZM45.9346 286.604V292.531H44.6631V285.135H45.8662L45.9346 286.604ZM45.6748 288.553L45.0869 288.532C45.0915 288.026 45.1576 287.559 45.2852 287.131C45.4128 286.698 45.6019 286.322 45.8525 286.003C46.1032 285.684 46.4154 285.438 46.7891 285.265C47.1628 285.087 47.5957 284.998 48.0879 284.998C48.4342 284.998 48.7533 285.048 49.0449 285.148C49.3366 285.244 49.5895 285.397 49.8037 285.606C50.0179 285.816 50.1842 286.085 50.3027 286.413C50.4212 286.741 50.4805 287.138 50.4805 287.603V292.531H49.2158V287.664C49.2158 287.277 49.1497 286.967 49.0176 286.734C48.89 286.502 48.7077 286.333 48.4707 286.229C48.2337 286.119 47.9557 286.064 47.6367 286.064C47.263 286.064 46.9508 286.131 46.7002 286.263C46.4495 286.395 46.249 286.577 46.0986 286.81C45.9482 287.042 45.8389 287.309 45.7705 287.609C45.7067 287.906 45.6748 288.22 45.6748 288.553ZM50.4668 287.855L49.6191 288.115C49.6237 287.71 49.6898 287.32 49.8174 286.946C49.9495 286.573 50.1387 286.24 50.3848 285.948C50.6354 285.657 50.943 285.426 51.3076 285.258C51.6722 285.085 52.0892 284.998 52.5586 284.998C52.9551 284.998 53.306 285.05 53.6113 285.155C53.9212 285.26 54.181 285.422 54.3906 285.641C54.6048 285.855 54.7666 286.131 54.876 286.468C54.9854 286.805 55.04 287.206 55.04 287.671V292.531H53.7686V287.657C53.7686 287.243 53.7025 286.921 53.5703 286.693C53.4427 286.461 53.2604 286.299 53.0234 286.208C52.791 286.112 52.513 286.064 52.1895 286.064C51.9115 286.064 51.6654 286.112 51.4512 286.208C51.237 286.304 51.057 286.436 50.9111 286.604C50.7653 286.769 50.6536 286.958 50.5762 287.172C50.5033 287.386 50.4668 287.614 50.4668 287.855ZM58.3281 282.031V292.531H57.0566V282.031H58.3281ZM65.1777 288.211L60.3174 286.317V285.012L66.1553 287.596V288.396L65.1777 288.211ZM60.3174 289.879L65.1914 287.944L66.1553 287.801V288.594L60.3174 291.185V289.879Z" fill="white"/>
</g>
<defs>
<filter id="filter0_d_2_114" x="-50" y="-20" width="543" height="485" filterUnits="userSpaceOnUse" color-interpolation-filters="sRGB">
<feFlood flood-opacity="0" result="BackgroundImageFix"/>
<feColorMatrix in="SourceAlpha" type="matrix" values="0 0 0 0 0 0 0 0 0 0 0 0 0 0 0 0 0 0 127 0" result="hardAlpha"/>
<feOffset dy="30"/>
<feGaussianBlur stdDeviation="25"/>
<feColorMatrix type="matrix" values="0 0 0 0 0.0235294 0 0 0 0 0.0901961 0 0 0 0 0.0352941 0 0 0 0.35 0"/>
<feBlend mode="normal" in2="BackgroundImageFix" result="effect1_dropShadow_2_114"/>
<feBlend mode="normal" in="SourceGraphic" in2="effect1_dropShadow_2_114" result="shape"/>
</filter>
<clipPath id="clip0_2_114">
<rect width="443" height="326" fill="white"/>
</clipPath>
</defs>
</svg>
