<svg width="18" height="18" viewBox="0 0 18 18" fill="none" xmlns="http://www.w3.org/2000/svg">
<path fill-rule="evenodd" clip-rule="evenodd" d="M8.196 13.474C7.29136 13.3064 6.45876 12.8686 5.80803 12.2182C5.1573 11.5679 4.71902 10.7355 4.551 9.83097C4.53823 9.78522 4.51336 9.74376 4.479 9.71097C4.45062 9.68265 4.41643 9.66083 4.37879 9.64702C4.34115 9.63321 4.30096 9.62773 4.261 9.63097L4.191 9.63897L2.623 9.84597C2.24051 9.93308 1.883 10.1065 1.57781 10.353C1.27262 10.5994 1.02782 10.9124 0.862143 11.268C0.696462 11.6236 0.614281 12.0124 0.621882 12.4046C0.629483 12.7968 0.726666 13.1821 0.906001 13.531L0.966 13.635C1.444 14.433 2.229 14.892 3.103 14.925C3.12591 15.5488 3.37489 16.143 3.80354 16.5967C4.23219 17.0505 4.81124 17.3329 5.43273 17.3913C6.05422 17.4497 6.67573 17.2801 7.18139 16.914C7.68704 16.548 8.04233 16.0106 8.181 15.402L8.387 13.836L8.395 13.766C8.39804 13.726 8.39247 13.6859 8.37866 13.6483C8.36486 13.6107 8.34315 13.5765 8.315 13.548C8.28374 13.5118 8.24224 13.486 8.196 13.474ZM4.551 8.17397C4.71852 7.26933 5.15635 6.43673 5.80672 5.786C6.45709 5.13527 7.28945 4.69698 8.194 4.52897C8.23975 4.5162 8.2812 4.49132 8.314 4.45697C8.374 4.39697 8.401 4.31697 8.395 4.23897L8.387 4.16897L8.179 2.60097C8.09188 2.21847 7.91846 1.86097 7.67199 1.55578C7.42552 1.25058 7.11253 1.00579 6.75695 0.840109C6.40136 0.674428 6.01261 0.592247 5.62039 0.599848C5.22818 0.60745 4.8429 0.704632 4.494 0.883967L4.39 0.943967C3.592 1.42197 3.133 2.20697 3.101 3.08097C2.47712 3.10366 1.8828 3.3525 1.42885 3.78107C0.974908 4.20964 0.692336 4.78868 0.63383 5.41023C0.575323 6.03177 0.744876 6.65337 1.11087 7.15912C1.47687 7.66488 2.01432 8.02025 2.623 8.15897L4.189 8.36397L4.259 8.37297C4.29895 8.376 4.33908 8.37043 4.37668 8.35663C4.41429 8.34283 4.4485 8.32112 4.477 8.29297C4.51315 8.26171 4.53895 8.22021 4.551 8.17397ZM13.496 8.17397C13.3285 7.26933 12.8907 6.43673 12.2403 5.786C11.5899 5.13527 10.7575 4.69698 9.853 4.52897C9.80725 4.5162 9.7658 4.49132 9.733 4.45697C9.70463 4.42862 9.68277 4.39444 9.66896 4.35679C9.65514 4.31914 9.6497 4.27893 9.653 4.23897L9.661 4.16897L9.868 2.60097C9.95512 2.21847 10.1285 1.86097 10.375 1.55578C10.6215 1.25058 10.9345 1.00579 11.2901 0.840109C11.6456 0.674428 12.0344 0.592247 12.4266 0.599848C12.8188 0.60745 13.2041 0.704632 13.553 0.883967L13.657 0.943967C14.455 1.42197 14.915 2.20697 14.947 3.08097C15.5709 3.10366 16.1652 3.3525 16.6191 3.78107C17.0731 4.20964 17.3557 4.78868 17.4142 5.41023C17.4727 6.03177 17.3031 6.65337 16.9371 7.15912C16.5711 7.66488 16.0337 8.02025 15.425 8.15897L13.858 8.36397L13.788 8.37297C13.7481 8.376 13.7079 8.37043 13.6703 8.35663C13.6327 8.34283 13.5985 8.32112 13.57 8.29297C13.5339 8.26171 13.508 8.22021 13.496 8.17397ZM9.851 13.474C10.7556 13.3064 11.5882 12.8686 12.239 12.2182C12.8897 11.5679 13.328 10.7355 13.496 9.83097C13.5088 9.78522 13.5336 9.74376 13.568 9.71097C13.628 9.65097 13.708 9.62397 13.786 9.63097L13.856 9.63897L15.425 9.84597C15.8075 9.93308 16.165 10.1065 16.4702 10.353C16.7754 10.5994 17.0202 10.9124 17.1859 11.268C17.3515 11.6236 17.4337 12.0124 17.4261 12.4046C17.4185 12.7968 17.3213 13.1821 17.142 13.531L17.082 13.635C16.604 14.433 15.818 14.892 14.944 14.925C14.9211 15.5488 14.6721 16.143 14.2435 16.5967C13.8148 17.0505 13.2358 17.3329 12.6143 17.3913C11.9928 17.4497 11.3713 17.2801 10.8656 16.914C10.36 16.548 10.0047 16.0106 9.866 15.402L9.661 13.836L9.652 13.766C9.64896 13.726 9.65454 13.6859 9.66834 13.6483C9.68214 13.6107 9.70385 13.5765 9.732 13.548C9.76353 13.5117 9.8054 13.4858 9.852 13.474H9.851Z" fill="#00CA90"/>
</svg>
