<svg width="84" height="84" viewBox="0 0 84 84" fill="none" xmlns="http://www.w3.org/2000/svg">
<path d="M41.8079 83.3509C64.7304 83.3509 83.3128 64.7847 83.3128 41.8822C83.3128 18.9797 64.7304 0.413574 41.8079 0.413574C18.8854 0.413574 0.302979 18.9797 0.302979 41.8822C0.302979 64.7847 18.8854 83.3509 41.8079 83.3509Z" fill="white"/>
<path d="M29.5506 49.2316L32.3344 43.8677L36.0454 45.6563L31.4061 34.9285H19.3438L23.0548 38.5048L19.6773 45.0109C18.6717 46.9502 20.1354 49.2316 22.3848 49.2316H36.0454V59.9595H31.5398C29.7114 59.9595 28.0025 59.0963 26.9617 57.6499L20.2711 48.3383" stroke="#00CA90" stroke-width="2" stroke-linecap="round" stroke-linejoin="round"/>
<path d="M43.0054 25.7152L38.6564 31.7988L29.0875 26.5844L32.8126 21.622C34.8289 18.936 38.8875 19.0193 40.7912 21.7866L46.4853 30.0614L43.0054 31.7988L52.5743 33.5373L56.9242 23.1075L53.4443 24.846L50.9981 21.1803C50.3531 20.2117 49.2651 19.6316 48.1038 19.6316H37.7864" stroke="#00CA90" stroke-width="2" stroke-linecap="round" stroke-linejoin="round"/>
<path d="M50.4314 60.4311H53.0826C54.911 60.4311 56.6218 59.5358 57.6626 58.0342L64.3563 48.3733" stroke="#00CA90" stroke-width="2" stroke-linecap="round" stroke-linejoin="round"/>
<path d="M56.9292 49.3008L52.288 41.8812L60.6433 37.2429L64.95 44.9215C65.9567 46.9339 64.4919 49.3008 62.2416 49.3008H50.4314" stroke="#00CA90" stroke-width="2" stroke-linecap="round" stroke-linejoin="round"/>
<path d="M50.4294 60.4312V64.141L43.0024 55.793L50.4294 45.5911V49.3009" stroke="#00CA90" stroke-width="2" stroke-linecap="round" stroke-linejoin="round"/>
</svg>
