<svg width="49" height="50" viewBox="0 0 49 50" fill="none" xmlns="http://www.w3.org/2000/svg">
<path d="M24.4642 49.9174C37.8823 49.9174 48.7598 38.8231 48.7598 25.1374C48.7598 11.4518 37.8823 0.357422 24.4642 0.357422C11.0462 0.357422 0.168671 11.4518 0.168671 25.1374C0.168671 38.8231 11.0462 49.9174 24.4642 49.9174Z" fill="white"/>
<path d="M28.483 22.832C29.2151 21.1035 28.8824 19.0318 27.4718 17.6236C25.6156 15.7687 22.6066 15.7687 20.7504 17.6236C19.3398 19.0318 19.0071 21.1035 19.739 22.832" stroke="#00CA90" stroke-width="2" stroke-linecap="round" stroke-linejoin="round"/>
<path d="M19.9508 26.3237L24.1101 28.1053L26.4868 32.854L30.0519 28.1053" stroke="#00CA90" stroke-width="2" stroke-linecap="round" stroke-linejoin="round"/>
<path d="M13.4169 38.7911L15.7936 36.4163V34.0414L18.1703 31.6676V29.2928L20.5471 24.5431L21.7355 22.1683L24.1122 19.7935L30.054 28.1054L32.4308 29.2928L34.8076 30.4802L35.9959 34.0414L39.561 38.7911" stroke="#00CA90" stroke-width="2" stroke-linecap="round" stroke-linejoin="round"/>
<path d="M24.1144 11.4827V13.8575" stroke="#00CA90" stroke-width="2" stroke-linecap="round" stroke-linejoin="round"/>
<path d="M19.3621 12.7554L20.5506 14.812" stroke="#00CA90" stroke-width="2" stroke-linecap="round" stroke-linejoin="round"/>
<path d="M15.8813 16.2324L17.9396 17.4198" stroke="#00CA90" stroke-width="2" stroke-linecap="round" stroke-linejoin="round"/>
<path d="M30.2872 24.5432L32.3456 25.7306" stroke="#00CA90" stroke-width="2" stroke-linecap="round" stroke-linejoin="round"/>
<path d="M14.606 20.981H16.9827" stroke="#00CA90" stroke-width="2" stroke-linecap="round" stroke-linejoin="round"/>
<path d="M31.2409 20.981H33.6176" stroke="#00CA90" stroke-width="2" stroke-linecap="round" stroke-linejoin="round"/>
<path d="M15.8813 25.7306L17.9396 24.5432" stroke="#00CA90" stroke-width="2" stroke-linecap="round" stroke-linejoin="round"/>
<path d="M30.2872 17.4198L32.3456 16.2324" stroke="#00CA90" stroke-width="2" stroke-linecap="round" stroke-linejoin="round"/>
<path d="M27.6816 14.812L28.8699 12.7554" stroke="#00CA90" stroke-width="2" stroke-linecap="round" stroke-linejoin="round"/>
</svg>
