<svg width="57" height="57" viewBox="0 0 57 57" fill="none" xmlns="http://www.w3.org/2000/svg">
<path d="M28.4107 56.7058C43.7855 56.7058 56.2493 44.0265 56.2493 28.3857C56.2493 12.745 43.7855 0.0656738 28.4107 0.0656738C13.0359 0.0656738 0.572083 12.745 0.572083 28.3857C0.572083 44.0265 13.0359 56.7058 28.4107 56.7058Z" fill="white"/>
<path fill-rule="evenodd" clip-rule="evenodd" d="M11.697 27.1542L18.9593 19.8982L26.2216 25.7028L24.769 27.1542H11.697Z" stroke="#00CA90" stroke-width="2" stroke-linecap="round" stroke-linejoin="round"/>
<path d="M18.9563 19.8982H29.1239V22.801L26.2186 25.7028" stroke="#00CA90" stroke-width="2" stroke-linecap="round" stroke-linejoin="round"/>
<path fill-rule="evenodd" clip-rule="evenodd" d="M27.6754 44.5688L20.413 37.3129L26.2226 30.0569L27.6754 31.5083V44.5688Z" stroke="#00CA90" stroke-width="2" stroke-linecap="round" stroke-linejoin="round"/>
<path d="M20.413 37.3131V27.1543H23.3173L26.2226 30.0571" stroke="#00CA90" stroke-width="2" stroke-linecap="round" stroke-linejoin="round"/>
<path fill-rule="evenodd" clip-rule="evenodd" d="M45.1012 28.6055L37.8389 35.8614L30.5766 30.0569L32.0292 28.6055H45.1012Z" stroke="#00CA90" stroke-width="2" stroke-linecap="round" stroke-linejoin="round"/>
<path d="M37.8399 35.8614H27.6722V32.9587L30.5776 30.0569" stroke="#00CA90" stroke-width="2" stroke-linecap="round" stroke-linejoin="round"/>
<path fill-rule="evenodd" clip-rule="evenodd" d="M29.1249 11.1919L36.3862 18.4479L30.5766 25.7028L29.1249 24.2524V11.1919Z" stroke="#00CA90" stroke-width="2" stroke-linecap="round" stroke-linejoin="round"/>
<path d="M36.3862 18.4478V28.6055H33.4809L30.5766 25.7037" stroke="#00CA90" stroke-width="2" stroke-linecap="round" stroke-linejoin="round"/>
</svg>
