<svg width="50" height="51" viewBox="0 0 50 51" fill="none" xmlns="http://www.w3.org/2000/svg">
<path d="M24.8894 50.2651C38.3074 50.2651 49.1849 39.1707 49.1849 25.4851C49.1849 11.7995 38.3074 0.705078 24.8894 0.705078C11.4713 0.705078 0.593811 11.7995 0.593811 25.4851C0.593811 39.1707 11.4713 50.2651 24.8894 50.2651Z" fill="white"/>
<path fill-rule="evenodd" clip-rule="evenodd" d="M20.8298 22.7569C19.2113 24.3729 16.5903 24.3729 14.9729 22.7569C13.3555 21.1408 13.3555 18.5211 14.9729 16.9051C16.5903 15.2891 19.6554 13.8538 23.8828 13.8538C21.7349 15.9997 22.4472 21.1408 20.8298 22.7569Z" stroke="#00CA90" stroke-width="2" stroke-linecap="round" stroke-linejoin="round"/>
<path d="M18.8216 17.8999C14.7087 22.0082 14.772 27.0027 14.772 27.0027C14.772 32.3968 17.8933 37.1174 24.8954 37.1174C31.8975 37.1174 32.9936 31.0488 32.9936 31.0488" stroke="#00CA90" stroke-width="2" stroke-linecap="round" stroke-linejoin="round"/>
<path fill-rule="evenodd" clip-rule="evenodd" d="M29.9556 24.9802V28.0145C29.9556 29.6907 31.3149 31.0488 32.9925 31.0488C34.6692 31.0488 36.0295 29.6907 36.0295 28.0145V24.9802H29.9556Z" stroke="#00CA90" stroke-width="2" stroke-linecap="round" stroke-linejoin="round"/>
<path d="M30.9713 20.9341V24.9801" stroke="#00CA90" stroke-width="2" stroke-linecap="round" stroke-linejoin="round"/>
<path d="M35.0178 20.9341V24.9801" stroke="#00CA90" stroke-width="2" stroke-linecap="round" stroke-linejoin="round"/>
</svg>
