<svg width="49" height="49" viewBox="0 0 49 49" fill="none" xmlns="http://www.w3.org/2000/svg">
<path d="M24.4907 48.4604C37.6292 48.4604 48.2801 37.8189 48.2801 24.6919C48.2801 11.5649 37.6292 0.92334 24.4907 0.92334C11.3522 0.92334 0.701416 11.5649 0.701416 24.6919C0.701416 37.8189 11.3522 48.4604 24.4907 48.4604Z" fill="white"/>
<path fill-rule="evenodd" clip-rule="evenodd" d="M21.1946 25.8412L16.2559 11.0371L9.81342 30.3459H19.6907L21.1946 25.8412Z" stroke="#00CA90" stroke-width="2" stroke-linecap="round" stroke-linejoin="round"/>
<path fill-rule="evenodd" clip-rule="evenodd" d="M28.2781 30.3469H38.1564L31.7139 11.0371L26.7742 25.8411L28.2781 30.3469Z" stroke="#00CA90" stroke-width="2" stroke-linecap="round" stroke-linejoin="round"/>
<path d="M23.9844 34.2083V40.6442" stroke="#00CA90" stroke-width="2" stroke-linecap="round" stroke-linejoin="round"/>
<path d="M31.7148 27.7725V34.2084" stroke="#00CA90" stroke-width="2" stroke-linecap="round" stroke-linejoin="round"/>
<path d="M16.2529 27.7725V34.2084" stroke="#00CA90" stroke-width="2" stroke-linecap="round" stroke-linejoin="round"/>
<path fill-rule="evenodd" clip-rule="evenodd" d="M17.5409 36.7829L23.9824 17.4741L30.4249 36.7829H17.5409Z" stroke="#00CA90" stroke-width="2" stroke-linecap="round" stroke-linejoin="round"/>
</svg>
