<svg width="33" height="32" viewBox="0 0 33 32" fill="none" xmlns="http://www.w3.org/2000/svg">
<path d="M16.3102 31.6764C25.0585 31.6764 32.1504 24.6031 32.1504 15.8778C32.1504 7.15256 25.0585 0.0793457 16.3102 0.0793457C7.56185 0.0793457 0.46991 7.15256 0.46991 15.8778C0.46991 24.6031 7.56185 31.6764 16.3102 31.6764Z" fill="white"/>
<path fill-rule="evenodd" clip-rule="evenodd" d="M19.9529 17.4888C19.9529 18.9783 18.5927 20.1858 16.916 20.1858C15.2383 20.1858 13.879 18.9783 13.879 17.4888C13.879 15.9992 16.916 12.0947 16.916 12.0947C16.916 12.0947 19.9529 15.9992 19.9529 17.4888Z" stroke="#00CA90" stroke-width="2" stroke-linecap="round" stroke-linejoin="round"/>
<path fill-rule="evenodd" clip-rule="evenodd" d="M26.0217 16.1409C26.0217 21.1686 21.943 25.2437 16.9109 25.2437C11.8788 25.2437 7.80011 21.1686 7.80011 16.1409C7.80011 11.1132 11.8788 7.03809 16.9109 7.03809C21.943 7.03809 26.0217 11.1132 26.0217 16.1409Z" stroke="#00CA90" stroke-width="2" stroke-linecap="round" stroke-linejoin="round"/>
<path d="M5.77887 18.1634L7.80414 15.1292L10.3347 17.6575" stroke="#00CA90" stroke-width="2" stroke-linecap="round" stroke-linejoin="round"/>
<path d="M23.4971 14.6231L26.0278 17.1515L28.053 14.1172" stroke="#00CA90" stroke-width="2" stroke-linecap="round" stroke-linejoin="round"/>
</svg>
