<svg width="41" height="41" viewBox="0 0 41 41" fill="none" xmlns="http://www.w3.org/2000/svg">
<path d="M20.5183 40.5231C31.7 40.5231 40.7646 31.4665 40.7646 20.2945C40.7646 9.12256 31.7 0.065918 20.5183 0.065918C9.33661 0.065918 0.272034 9.12256 0.272034 20.2945C0.272034 31.4665 9.33661 40.5231 20.5183 40.5231Z" fill="white"/>
<path d="M11.3975 21.3062L13.4228 29.3972H18.484L20.5083 21.3062" stroke="#00CA90" stroke-width="2" stroke-linecap="round" stroke-linejoin="round"/>
<path fill-rule="evenodd" clip-rule="evenodd" d="M28.8294 15.9977C28.7029 14.9849 27.8409 14.2261 26.8202 14.2261H25.5705H24.5588L20.003 16.2486H17.4724C16.9138 16.2486 16.4597 16.7013 16.4597 17.2604C16.4597 17.8184 17.4201 16.2486 17.9787 16.2486H21.0156L22.5336 17.2604L23.5462 29.3975H27.5958L28.1011 22.3172H28.4728C29.0826 22.3172 29.5528 21.7842 29.4774 21.1799L28.8294 15.9977Z" stroke="#00CA90" stroke-width="2" stroke-linecap="round" stroke-linejoin="round"/>
<path fill-rule="evenodd" clip-rule="evenodd" d="M25.5715 12.2035C26.6907 12.2035 27.5968 11.2981 27.5968 10.18C27.5968 9.06282 26.6907 8.15747 25.5715 8.15747C24.4534 8.15747 23.5472 9.06282 23.5472 10.18C23.5472 11.2981 24.4534 12.2035 25.5715 12.2035Z" stroke="#00CA90" stroke-width="2" stroke-linecap="round" stroke-linejoin="round"/>
<path fill-rule="evenodd" clip-rule="evenodd" d="M15.4431 20.2944L13.4188 22.317L15.4431 25.3513L17.4684 23.3287L15.4431 20.2944Z" fill="#00CA90"/>
</svg>
