<svg width="65" height="64" viewBox="0 0 65 64" fill="none" xmlns="http://www.w3.org/2000/svg">
<path d="M32.6321 63.8771C50.2433 63.8771 64.52 49.6128 64.52 32.017C64.52 14.4212 50.2433 0.156982 32.6321 0.156982C15.0209 0.156982 0.744202 14.4212 0.744202 32.017C0.744202 49.6128 15.0209 63.8771 32.6321 63.8771Z" fill="white"/>
<path fill-rule="evenodd" clip-rule="evenodd" d="M17.9608 37.7182L26.9791 18.4084L46.3048 17.1216L41.1512 40.2927L17.9608 37.7182Z" stroke="#00CA90" stroke-width="2" stroke-linecap="round" stroke-linejoin="round"/>
<path d="M21.1826 31.2812L42.4411 32.569" stroke="#00CA90" stroke-width="2" stroke-linecap="round" stroke-linejoin="round"/>
<path d="M24.4084 24.8455H44.378" stroke="#00CA90" stroke-width="2" stroke-linecap="round" stroke-linejoin="round"/>
<path d="M25.6912 38.3616L33.4217 18.4084" stroke="#00CA90" stroke-width="2" stroke-linecap="round" stroke-linejoin="round"/>
<path d="M39.8643 17.7651L33.4217 39.0051" stroke="#00CA90" stroke-width="2" stroke-linecap="round" stroke-linejoin="round"/>
<path d="M34.7086 39.6484V44.1542" stroke="#00CA90" stroke-width="2" stroke-linecap="round" stroke-linejoin="round"/>
<path d="M30.8439 39.6484V44.1542" stroke="#00CA90" stroke-width="2" stroke-linecap="round" stroke-linejoin="round"/>
<path fill-rule="evenodd" clip-rule="evenodd" d="M37.2844 46.7286H28.2651C28.2651 45.3053 29.4184 44.1541 30.8419 44.1541H34.7076C36.1311 44.1541 37.2844 45.3053 37.2844 46.7286Z" stroke="#00CA90" stroke-width="2" stroke-linecap="round" stroke-linejoin="round"/>
</svg>
