<svg width="75" height="74" viewBox="0 0 75 74" fill="none" xmlns="http://www.w3.org/2000/svg">
<path d="M37.446 73.8882C57.8526 73.8882 74.3955 57.3598 74.3955 36.9709C74.3955 16.5821 57.8526 0.0537109 37.446 0.0537109C17.0394 0.0537109 0.496582 16.5821 0.496582 36.9709C0.496582 57.3598 17.0394 73.8882 37.446 73.8882Z" fill="white"/>
<path fill-rule="evenodd" clip-rule="evenodd" d="M36.4475 31.2918C33.3212 34.4154 28.2529 34.4154 25.1276 31.2918C22.0013 28.1671 22.0013 23.1033 25.1276 19.9807C28.2529 16.8571 34.1781 14.0828 42.3495 14.0828C38.1995 18.2292 39.5748 28.1671 36.4475 31.2918Z" stroke="#00CA90" stroke-width="2" stroke-linecap="round" stroke-linejoin="round"/>
<path d="M32.5667 21.9038C31.751 21.9038 22.7828 29.1136 22.7828 37.5439" stroke="#00CA90" stroke-width="2" stroke-linecap="round" stroke-linejoin="round"/>
<path d="M34.5276 53.1853H42.3546" stroke="#00CA90" stroke-width="2" stroke-linecap="round" stroke-linejoin="round"/>
<path d="M36.4787 59.051H40.3915" stroke="#00CA90" stroke-width="2" stroke-linecap="round" stroke-linejoin="round"/>
<path d="M30.2742 39.7452C30.7323 42.1441 31.8805 47.3194 34.5257 47.3194H42.3536C44.9796 47.3194 46.1299 42.2164 46.594 39.7954C46.7467 39.0055 47.1807 38.3179 47.7694 37.7699C50.4527 35.2736 52.1374 31.7214 52.1374 27.7677C52.1374 23.818 50.4527 20.2779 47.7694 17.7876" stroke="#00CA90" stroke-width="2" stroke-linecap="round" stroke-linejoin="round"/>
</svg>
