<svg width="48" height="50" viewBox="0 0 48 50" fill="none" xmlns="http://www.w3.org/2000/svg">
<path d="M23.9181 49.0411C37.0566 49.0411 47.7075 38.1731 47.7075 24.7668C47.7075 11.3604 37.0566 0.492432 23.9181 0.492432C10.7797 0.492432 0.128845 11.3604 0.128845 24.7668C0.128845 38.1731 10.7797 49.0411 23.9181 49.0411Z" fill="white"/>
<path fill-rule="evenodd" clip-rule="evenodd" d="M34.6192 22.5105C32.6643 24.4637 29.4958 24.4637 27.5428 22.5105C25.5879 20.5572 25.5879 17.3914 27.5428 15.4392C29.4958 13.4859 33.2008 11.7524 38.3092 11.7524C35.7143 14.3441 36.5742 20.5572 34.6192 22.5105Z" stroke="#00CA90" stroke-width="2" stroke-linecap="round" stroke-linejoin="round"/>
<path fill-rule="evenodd" clip-rule="evenodd" d="M18.1336 15.9088C19.1111 16.8854 20.6954 16.8854 21.6728 15.9088C22.6503 14.9322 22.6503 13.3493 21.6728 12.3726C20.6954 11.398 18.8439 10.5298 16.2892 10.5298C17.5861 11.8266 17.1562 14.9322 18.1336 15.9088Z" stroke="#00CA90" stroke-width="2" stroke-linecap="round" stroke-linejoin="round"/>
<path d="M21.6729 15.9087C23.5535 17.7877 26.0761 27.6413 26.0761 27.6413C26.0761 27.6413 27.2233 21.6069 32.1931 16.6414" stroke="#00CA90" stroke-width="2" stroke-linecap="round" stroke-linejoin="round"/>
<path fill-rule="evenodd" clip-rule="evenodd" d="M10.1711 36.1971H13.8409C13.8409 36.1971 16.0129 29.5635 16.2882 26.4198C15.3188 25.5024 10.1711 25.1973 10.1711 25.1973V36.1971Z" stroke="#00CA90" stroke-width="2" stroke-linecap="round" stroke-linejoin="round"/>
<path d="M29.7439 33.142L34.4314 31.9716C35.9805 31.5842 37.5929 32.3239 38.3082 33.7532L31.5794 36.8086C26.482 38.8963 26.055 38.9475 23.6278 38.0311L14.4528 34.9758" stroke="#00CA90" stroke-width="2" stroke-linecap="round" stroke-linejoin="round"/>
<path d="M16.2892 27.6414L27.2987 30.0864C28.9321 30.495 29.7459 31.2668 29.7459 32.9491V33.1418L28.0993 33.5523C27.5719 33.6848 27.0224 33.6979 26.489 33.5915L21.1826 32.5305" stroke="#00CA90" stroke-width="2" stroke-linecap="round" stroke-linejoin="round"/>
</svg>
