<svg width="36" height="37" viewBox="0 0 36 37" fill="none" xmlns="http://www.w3.org/2000/svg">
<path d="M18.126 36.1C27.91 36.1 35.8415 28.1754 35.8415 18.4C35.8415 8.62452 27.91 0.699951 18.126 0.699951C8.34202 0.699951 0.410522 8.62452 0.410522 18.4C0.410522 28.1754 8.34202 36.1 18.126 36.1Z" fill="white"/>
<path fill-rule="evenodd" clip-rule="evenodd" d="M15.7893 17.5337C17.023 16.3011 17.3073 12.9828 15.7893 11.4651C14.0011 9.67951 10.4106 9.44263 7.69012 9.44263C7.69012 12.1617 7.9272 15.7481 9.71541 17.5337C11.2334 19.0513 14.5546 18.7673 15.7893 17.5337Z" stroke="#00CA90" stroke-width="2" stroke-linecap="round" stroke-linejoin="round"/>
<path fill-rule="evenodd" clip-rule="evenodd" d="M20.8746 19.5342C19.641 18.3016 19.3567 14.9833 20.8746 13.4656C22.6628 11.68 26.2523 11.4431 28.9728 11.4431C28.9728 14.1622 28.7367 17.7485 26.9485 19.5342C25.4305 21.0518 22.1083 20.7678 20.8746 19.5342Z" stroke="#00CA90" stroke-width="2" stroke-linecap="round" stroke-linejoin="round"/>
<path d="M24.9041 15.5113C23.7016 16.0794 17.8176 18.6299 17.8176 28.6602C17.8176 16.1858 12.461 14.2044 11.7437 13.4888" stroke="#00CA90" stroke-width="2" stroke-linecap="round" stroke-linejoin="round"/>
</svg>
