<svg width="49" height="49" viewBox="0 0 49 49" fill="none" xmlns="http://www.w3.org/2000/svg">
<path d="M24.6405 48.7914C37.7789 48.7914 48.4298 37.9234 48.4298 24.517C48.4298 11.1107 37.7789 0.242676 24.6405 0.242676C11.502 0.242676 0.851196 11.1107 0.851196 24.517C0.851196 37.9234 11.502 48.7914 24.6405 48.7914Z" fill="white"/>
<path fill-rule="evenodd" clip-rule="evenodd" d="M37.3055 20.0754C37.3055 24.3252 33.8577 27.7711 29.6032 27.7711C25.3497 27.7711 21.9009 24.3252 21.9009 20.0754C21.9009 15.8251 25.3497 12.3796 29.6032 12.3796C33.8577 12.3796 37.3055 15.8251 37.3055 20.0754Z" stroke="#00CA90" stroke-width="2" stroke-linecap="round" stroke-linejoin="round"/>
<path d="M30.2161 27.5513V36.6541H29.2045V27.5513" stroke="#00CA90" stroke-width="2" stroke-linecap="round" stroke-linejoin="round"/>
<path d="M24.1021 21.1745C24.1021 19.7322 26.3031 19.7322 26.3031 21.1745" stroke="#00CA90" stroke-width="2" stroke-linecap="round" stroke-linejoin="round"/>
<path d="M29.6002 24.4729C29.6002 23.0305 31.8013 23.0305 31.8013 24.4729" stroke="#00CA90" stroke-width="2" stroke-linecap="round" stroke-linejoin="round"/>
<path d="M31.7983 20.0583C31.7983 18.616 33.9984 18.616 33.9984 20.0583" stroke="#00CA90" stroke-width="2" stroke-linecap="round" stroke-linejoin="round"/>
<path d="M26.3041 16.7773C26.3041 15.335 28.5042 15.335 28.5042 16.7773" stroke="#00CA90" stroke-width="2" stroke-linecap="round" stroke-linejoin="round"/>
<path d="M13.0986 35.4668V36.5659" stroke="#00CA90" stroke-width="2" stroke-linecap="round" stroke-linejoin="round"/>
<path d="M25.201 35.4668V36.5659" stroke="#00CA90" stroke-width="2" stroke-linecap="round" stroke-linejoin="round"/>
<path d="M13.0986 28.8701V29.9692" stroke="#00CA90" stroke-width="2" stroke-linecap="round" stroke-linejoin="round"/>
<path d="M25.201 28.8701V29.9692" stroke="#00CA90" stroke-width="2" stroke-linecap="round" stroke-linejoin="round"/>
<path d="M26.3011 33.2686H11.9965" stroke="#00CA90" stroke-width="2" stroke-linecap="round" stroke-linejoin="round"/>
<path fill-rule="evenodd" clip-rule="evenodd" d="M13.0986 33.2675H25.2031V29.9702H13.0986V33.2675Z" stroke="#00CA90" stroke-width="2" stroke-linecap="round" stroke-linejoin="round"/>
</svg>
