<svg width="60" height="60" viewBox="0 0 60 60" fill="none" xmlns="http://www.w3.org/2000/svg">
<path d="M29.9868 59.2884C46.2003 59.2884 59.3438 46.1562 59.3438 29.9569C59.3438 13.7576 46.2003 0.625488 29.9868 0.625488C13.7733 0.625488 0.6297 13.7576 0.6297 29.9569C0.6297 46.1562 13.7733 59.2884 29.9868 59.2884Z" fill="white"/>
<path fill-rule="evenodd" clip-rule="evenodd" d="M32.3255 28.2012C32.3255 29.4867 31.2807 30.5299 29.9948 30.5299C28.7079 30.5299 27.6641 29.4867 27.6641 28.2012C27.6641 26.9157 28.7079 25.8726 29.9948 25.8726C31.2807 25.8726 32.3255 26.9157 32.3255 28.2012Z" stroke="#00CA90" stroke-width="2" stroke-linecap="round" stroke-linejoin="round"/>
<path fill-rule="evenodd" clip-rule="evenodd" d="M30.47 12.3222C30.3796 11.7943 29.6252 11.7943 29.5368 12.3222C28.8556 16.3461 27.6722 23.3835 27.6722 23.5449C27.6722 24.8304 28.714 25.8736 30.0029 25.8736C31.2888 25.8736 32.3336 24.8304 32.3336 23.5449C32.3336 23.3136 31.1512 16.3259 30.47 12.3222Z" stroke="#00CA90" stroke-width="2" stroke-linecap="round" stroke-linejoin="round"/>
<path fill-rule="evenodd" clip-rule="evenodd" d="M15.9996 35.7356C15.5878 36.0772 15.9655 36.7308 16.4658 36.5429C20.2943 35.1193 26.987 32.6277 27.1267 32.5469C28.2408 31.9042 28.6235 30.479 27.9796 29.366C27.3366 28.2512 25.9101 27.8709 24.796 28.5136C24.5961 28.6285 19.131 33.1446 15.9996 35.7356Z" stroke="#00CA90" stroke-width="2" stroke-linecap="round" stroke-linejoin="round"/>
<path fill-rule="evenodd" clip-rule="evenodd" d="M43.5259 36.5465C44.0282 36.7328 44.4059 36.0792 43.992 35.7392C40.8446 33.1389 35.3373 28.5932 35.1987 28.5141C34.0836 27.8698 32.659 28.2517 32.0151 29.3663C31.3701 30.4795 31.7529 31.9046 32.868 32.5474C33.0669 32.6622 39.7144 35.1338 43.5259 36.5465Z" stroke="#00CA90" stroke-width="2" stroke-linecap="round" stroke-linejoin="round"/>
<path fill-rule="evenodd" clip-rule="evenodd" d="M26.114 47.6072L29.2213 33.635H30.7754L33.8827 47.6072H26.114Z" stroke="#00CA90" stroke-width="2" stroke-linecap="round" stroke-linejoin="round"/>
</svg>
