<svg width="111" height="30" viewBox="0 0 111 30" fill="none" xmlns="http://www.w3.org/2000/svg">
<path fill-rule="evenodd" clip-rule="evenodd" d="M15.378 10.322C14.3753 8.82574 12.9182 7.6914 11.2216 7.08637C9.52512 6.48133 7.67905 6.43764 5.9558 6.96174C4.23256 7.48584 2.72341 8.54997 1.65103 9.99713C0.578655 11.4443 -0.000156079 13.1978 1.2085e-07 14.999C-0.000305346 16.8005 0.578485 18.5544 1.65096 20.0018C2.72344 21.4493 4.2328 22.5136 5.95632 23.0379C7.67984 23.5621 9.52623 23.5184 11.223 22.9133C12.9198 22.3081 14.3772 21.1736 15.38 19.677C15.4465 19.5418 15.4599 19.3865 15.4175 19.2419C15.3751 19.0973 15.28 18.9739 15.151 18.896L12.778 17.526C12.6545 17.4559 12.51 17.4323 12.3706 17.4595C12.2313 17.4866 12.1062 17.5627 12.018 17.674C11.4549 18.4355 10.6659 18.9999 9.76336 19.2869C8.86081 19.5739 7.89072 19.5688 6.99123 19.2724C6.09174 18.9759 5.30871 18.4033 4.75364 17.6359C4.19856 16.8685 3.89975 15.9456 3.89975 14.9985C3.89975 14.0514 4.19856 13.1285 4.75364 12.3611C5.30871 11.5937 6.09174 11.0211 6.99123 10.7246C7.89072 10.4282 8.86081 10.4231 9.76336 10.7101C10.6659 10.9971 11.4549 11.5615 12.018 12.323C12.1066 12.4338 12.2316 12.5095 12.3708 12.5366C12.51 12.5637 12.6543 12.5405 12.778 12.471L15.151 11.101C15.2794 11.0228 15.3739 10.8994 15.4159 10.7551C15.4579 10.6107 15.4444 10.4559 15.378 10.321V10.322ZM17.547 0.598003V22.499C17.547 22.832 17.816 23.099 18.146 23.099H20.846C20.9248 23.0991 21.0029 23.0837 21.0758 23.0536C21.1486 23.0235 21.2148 22.9793 21.2706 22.9236C21.3263 22.8678 21.3705 22.8016 21.4006 22.7288C21.4307 22.6559 21.4461 22.5778 21.446 22.499V0.599003C21.4461 0.52022 21.4307 0.442187 21.4006 0.369388C21.3705 0.296589 21.3263 0.230459 21.2705 0.174798C21.2147 0.119136 21.1485 0.0750398 21.0757 0.045043C21.0028 0.0150461 20.9248 -0.000260252 20.846 3.3476e-06H18.148C18.0692 -0.000128084 17.9912 0.0152613 17.9183 0.0452927C17.8455 0.0753242 17.7793 0.11941 17.7234 0.175032C17.6676 0.230654 17.6233 0.296724 17.5931 0.369469C17.5628 0.442214 17.5471 0.52021 17.547 0.599003V0.598003ZM41.142 7.287L46.775 22.76C46.8241 22.8614 46.9008 22.947 46.9963 23.0067C47.0919 23.0665 47.2023 23.0982 47.315 23.098H51.05C51.1627 23.0984 51.2733 23.0669 51.3689 23.007C51.4644 22.9472 51.5411 22.8616 51.59 22.76L57.222 7.287C57.2356 7.24211 57.2385 7.19464 57.2304 7.14843C57.2224 7.10221 57.2036 7.05853 57.1756 7.0209C57.1476 6.98326 57.1111 6.95272 57.0692 6.93172C57.0272 6.91073 56.9809 6.89986 56.934 6.9H53.63C53.5173 6.89961 53.4067 6.93114 53.3111 6.99096C53.2156 7.05077 53.1389 7.13642 53.09 7.238L49.185 17.97L45.28 7.238C45.2309 7.13646 45.1543 7.0508 45.0588 6.99084C44.9632 6.93088 44.8528 6.89905 44.74 6.899H41.436C41.3965 6.899 41.3574 6.9068 41.321 6.92193C41.2845 6.93707 41.2514 6.95926 41.2235 6.98722C41.1956 7.01519 41.1736 7.04838 41.1586 7.08489C41.1435 7.1214 41.1359 7.16052 41.136 7.2C41.1305 7.22904 41.1326 7.259 41.142 7.287V7.287ZM68.33 6.889C67.2084 6.58828 66.0365 6.52339 64.8885 6.69844C63.7406 6.87348 62.6413 7.28465 61.6603 7.90598C60.6792 8.52731 59.8377 9.34531 59.1887 10.3083C58.5398 11.2713 58.0976 12.3584 57.89 13.501C57.7086 14.4927 57.7082 15.5091 57.889 16.501C58.1738 18.0675 58.8978 19.5209 59.9767 20.6919C61.0556 21.8628 62.445 22.7032 63.983 23.115C65.3079 23.4715 66.7 23.4974 68.0373 23.1905C69.3745 22.8837 70.6161 22.2534 71.653 21.355C71.7094 21.2997 71.7543 21.2339 71.7852 21.1612C71.8161 21.0885 71.8323 21.0104 71.833 20.9315C71.8336 20.8525 71.8187 20.7742 71.789 20.701C71.7593 20.6278 71.7155 20.5612 71.66 20.505L69.732 18.577C69.6198 18.4673 69.4689 18.4062 69.312 18.407C69.1904 18.4069 69.0716 18.4443 68.972 18.514C68.4209 18.9569 67.773 19.2634 67.0811 19.4087C66.3891 19.554 65.6727 19.5339 64.99 19.35C64.284 19.1617 63.6347 18.804 63.0983 18.3078C62.5619 17.8117 62.1547 17.1922 61.912 16.503H73.904C74.0499 16.5027 74.1907 16.4492 74.3001 16.3526C74.4094 16.2559 74.4798 16.1228 74.498 15.978C74.7329 13.9747 74.2389 11.9537 73.1064 10.2847C71.9738 8.61558 70.2784 7.40989 68.33 6.888V6.889ZM61.912 13.503C62.2901 12.435 63.0569 11.5488 64.0594 11.0212C65.062 10.4935 66.2266 10.3631 67.321 10.656C68.0268 10.8444 68.6759 11.2022 69.2122 11.6984C69.7484 12.1945 70.1554 12.8139 70.398 13.503H61.912V13.503ZM77.098 7.499V22.499C77.098 22.658 77.1611 22.8104 77.2734 22.9229C77.3857 23.0354 77.538 23.0987 77.697 23.099H80.397C80.4759 23.0993 80.554 23.0839 80.6269 23.0539C80.6998 23.0238 80.7661 22.9796 80.8219 22.9239C80.8776 22.8681 80.9218 22.8018 80.9519 22.7289C80.9819 22.656 80.9973 22.5779 80.997 22.499V14.976C81.0029 13.8771 81.4106 12.8183 82.1432 11.9992C82.8757 11.18 83.8826 10.6571 84.974 10.529C85.1186 10.5103 85.2514 10.4396 85.3477 10.3301C85.4439 10.2206 85.497 10.0798 85.497 9.934V6.989C85.4967 6.94656 85.4875 6.90464 85.4699 6.866C85.4524 6.82736 85.4269 6.79285 85.3951 6.76473C85.3633 6.73661 85.3259 6.71551 85.2854 6.70281C85.2449 6.69011 85.2022 6.68608 85.16 6.691C83.554 6.949 82.193 7.561 80.997 8.566L80.531 7.286C80.4874 7.17255 80.4105 7.07496 80.3103 7.00606C80.2102 6.93716 80.0915 6.90019 79.97 6.9H77.697C77.5379 6.9 77.3853 6.96322 77.2727 7.07574C77.1602 7.18826 77.097 7.34087 77.097 7.5L77.098 7.499ZM87.773 0.598003V22.499C87.773 22.832 88.043 23.099 88.373 23.099H91.073C91.1518 23.0991 91.2299 23.0837 91.3028 23.0536C91.3756 23.0235 91.4418 22.9793 91.4976 22.9236C91.5533 22.8678 91.5975 22.8016 91.6276 22.7288C91.6577 22.6559 91.6731 22.5778 91.673 22.499V0.599003C91.6731 0.52022 91.6577 0.442187 91.6276 0.369388C91.5975 0.296589 91.5533 0.230459 91.4975 0.174798C91.4417 0.119136 91.3755 0.0750398 91.3027 0.045043C91.2298 0.0150461 91.1518 -0.000260252 91.073 3.3476e-06H88.373C88.214 3.12683e-06 88.0616 0.0630799 87.9491 0.175386C87.8366 0.287691 87.7733 0.440047 87.773 0.599003V0.598003ZM93.937 7.287L99.57 22.759C99.619 22.8603 99.6956 22.9457 99.7909 23.0055C99.8862 23.0653 99.9965 23.097 100.109 23.097L97.739 29.611C97.7254 29.6559 97.7225 29.7034 97.7306 29.7496C97.7386 29.7958 97.7574 29.8395 97.7854 29.8771C97.8134 29.9147 97.8499 29.9453 97.8918 29.9663C97.9338 29.9873 97.9801 29.9981 98.027 29.998H101.331C101.444 29.9984 101.554 29.9667 101.65 29.9067C101.745 29.8467 101.822 29.7608 101.87 29.659L104.258 23.097L104.381 22.759L110.013 7.286C110.027 7.24111 110.029 7.19364 110.021 7.14743C110.013 7.10121 109.995 7.05753 109.967 7.0199C109.939 6.98226 109.902 6.95172 109.86 6.93072C109.818 6.90973 109.772 6.89886 109.725 6.899H106.421C106.308 6.89872 106.198 6.93031 106.102 6.99011C106.007 7.04991 105.93 7.1355 105.881 7.237L101.976 17.969L98.071 7.237C98.0219 7.13546 97.9453 7.0498 97.8498 6.98984C97.7542 6.92988 97.6438 6.89805 97.531 6.898H94.227C94.1875 6.898 94.1484 6.9058 94.112 6.92093C94.0755 6.93607 94.0424 6.95826 94.0145 6.98622C93.9866 7.01419 93.9646 7.04738 93.9495 7.08389C93.9345 7.1204 93.9269 7.15952 93.927 7.199C93.9242 7.22838 93.9276 7.25803 93.937 7.286V7.287Z" fill="white"/>
</svg>
