<svg width="17" height="17" viewBox="0 0 17 17" fill="none" xmlns="http://www.w3.org/2000/svg">
<path fill-rule="evenodd" clip-rule="evenodd" d="M7.5746 12.8746C6.66996 12.7071 5.83736 12.2693 5.18663 11.6189C4.5359 10.9685 4.09762 10.1361 3.9296 9.2316C3.91683 9.18585 3.89196 9.1444 3.8576 9.1116C3.82922 9.08329 3.79503 9.06147 3.75739 9.04765C3.71975 9.03384 3.67956 9.02836 3.6396 9.0316L3.5696 9.0396L2.0016 9.2466C1.61911 9.33372 1.2616 9.50714 0.956412 9.75361C0.651221 10.0001 0.406425 10.3131 0.240744 10.6687C0.075063 11.0242 -0.00711815 11.413 0.000483141 11.8052C0.00808444 12.1974 0.105267 12.5827 0.284602 12.9316L0.344601 13.0356C0.822601 13.8336 1.6076 14.2926 2.4816 14.3256C2.50451 14.9494 2.75349 15.5436 3.18214 15.9974C3.61079 16.4512 4.18984 16.7336 4.81133 16.792C5.43282 16.8503 6.05433 16.6807 6.55999 16.3147C7.06564 15.9487 7.42093 15.4112 7.5596 14.8026L7.7656 13.2366L7.7736 13.1666C7.77664 13.1267 7.77107 13.0865 7.75727 13.0489C7.74346 13.0113 7.72176 12.9771 7.6936 12.9486C7.66234 12.9125 7.62084 12.8867 7.5746 12.8746V12.8746ZM3.9296 7.5746C4.09712 6.66996 4.53495 5.83736 5.18532 5.18663C5.83569 4.5359 6.66806 4.09762 7.5726 3.9296C7.61835 3.91683 7.65981 3.89196 7.6926 3.8576C7.7526 3.7976 7.7796 3.7176 7.7736 3.6396L7.7656 3.5696L7.5576 2.0016C7.47049 1.61911 7.29706 1.2616 7.05059 0.956411C6.80412 0.65122 6.49113 0.406425 6.13555 0.240744C5.77997 0.075063 5.39121 -0.00711815 4.99899 0.000483141C4.60678 0.00808444 4.2215 0.105267 3.8726 0.284601L3.7686 0.344601C2.9706 0.822601 2.5116 1.6076 2.4796 2.4816C1.85572 2.5043 1.2614 2.75313 0.807454 3.1817C0.353509 3.61027 0.0709375 4.18932 0.0124308 4.81086C-0.0460759 5.4324 0.123477 6.05401 0.489472 6.55976C0.855467 7.06551 1.39292 7.42088 2.0016 7.5596L3.5676 7.7646L3.6376 7.7736C3.67755 7.77664 3.71768 7.77107 3.75529 7.75727C3.79289 7.74346 3.8271 7.72176 3.8556 7.6936C3.89175 7.66234 3.91755 7.62085 3.9296 7.5746V7.5746ZM12.8746 7.5746C12.7071 6.66996 12.2693 5.83736 11.6189 5.18663C10.9685 4.5359 10.1361 4.09762 9.2316 3.9296C9.18585 3.91683 9.1444 3.89196 9.1116 3.8576C9.08323 3.82926 9.06137 3.79507 9.04756 3.75742C9.03374 3.71978 9.0283 3.67957 9.0316 3.6396L9.0396 3.5696L9.2466 2.0016C9.33372 1.61911 9.50714 1.2616 9.75361 0.956411C10.0001 0.65122 10.3131 0.406425 10.6687 0.240744C11.0242 0.075063 11.413 -0.00711815 11.8052 0.000483141C12.1974 0.00808444 12.5827 0.105267 12.9316 0.284601L13.0356 0.344601C13.8336 0.822601 14.2936 1.6076 14.3256 2.4816C14.9495 2.5043 15.5438 2.75313 15.9978 3.1817C16.4517 3.61027 16.7343 4.18932 16.7928 4.81086C16.8513 5.4324 16.6817 6.05401 16.3157 6.55976C15.9497 7.06551 15.4123 7.42088 14.8036 7.5596L13.2366 7.7646L13.1666 7.7736C13.1267 7.77664 13.0865 7.77107 13.0489 7.75727C13.0113 7.74346 12.9771 7.72176 12.9486 7.6936C12.9125 7.66234 12.8866 7.62085 12.8746 7.5746V7.5746ZM9.2296 12.8746C10.1342 12.7071 10.9668 12.2693 11.6176 11.6189C12.2683 10.9685 12.7066 10.1361 12.8746 9.2316C12.8874 9.18585 12.9122 9.1444 12.9466 9.1116C13.0066 9.0516 13.0866 9.0246 13.1646 9.0316L13.2346 9.0396L14.8036 9.2466C15.1861 9.33372 15.5436 9.50714 15.8488 9.75361C16.154 10.0001 16.3988 10.3131 16.5645 10.6687C16.7301 11.0242 16.8123 11.413 16.8047 11.8052C16.7971 12.1974 16.6999 12.5827 16.5206 12.9316L16.4606 13.0356C15.9826 13.8336 15.1966 14.2926 14.3226 14.3256C14.2997 14.9494 14.0507 15.5436 13.6221 15.9974C13.1934 16.4512 12.6144 16.7336 11.9929 16.792C11.3714 16.8503 10.7499 16.6807 10.2442 16.3147C9.73856 15.9487 9.38328 15.4112 9.2446 14.8026L9.0396 13.2366L9.0306 13.1666C9.02757 13.1267 9.03314 13.0865 9.04694 13.0489C9.06074 13.0113 9.08245 12.9771 9.1106 12.9486C9.14213 12.9123 9.184 12.8865 9.2306 12.8746H9.2296Z" fill="#00CA90"/>
</svg>
